<svg width="19" height="19" viewBox="0 0 19 19" fill="none" xmlns="http://www.w3.org/2000/svg">
<path d="M8.25842 17.3479L8.34855 9.84843L0.849092 9.75831C0.650194 9.75592 0.460391 9.67461 0.32144 9.53228C0.182488 9.38995 0.105768 9.19825 0.108158 8.99935H0.108158C0.110549 8.80045 0.191853 8.61065 0.334185 8.4717C0.476517 8.33275 0.668219 8.25603 0.867117 8.25842L8.36657 8.34854L8.4567 0.849084C8.45909 0.650186 8.54039 0.460383 8.68273 0.321432C8.82506 0.18248 9.01676 0.10576 9.21566 0.10815V0.10815C9.41456 0.110541 9.60436 0.191845 9.74331 0.334177C9.88226 0.476509 9.95898 0.668211 9.95659 0.867109L9.86647 8.36657L17.3659 8.45669C17.5648 8.45908 17.7546 8.54039 17.8936 8.68272C18.0325 8.82505 18.1092 9.01675 18.1069 9.21565C18.1045 9.41455 18.0232 9.60435 17.8808 9.7433C17.7385 9.88225 17.5468 9.95897 17.3479 9.95658L9.84844 9.86646L9.75832 17.3659C9.75593 17.5648 9.67462 17.7546 9.53229 17.8936C9.38996 18.0325 9.19826 18.1092 8.99936 18.1068C8.80046 18.1045 8.61066 18.0232 8.47171 17.8808C8.33275 17.7385 8.25603 17.5468 8.25842 17.3479Z" fill="white"/>
</svg>
