<svg width="22" height="21" viewBox="0 0 22 21" fill="none" xmlns="http://www.w3.org/2000/svg">
<path d="M5.0945 11.3437H14.6121L10.454 15.4612C10.1217 15.7902 10.1217 16.3302 10.454 16.6593C10.7863 16.9883 11.3231 16.9883 11.6554 16.6593L17.2706 11.099C17.6029 10.7699 17.6029 10.2383 17.2706 9.90929L11.664 4.34053C11.5048 4.18254 11.2886 4.09375 11.0633 4.09375C10.8379 4.09375 10.6217 4.18254 10.4626 4.34053C10.1302 4.6696 10.1302 5.20116 10.4626 5.53022L14.6121 9.65616H5.0945C4.62586 9.65616 4.24243 10.0358 4.24243 10.4999C4.24243 10.964 4.62586 11.3437 5.0945 11.3437Z" fill="#AB7711"/>
<mask id="mask0_1_28842" style="mask-type:luminance" maskUnits="userSpaceOnUse" x="4" y="4" width="14" height="13">
<path d="M5.0945 11.3437H14.6121L10.454 15.4612C10.1217 15.7902 10.1217 16.3302 10.454 16.6593C10.7863 16.9883 11.3231 16.9883 11.6554 16.6593L17.2706 11.099C17.6029 10.7699 17.6029 10.2383 17.2706 9.90929L11.664 4.34053C11.5048 4.18254 11.2886 4.09375 11.0633 4.09375C10.8379 4.09375 10.6217 4.18254 10.4626 4.34053C10.1302 4.6696 10.1302 5.20116 10.4626 5.53022L14.6121 9.65616H5.0945C4.62586 9.65616 4.24243 10.0358 4.24243 10.4999C4.24243 10.964 4.62586 11.3437 5.0945 11.3437Z" fill="white"/>
</mask>
<g mask="url(#mask0_1_28842)">
</g>
</svg>
