<svg width="82" height="81" viewBox="0 0 82 81" fill="none" xmlns="http://www.w3.org/2000/svg">
<ellipse cx="41" cy="40.5" rx="41" ry="40.5" fill="#F5EBDC"/>
<g clip-path="url(#clip0_1203_1893)">
<path d="M60.0326 56.9759H22.9346C22.6368 56.9752 22.3513 56.8575 22.1406 56.6484C21.9298 56.4393 21.811 56.156 21.8101 55.8602V50.8374C21.811 50.5415 21.9298 50.258 22.1405 50.0488C22.3512 49.8396 22.6367 49.7217 22.9346 49.7207H60.0326C60.3304 49.7217 60.6158 49.8396 60.8264 50.0489C61.0369 50.2581 61.1555 50.5416 61.1562 50.8374V55.8602C61.1553 56.1558 61.0366 56.439 60.826 56.6481C60.6155 56.8571 60.3303 56.975 60.0326 56.9759ZM24.0583 54.7444H58.908V51.9532H24.0583V54.7444Z" fill="#FFC30D"/>
<path d="M62.8426 62.0004H20.1246C19.8268 61.9994 19.5414 61.8816 19.3308 61.6726C19.1201 61.4635 19.0012 61.1803 19 60.8846V55.8609C19.001 55.5651 19.1198 55.2817 19.3305 55.0727C19.5412 54.8636 19.8267 54.7458 20.1246 54.7451H62.8426C63.1401 54.7463 63.425 54.8643 63.6352 55.0733C63.8453 55.2824 63.9637 55.5655 63.9644 55.8609V60.8846C63.9635 61.1799 63.845 61.4629 63.6349 61.6719C63.4248 61.8809 63.14 61.9989 62.8426 62.0004ZM21.2482 59.7679H61.718V56.9776H21.2482V59.7679Z" fill="#FFC30D"/>
<path d="M26.869 48.0461C26.5718 48.044 26.2875 47.9255 26.0778 47.7164C25.8681 47.5074 25.7499 47.2246 25.749 46.9295V27.9532C25.7447 27.8039 25.7706 27.6553 25.8252 27.5162C25.8797 27.377 25.9619 27.2502 26.0667 27.1431C26.1715 27.036 26.2968 26.9509 26.4354 26.8928C26.5739 26.8346 26.7227 26.8047 26.8731 26.8047C27.0235 26.8047 27.1723 26.8346 27.3108 26.8928C27.4494 26.9509 27.5747 27.036 27.6795 27.1431C27.7843 27.2502 27.8665 27.377 27.921 27.5162C27.9756 27.6553 28.0015 27.8039 27.9972 27.9532V46.9295C27.997 47.0763 27.9676 47.2217 27.9108 47.3574C27.8539 47.493 27.7708 47.6161 27.666 47.7198C27.5612 47.8235 27.4369 47.9057 27.3002 47.9617C27.1634 48.0177 27.0169 48.0464 26.869 48.0461Z" fill="#F7941E"/>
<path d="M34.1768 48.0461C33.8788 48.0452 33.5933 47.9272 33.3827 47.718C33.172 47.5088 33.0532 47.2253 33.0522 46.9295V27.9532C33.0479 27.8039 33.0738 27.6553 33.1284 27.5162C33.183 27.377 33.2651 27.2502 33.3699 27.1431C33.4747 27.036 33.6001 26.9509 33.7386 26.8928C33.8771 26.8346 34.0259 26.8047 34.1763 26.8047C34.3267 26.8047 34.4755 26.8346 34.6141 26.8928C34.7526 26.9509 34.8779 27.036 34.9828 27.1431C35.0876 27.2502 35.1697 27.377 35.2242 27.5162C35.2788 27.6553 35.3047 27.8039 35.3004 27.9532V46.9295C35.2995 47.2252 35.1808 47.5085 34.9703 47.7177C34.7598 47.9269 34.4746 48.045 34.1768 48.0461Z" fill="#F7941E"/>
<path d="M41.483 48.0461C41.1851 48.0452 40.8997 47.9272 40.6892 47.718C40.4787 47.5087 40.3601 47.2253 40.3593 46.9295V27.9532C40.3551 27.8039 40.381 27.6553 40.4355 27.5162C40.4901 27.377 40.5722 27.2502 40.677 27.1431C40.7818 27.036 40.9072 26.9509 41.0457 26.8928C41.1842 26.8346 41.3331 26.8047 41.4835 26.8047C41.6338 26.8047 41.7827 26.8346 41.9212 26.8928C42.0597 26.9509 42.1851 27.036 42.2899 27.1431C42.3947 27.2502 42.4768 27.377 42.5314 27.5162C42.5859 27.6553 42.6118 27.8039 42.6076 27.9532V46.9295C42.6066 47.2253 42.4878 47.5088 42.2771 47.718C42.0664 47.9272 41.781 48.0452 41.483 48.0461Z" fill="#F7941E"/>
<path d="M48.7906 48.0461C48.4926 48.0452 48.2071 47.9272 47.9964 47.718C47.7857 47.5088 47.6669 47.2253 47.666 46.9295V27.9532C47.6617 27.8039 47.6876 27.6553 47.7422 27.5162C47.7967 27.377 47.8789 27.2502 47.9837 27.1431C48.0885 27.036 48.2138 26.9509 48.3524 26.8928C48.4909 26.8346 48.6397 26.8047 48.7901 26.8047C48.9405 26.8047 49.0893 26.8346 49.2278 26.8928C49.3664 26.9509 49.4917 27.036 49.5965 27.1431C49.7013 27.2502 49.7834 27.377 49.838 27.5162C49.8926 27.6553 49.9185 27.8039 49.9142 27.9532V46.9295C49.9135 47.2253 49.7949 47.5087 49.5844 47.718C49.3738 47.9272 49.0884 48.0452 48.7906 48.0461Z" fill="#F7941E"/>
<path d="M56.0982 48.0461C55.8002 48.0452 55.5147 47.9272 55.304 47.718C55.0934 47.5088 54.9746 47.2253 54.9736 46.9295V27.9532C54.9693 27.8039 54.9952 27.6553 55.0498 27.5162C55.1044 27.377 55.1865 27.2502 55.2913 27.1431C55.3961 27.036 55.5215 26.9509 55.66 26.8928C55.7985 26.8346 55.9473 26.8047 56.0977 26.8047C56.2481 26.8047 56.3969 26.8346 56.5355 26.8928C56.674 26.9509 56.7993 27.036 56.9041 27.1431C57.0089 27.2502 57.0911 27.377 57.1456 27.5162C57.2002 27.6553 57.2261 27.8039 57.2218 27.9532V46.9295C57.2211 47.2253 57.1025 47.5087 56.892 47.718C56.6814 47.9272 56.396 48.0452 56.0982 48.0461Z" fill="#F7941E"/>
<path d="M62.8425 29.0695H20.1245C19.8768 29.0723 19.6357 28.9908 19.4412 28.8386C19.2467 28.6863 19.1106 28.4725 19.0556 28.2327C18.9434 27.7309 19.1121 27.2283 19.5618 27.0046L40.9212 14.1678C41.2578 13.9441 41.7083 13.9441 42.1014 14.1678L63.4609 27.0046C63.6657 27.1292 63.8251 27.3156 63.9157 27.5366C64.0062 27.7575 64.0233 28.0014 63.9644 28.2327C63.8899 28.472 63.7411 28.6819 63.5393 28.8322C63.3375 28.9825 63.093 29.0656 62.8407 29.0695H62.8425ZM24.1713 26.8371H58.8514L41.4831 16.4002L24.1713 26.8371Z" fill="#FFC30D"/>
</g>
<defs>
<clipPath id="clip0_1203_1893">
<rect width="45" height="48" fill="white" transform="translate(19 14)"/>
</clipPath>
</defs>
</svg>
