<svg width="45" height="48" viewBox="0 0 45 48" fill="none" xmlns="http://www.w3.org/2000/svg">
<g clip-path="url(#clip0_1_26244)">
<path d="M41.0326 42.9759H3.93463C3.63675 42.9752 3.35127 42.8575 3.14056 42.6484C2.92984 42.4393 2.81102 42.156 2.81006 41.8602V36.8374C2.81102 36.5415 2.92981 36.258 3.1405 36.0488C3.35119 35.8396 3.63667 35.7217 3.93463 35.7207H41.0326C41.3304 35.7217 41.6158 35.8396 41.8264 36.0489C42.0369 36.2581 42.1555 36.5416 42.1562 36.8374V41.8602C42.1553 42.1558 42.0366 42.439 41.826 42.6481C41.6155 42.8571 41.3303 42.975 41.0326 42.9759ZM5.05828 40.7444H39.908V37.9532H5.05828V40.7444Z" fill="#FFC30D"/>
<path d="M43.8426 48.0004H1.12457C0.826767 47.9994 0.541425 47.8816 0.330761 47.6726C0.120098 47.4635 0.00120218 47.1803 0 46.8846V41.8609C0.000963123 41.5651 0.119782 41.2817 0.330497 41.0727C0.541212 40.8636 0.826693 40.7458 1.12457 40.7451H43.8426C44.1401 40.7463 44.425 40.8643 44.6352 41.0733C44.8453 41.2824 44.9637 41.5655 44.9644 41.8609V46.8846C44.9635 47.1799 44.845 47.4629 44.6349 47.6719C44.4248 47.8809 44.14 47.9989 43.8426 48.0004ZM2.24822 45.7679H42.718V42.9776H2.24822V45.7679Z" fill="#FFC30D"/>
<path d="M7.869 34.0461C7.57183 34.044 7.28752 33.9255 7.07781 33.7164C6.86811 33.5074 6.74994 33.2246 6.74899 32.9295V13.9532C6.74471 13.8039 6.77062 13.6553 6.82518 13.5162C6.87975 13.377 6.96186 13.2502 7.06667 13.1431C7.17148 13.036 7.29685 12.9509 7.43536 12.8928C7.57388 12.8346 7.72273 12.8047 7.8731 12.8047C8.02348 12.8047 8.17233 12.8346 8.31084 12.8928C8.44936 12.9509 8.57473 13.036 8.67953 13.1431C8.78434 13.2502 8.86646 13.377 8.92102 13.5162C8.97559 13.6553 9.00149 13.8039 8.99721 13.9532V32.9295C8.99697 33.0763 8.9676 33.2217 8.91077 33.3574C8.85395 33.493 8.77078 33.6161 8.66601 33.7198C8.56125 33.8235 8.43694 33.9057 8.30019 33.9617C8.16344 34.0177 8.01692 34.0464 7.869 34.0461Z" fill="#F7941E"/>
<path d="M15.1768 34.0461C14.8788 34.0452 14.5933 33.9272 14.3827 33.718C14.172 33.5088 14.0532 33.2253 14.0522 32.9295V13.9532C14.0479 13.8039 14.0738 13.6553 14.1284 13.5162C14.183 13.377 14.2651 13.2502 14.3699 13.1431C14.4747 13.036 14.6001 12.9509 14.7386 12.8928C14.8771 12.8346 15.0259 12.8047 15.1763 12.8047C15.3267 12.8047 15.4755 12.8346 15.6141 12.8928C15.7526 12.9509 15.8779 13.036 15.9828 13.1431C16.0876 13.2502 16.1697 13.377 16.2242 13.5162C16.2788 13.6553 16.3047 13.8039 16.3004 13.9532V32.9295C16.2995 33.2252 16.1808 33.5085 15.9703 33.7177C15.7598 33.9269 15.4746 34.045 15.1768 34.0461Z" fill="#F7941E"/>
<path d="M22.483 34.0461C22.1851 34.0452 21.8997 33.9272 21.6892 33.718C21.4787 33.5087 21.3601 33.2253 21.3593 32.9295V13.9532C21.3551 13.8039 21.381 13.6553 21.4355 13.5162C21.4901 13.377 21.5722 13.2502 21.677 13.1431C21.7818 13.036 21.9072 12.9509 22.0457 12.8928C22.1842 12.8346 22.3331 12.8047 22.4835 12.8047C22.6338 12.8047 22.7827 12.8346 22.9212 12.8928C23.0597 12.9509 23.1851 13.036 23.2899 13.1431C23.3947 13.2502 23.4768 13.377 23.5314 13.5162C23.5859 13.6553 23.6118 13.8039 23.6076 13.9532V32.9295C23.6066 33.2253 23.4878 33.5088 23.2771 33.718C23.0664 33.9272 22.781 34.0452 22.483 34.0461Z" fill="#F7941E"/>
<path d="M29.7906 34.0461C29.4926 34.0452 29.2071 33.9272 28.9964 33.718C28.7857 33.5088 28.6669 33.2253 28.666 32.9295V13.9532C28.6617 13.8039 28.6876 13.6553 28.7422 13.5162C28.7967 13.377 28.8789 13.2502 28.9837 13.1431C29.0885 13.036 29.2138 12.9509 29.3524 12.8928C29.4909 12.8346 29.6397 12.8047 29.7901 12.8047C29.9405 12.8047 30.0893 12.8346 30.2278 12.8928C30.3664 12.9509 30.4917 13.036 30.5965 13.1431C30.7013 13.2502 30.7834 13.377 30.838 13.5162C30.8926 13.6553 30.9185 13.8039 30.9142 13.9532V32.9295C30.9135 33.2253 30.7949 33.5087 30.5844 33.718C30.3738 33.9272 30.0884 34.0452 29.7906 34.0461Z" fill="#F7941E"/>
<path d="M37.0982 34.0461C36.8002 34.0452 36.5147 33.9272 36.304 33.718C36.0934 33.5088 35.9746 33.2253 35.9736 32.9295V13.9532C35.9693 13.8039 35.9952 13.6553 36.0498 13.5162C36.1044 13.377 36.1865 13.2502 36.2913 13.1431C36.3961 13.036 36.5215 12.9509 36.66 12.8928C36.7985 12.8346 36.9473 12.8047 37.0977 12.8047C37.2481 12.8047 37.3969 12.8346 37.5355 12.8928C37.674 12.9509 37.7993 13.036 37.9041 13.1431C38.0089 13.2502 38.0911 13.377 38.1456 13.5162C38.2002 13.6553 38.2261 13.8039 38.2218 13.9532V32.9295C38.2211 33.2253 38.1025 33.5087 37.892 33.718C37.6814 33.9272 37.396 34.0452 37.0982 34.0461Z" fill="#F7941E"/>
<path d="M43.8425 15.0695H1.1245C0.876846 15.0723 0.635684 14.9908 0.441186 14.8386C0.246689 14.6863 0.110595 14.4725 0.0555729 14.2327C-0.0566102 13.7309 0.112121 13.2283 0.561765 13.0046L21.9212 0.167774C22.2578 -0.0559245 22.7083 -0.0559245 23.1014 0.167774L44.4609 13.0046C44.6657 13.1292 44.8251 13.3156 44.9157 13.5366C45.0062 13.7575 45.0233 14.0014 44.9644 14.2327C44.8899 14.472 44.7411 14.6819 44.5393 14.8322C44.3375 14.9825 44.093 15.0656 43.8407 15.0695H43.8425ZM5.1713 12.8371H39.8514L22.4831 2.40023L5.1713 12.8371Z" fill="#FFC30D"/>
</g>
<defs>
<clipPath id="clip0_1_26244">
<rect width="45" height="48" fill="white"/>
</clipPath>
</defs>
</svg>
