<svg width="34" height="35" viewBox="0 0 34 35" fill="none" xmlns="http://www.w3.org/2000/svg">
<path d="M33.4138 34.161H0V11.8626L6.4863 11.8606L6.48666 12.9449L1.08432 12.9467V33.0765H19.3162L18.7738 33.075L18.8431 5.28809H33.4138V34.161ZM19.8585 33.0765H32.3293V6.37259H19.9249L19.8585 33.0765Z" fill="#F7941E"/>
<path d="M29.9569 5.89855C29.6576 5.89855 29.4146 5.65573 29.4146 5.35621V3.93313H22.6372V4.47529C22.6372 4.77481 22.3944 5.01763 22.0949 5.01763C21.7956 5.01763 21.5527 4.77481 21.5527 4.47529V2.84863H30.4991V5.35639C30.4993 5.65573 30.2563 5.89855 29.9569 5.89855Z" fill="#F7941E"/>
<path d="M6.43882 19.4532H2.43994V14.4375H6.43882V19.4532ZM3.52444 18.3685H5.35432V15.522H3.52444V18.3685Z" fill="#F7941E"/>
<path d="M11.8607 19.4532H7.86182V14.4375H11.8607V19.4532ZM8.9465 18.3685H10.7764V15.522H8.9465V18.3685Z" fill="#F7941E"/>
<path d="M17.2491 19.4532H13.2502V14.4375H17.2491V19.4532ZM14.3346 18.3685H16.1644V15.522H14.3346V18.3685Z" fill="#F7941E"/>
<path d="M6.45567 25.621H2.45679V20.6055H6.45567V25.621ZM3.54129 24.5365H5.37117V21.69H3.54129V24.5365Z" fill="#F7941E"/>
<path d="M11.8778 25.621H7.87891V20.6055H11.8778V25.621ZM8.96323 24.5365H10.7933V21.69H8.96323V24.5365Z" fill="#F7941E"/>
<path d="M17.2659 25.621H13.2673V20.6055H17.266V25.621H17.2659ZM14.3517 24.5365H16.1817V21.69H14.3517V24.5365Z" fill="#F7941E"/>
<path d="M6.47258 31.7888H2.47388V26.7734H6.47258V31.7888ZM3.5582 30.7045H5.38808V27.8578H3.5582V30.7045Z" fill="#F7941E"/>
<path d="M11.8949 31.7888H7.896V26.7734H11.8949V31.7888ZM8.9805 30.7045H10.8104V27.8578H8.9805V30.7045Z" fill="#F7941E"/>
<path d="M17.2828 31.7888H13.2839V26.7734H17.2828V31.7888ZM14.3684 30.7045H16.1985V27.8578H14.3684V30.7045Z" fill="#F7941E"/>
<path d="M25.145 12.0654H21.3494V7.86328H25.145V12.0654ZM22.4339 10.9809H24.0603V8.9476H22.4339V10.9809Z" fill="#F7941E"/>
<path d="M30.7706 12.0654H26.9751V7.86328H30.7706V12.0654ZM28.0594 10.9809H29.6861V8.9476H28.0594V10.9809Z" fill="#F7941E"/>
<path d="M25.0772 17.4882H21.2817V13.2861H25.0772V17.4882ZM22.3662 16.4037H23.9927V14.3705H22.3662V16.4037Z" fill="#F7941E"/>
<path d="M30.7027 17.4882H26.9072V13.2861H30.7027V17.4882ZM27.9915 16.4037H29.618V14.3705H27.9915V16.4037Z" fill="#F7941E"/>
<path d="M25.111 23.2493H21.3157V19.0469H25.111V23.2493ZM22.4002 22.1647H24.0268V20.1314H22.4002V22.1647Z" fill="#F7941E"/>
<path d="M30.7366 23.2493H26.9412V19.0469H30.7366V23.2493ZM28.0255 22.1647H29.6523V20.1314H28.0255V22.1647Z" fill="#F7941E"/>
<path d="M23.1796 33.8903C22.8801 33.8903 22.6375 33.6473 22.6375 33.348V28.6037C22.6936 27.4146 23.4728 25.2148 26.0261 25.2148C28.5782 25.2148 29.3585 27.2805 29.4141 28.3726L29.4148 28.4003V31.9924C29.4148 32.2917 29.1722 32.5347 28.8728 32.5347C28.5731 32.5347 28.3305 32.2917 28.3305 31.9924V28.4172C28.3119 28.1555 28.1087 26.2992 26.026 26.2992C23.857 26.2992 23.7256 28.5342 23.7209 28.6293L23.7214 33.348C23.7218 33.6473 23.4791 33.8903 23.1796 33.8903Z" fill="#F7941E"/>
<path d="M7.57821 14.6699L7.17087 14.1707C6.66669 13.5531 2.24247 8.05973 2.10189 5.38439C2.03151 4.04915 2.54127 2.70329 3.50085 1.69205C4.55169 0.584328 6.04695 -0.0345122 7.60377 0.0014878C10.7241 0.0756478 12.8708 2.22233 12.9451 5.34281C13.0169 8.36429 8.20533 13.947 8.00031 14.183L7.57821 14.6699ZM7.46859 1.08455C6.26349 1.08455 5.10411 1.57811 4.28781 2.43851C3.52083 3.24671 3.12915 4.27253 3.18477 5.32751C3.27873 7.11455 6.10509 11.0637 7.60233 12.9734C9.10893 11.1435 11.9078 7.32785 11.861 5.36891C11.8005 2.82767 10.1193 1.14647 7.57785 1.08599L7.46859 1.08455Z" fill="#F7941E"/>
<path d="M15.7242 13.0825H8.87877C8.57943 13.0825 8.33643 12.8397 8.33643 12.5402C8.33643 12.2409 8.57943 11.998 8.87877 11.998H15.7242C16.0235 11.998 16.2665 12.2409 16.2665 12.5402C16.2665 12.8397 16.0235 13.0825 15.7242 13.0825Z" fill="#F7941E"/>
<path d="M7.62478 7.86363C6.23284 7.86363 5.1001 6.73089 5.1001 5.33895C5.1001 3.94701 6.23284 2.81445 7.62478 2.81445C9.01672 2.81445 10.1493 3.94701 10.1493 5.33895C10.1493 6.73089 9.01672 7.86363 7.62478 7.86363ZM7.62478 3.89877C6.83062 3.89877 6.18442 4.54479 6.18442 5.33895C6.18442 6.13311 6.83062 6.77931 7.62478 6.77931C8.41894 6.77931 9.06514 6.13311 9.06514 5.33895C9.06514 4.54479 8.41894 3.89877 7.62478 3.89877Z" fill="#F7941E"/>
</svg>
