<svg width="15" height="13" viewBox="0 0 15 13" fill="none" xmlns="http://www.w3.org/2000/svg">
<g clip-path="url(#clip0_1_26994)">
<path d="M14.0625 12.2222V7.4873C14.0625 7.43708 14.0378 7.3889 13.9939 7.35338C13.9499 7.31787 13.8903 7.29791 13.8281 7.29791H13.5938V6.91912H14.0625V6.54033H7.03125V1.4267C7.03125 1.37647 7.00655 1.3283 6.9626 1.29278C6.91866 1.25726 6.85903 1.2373 6.79688 1.2373H1.17188C1.10971 1.2373 1.0501 1.25726 1.00615 1.29278C0.962194 1.3283 0.9375 1.37647 0.9375 1.4267V12.2222H0.46875V12.6009H14.5312V12.2222H14.0625ZM3.75 12.2222H2.8125V11.4646H3.75V12.2222ZM5.15625 12.2222H4.21875V11.4646H5.15625V12.2222ZM6.5625 12.2222H5.625V11.2752C5.625 11.225 5.6003 11.1768 5.55635 11.1413C5.51241 11.1058 5.45278 11.0858 5.39062 11.0858H2.57812C2.51597 11.0858 2.45634 11.1058 2.4124 11.1413C2.36845 11.1768 2.34375 11.225 2.34375 11.2752V12.2222H1.40625V1.61609H6.5625V12.2222ZM12.6562 6.91912H13.125V7.29791H12.6562V6.91912ZM11.7188 6.91912H12.1875V7.29791H11.7188V6.91912ZM10.7812 6.91912H11.25V7.29791H10.7812V6.91912ZM9.84375 6.91912H10.3125V7.29791H9.84375V6.91912ZM8.90625 6.91912H9.375V7.29791H8.90625V6.91912ZM7.96875 6.91912H8.4375V7.29791H7.96875V6.91912ZM7.03125 6.91912H7.5V7.29791H7.03125V6.91912ZM7.03125 8.81306H7.96875V9.19185H7.03125V8.81306ZM7.03125 10.707H7.96875V11.0858H7.03125V10.707ZM13.5938 12.2222H7.03125V11.4646H13.5938V12.2222ZM8.4375 11.0858V10.707H9.375V11.0858H8.4375ZM9.84375 11.0858V10.707H10.7812V11.0858H9.84375ZM11.25 11.0858V10.707H12.1875V11.0858H11.25ZM13.5938 11.0858H12.6562V10.707H13.5938V11.0858ZM13.5938 10.3282H7.03125V9.57064H13.5938V10.3282ZM8.4375 9.19185V8.81306H9.375V9.19185H8.4375ZM9.84375 9.19185V8.81306H10.7812V9.19185H9.84375ZM11.25 9.19185V8.81306H12.1875V9.19185H11.25ZM13.5938 9.19185H12.6562V8.81306H13.5938V9.19185ZM13.5938 8.43427H7.03125V7.6767H13.5938V8.43427Z" fill="#F7941E"/>
<path d="M2.34375 2.75195H1.875V3.13074H2.34375V2.75195Z" fill="#F7941E"/>
<path d="M3.28125 2.75195H2.8125V3.13074H3.28125V2.75195Z" fill="#F7941E"/>
<path d="M4.21875 2.75195H3.75V3.13074H4.21875V2.75195Z" fill="#F7941E"/>
<path d="M2.34375 1.99512H1.875V2.37391H2.34375V1.99512Z" fill="#F7941E"/>
<path d="M3.28125 1.99512H2.8125V2.37391H3.28125V1.99512Z" fill="#F7941E"/>
<path d="M4.21875 1.99512H3.75V2.37391H4.21875V1.99512Z" fill="#F7941E"/>
<path d="M5.15625 2.75195H4.6875V3.13074H5.15625V2.75195Z" fill="#F7941E"/>
<path d="M5.15625 1.99512H4.6875V2.37391H5.15625V1.99512Z" fill="#F7941E"/>
<path d="M6.09375 2.75195H5.625V3.13074H6.09375V2.75195Z" fill="#F7941E"/>
<path d="M6.09375 1.99512H5.625V2.37391H6.09375V1.99512Z" fill="#F7941E"/>
<path d="M2.34375 4.26758H1.875V4.64637H2.34375V4.26758Z" fill="#F7941E"/>
<path d="M3.28125 4.26758H2.8125V4.64637H3.28125V4.26758Z" fill="#F7941E"/>
<path d="M4.21875 4.26758H3.75V4.64637H4.21875V4.26758Z" fill="#F7941E"/>
<path d="M2.34375 3.50977H1.875V3.88855H2.34375V3.50977Z" fill="#F7941E"/>
<path d="M3.28125 3.50977H2.8125V3.88855H3.28125V3.50977Z" fill="#F7941E"/>
<path d="M4.21875 3.50977H3.75V3.88855H4.21875V3.50977Z" fill="#F7941E"/>
<path d="M5.15625 4.26758H4.6875V4.64637H5.15625V4.26758Z" fill="#F7941E"/>
<path d="M5.15625 3.50977H4.6875V3.88855H5.15625V3.50977Z" fill="#F7941E"/>
<path d="M6.09375 4.26758H5.625V4.64637H6.09375V4.26758Z" fill="#F7941E"/>
<path d="M6.09375 3.50977H5.625V3.88855H6.09375V3.50977Z" fill="#F7941E"/>
<path d="M2.34375 5.78223H1.875V6.16101H2.34375V5.78223Z" fill="#F7941E"/>
<path d="M3.28125 5.78223H2.8125V6.16101H3.28125V5.78223Z" fill="#F7941E"/>
<path d="M4.21875 5.78223H3.75V6.16101H4.21875V5.78223Z" fill="#F7941E"/>
<path d="M2.34375 5.02539H1.875V5.40418H2.34375V5.02539Z" fill="#F7941E"/>
<path d="M3.28125 5.02539H2.8125V5.40418H3.28125V5.02539Z" fill="#F7941E"/>
<path d="M4.21875 5.02539H3.75V5.40418H4.21875V5.02539Z" fill="#F7941E"/>
<path d="M5.15625 5.78223H4.6875V6.16101H5.15625V5.78223Z" fill="#F7941E"/>
<path d="M5.15625 5.02539H4.6875V5.40418H5.15625V5.02539Z" fill="#F7941E"/>
<path d="M6.09375 5.78223H5.625V6.16101H6.09375V5.78223Z" fill="#F7941E"/>
<path d="M6.09375 5.02539H5.625V5.40418H6.09375V5.02539Z" fill="#F7941E"/>
<path d="M2.34375 7.29785H1.875V7.67664H2.34375V7.29785Z" fill="#F7941E"/>
<path d="M3.28125 7.29785H2.8125V7.67664H3.28125V7.29785Z" fill="#F7941E"/>
<path d="M4.21875 7.29785H3.75V7.67664H4.21875V7.29785Z" fill="#F7941E"/>
<path d="M2.34375 6.54004H1.875V6.91883H2.34375V6.54004Z" fill="#F7941E"/>
<path d="M3.28125 6.54004H2.8125V6.91883H3.28125V6.54004Z" fill="#F7941E"/>
<path d="M4.21875 6.54004H3.75V6.91883H4.21875V6.54004Z" fill="#F7941E"/>
<path d="M5.15625 7.29785H4.6875V7.67664H5.15625V7.29785Z" fill="#F7941E"/>
<path d="M5.15625 6.54004H4.6875V6.91883H5.15625V6.54004Z" fill="#F7941E"/>
<path d="M6.09375 7.29785H5.625V7.67664H6.09375V7.29785Z" fill="#F7941E"/>
<path d="M6.09375 6.54004H5.625V6.91883H6.09375V6.54004Z" fill="#F7941E"/>
<path d="M2.34375 8.8125H1.875V9.19129H2.34375V8.8125Z" fill="#F7941E"/>
<path d="M3.28125 8.8125H2.8125V9.19129H3.28125V8.8125Z" fill="#F7941E"/>
<path d="M4.21875 8.8125H3.75V9.19129H4.21875V8.8125Z" fill="#F7941E"/>
<path d="M2.34375 8.05566H1.875V8.43445H2.34375V8.05566Z" fill="#F7941E"/>
<path d="M3.28125 8.05566H2.8125V8.43445H3.28125V8.05566Z" fill="#F7941E"/>
<path d="M4.21875 8.05566H3.75V8.43445H4.21875V8.05566Z" fill="#F7941E"/>
<path d="M5.15625 8.8125H4.6875V9.19129H5.15625V8.8125Z" fill="#F7941E"/>
<path d="M5.15625 8.05566H4.6875V8.43445H5.15625V8.05566Z" fill="#F7941E"/>
<path d="M6.09375 8.8125H5.625V9.19129H6.09375V8.8125Z" fill="#F7941E"/>
<path d="M6.09375 8.05566H5.625V8.43445H6.09375V8.05566Z" fill="#F7941E"/>
<path d="M2.34375 10.3281H1.875V10.7069H2.34375V10.3281Z" fill="#F7941E"/>
<path d="M3.28125 10.3281H2.8125V10.7069H3.28125V10.3281Z" fill="#F7941E"/>
<path d="M4.21875 10.3281H3.75V10.7069H4.21875V10.3281Z" fill="#F7941E"/>
<path d="M2.34375 9.57031H1.875V9.9491H2.34375V9.57031Z" fill="#F7941E"/>
<path d="M3.28125 9.57031H2.8125V9.9491H3.28125V9.57031Z" fill="#F7941E"/>
<path d="M4.21875 9.57031H3.75V9.9491H4.21875V9.57031Z" fill="#F7941E"/>
<path d="M5.15625 10.3281H4.6875V10.7069H5.15625V10.3281Z" fill="#F7941E"/>
<path d="M5.15625 9.57031H4.6875V9.9491H5.15625V9.57031Z" fill="#F7941E"/>
<path d="M6.09375 10.3281H5.625V10.7069H6.09375V10.3281Z" fill="#F7941E"/>
<path d="M6.09375 9.57031H5.625V9.9491H6.09375V9.57031Z" fill="#F7941E"/>
</g>
<defs>
<clipPath id="clip0_1_26994">
<rect width="15" height="12.1212" fill="white" transform="translate(0 0.858398)"/>
</clipPath>
</defs>
</svg>
