<svg width="15" height="13" viewBox="0 0 15 13" fill="none" xmlns="http://www.w3.org/2000/svg">
<g clip-path="url(#clip0_1_26909)">
<path d="M14.0625 11.3638V6.62891C14.0625 6.57868 14.0378 6.5305 13.9939 6.49499C13.9499 6.45947 13.8903 6.43951 13.8281 6.43951H13.5938V6.06072H14.0625V5.68194H7.03125V0.5683C7.03125 0.518069 7.00655 0.469897 6.9626 0.434378C6.91866 0.398861 6.85903 0.378906 6.79688 0.378906H1.17188C1.10971 0.378906 1.0501 0.398861 1.00615 0.434378C0.962194 0.469897 0.9375 0.518069 0.9375 0.5683V11.3638H0.46875V11.7425H14.5312V11.3638H14.0625ZM3.75 11.3638H2.8125V10.6062H3.75V11.3638ZM5.15625 11.3638H4.21875V10.6062H5.15625V11.3638ZM6.5625 11.3638H5.625V10.4168C5.625 10.3666 5.6003 10.3184 5.55635 10.2829C5.51241 10.2474 5.45278 10.2274 5.39062 10.2274H2.57812C2.51597 10.2274 2.45634 10.2474 2.4124 10.2829C2.36845 10.3184 2.34375 10.3666 2.34375 10.4168V11.3638H1.40625V0.757694H6.5625V11.3638ZM12.6562 6.06072H13.125V6.43951H12.6562V6.06072ZM11.7188 6.06072H12.1875V6.43951H11.7188V6.06072ZM10.7812 6.06072H11.25V6.43951H10.7812V6.06072ZM9.84375 6.06072H10.3125V6.43951H9.84375V6.06072ZM8.90625 6.06072H9.375V6.43951H8.90625V6.06072ZM7.96875 6.06072H8.4375V6.43951H7.96875V6.06072ZM7.03125 6.06072H7.5V6.43951H7.03125V6.06072ZM7.03125 7.95466H7.96875V8.33345H7.03125V7.95466ZM7.03125 9.8486H7.96875V10.2274H7.03125V9.8486ZM13.5938 11.3638H7.03125V10.6062H13.5938V11.3638ZM8.4375 10.2274V9.8486H9.375V10.2274H8.4375ZM9.84375 10.2274V9.8486H10.7812V10.2274H9.84375ZM11.25 10.2274V9.8486H12.1875V10.2274H11.25ZM13.5938 10.2274H12.6562V9.8486H13.5938V10.2274ZM13.5938 9.46982H7.03125V8.71224H13.5938V9.46982ZM8.4375 8.33345V7.95466H9.375V8.33345H8.4375ZM9.84375 8.33345V7.95466H10.7812V8.33345H9.84375ZM11.25 8.33345V7.95466H12.1875V8.33345H11.25ZM13.5938 8.33345H12.6562V7.95466H13.5938V8.33345ZM13.5938 7.57588H7.03125V6.8183H13.5938V7.57588Z" fill="white"/>
<path d="M2.34375 1.89355H1.875V2.27234H2.34375V1.89355Z" fill="white"/>
<path d="M3.28125 1.89355H2.8125V2.27234H3.28125V1.89355Z" fill="white"/>
<path d="M4.21875 1.89355H3.75V2.27234H4.21875V1.89355Z" fill="white"/>
<path d="M2.34375 1.13672H1.875V1.51551H2.34375V1.13672Z" fill="white"/>
<path d="M3.28125 1.13672H2.8125V1.51551H3.28125V1.13672Z" fill="white"/>
<path d="M4.21875 1.13672H3.75V1.51551H4.21875V1.13672Z" fill="white"/>
<path d="M5.15625 1.89355H4.6875V2.27234H5.15625V1.89355Z" fill="white"/>
<path d="M5.15625 1.13672H4.6875V1.51551H5.15625V1.13672Z" fill="white"/>
<path d="M6.09375 1.89355H5.625V2.27234H6.09375V1.89355Z" fill="white"/>
<path d="M6.09375 1.13672H5.625V1.51551H6.09375V1.13672Z" fill="white"/>
<path d="M2.34375 3.40918H1.875V3.78797H2.34375V3.40918Z" fill="white"/>
<path d="M3.28125 3.40918H2.8125V3.78797H3.28125V3.40918Z" fill="white"/>
<path d="M4.21875 3.40918H3.75V3.78797H4.21875V3.40918Z" fill="white"/>
<path d="M2.34375 2.65137H1.875V3.03016H2.34375V2.65137Z" fill="white"/>
<path d="M3.28125 2.65137H2.8125V3.03016H3.28125V2.65137Z" fill="white"/>
<path d="M4.21875 2.65137H3.75V3.03016H4.21875V2.65137Z" fill="white"/>
<path d="M5.15625 3.40918H4.6875V3.78797H5.15625V3.40918Z" fill="white"/>
<path d="M5.15625 2.65137H4.6875V3.03016H5.15625V2.65137Z" fill="white"/>
<path d="M6.09375 3.40918H5.625V3.78797H6.09375V3.40918Z" fill="white"/>
<path d="M6.09375 2.65137H5.625V3.03016H6.09375V2.65137Z" fill="white"/>
<path d="M2.34375 4.92383H1.875V5.30262H2.34375V4.92383Z" fill="white"/>
<path d="M3.28125 4.92383H2.8125V5.30262H3.28125V4.92383Z" fill="white"/>
<path d="M4.21875 4.92383H3.75V5.30262H4.21875V4.92383Z" fill="white"/>
<path d="M2.34375 4.16699H1.875V4.54578H2.34375V4.16699Z" fill="white"/>
<path d="M3.28125 4.16699H2.8125V4.54578H3.28125V4.16699Z" fill="white"/>
<path d="M4.21875 4.16699H3.75V4.54578H4.21875V4.16699Z" fill="white"/>
<path d="M5.15625 4.92383H4.6875V5.30262H5.15625V4.92383Z" fill="white"/>
<path d="M5.15625 4.16699H4.6875V4.54578H5.15625V4.16699Z" fill="white"/>
<path d="M6.09375 4.92383H5.625V5.30262H6.09375V4.92383Z" fill="white"/>
<path d="M6.09375 4.16699H5.625V4.54578H6.09375V4.16699Z" fill="white"/>
<path d="M2.34375 6.43945H1.875V6.81824H2.34375V6.43945Z" fill="white"/>
<path d="M3.28125 6.43945H2.8125V6.81824H3.28125V6.43945Z" fill="white"/>
<path d="M4.21875 6.43945H3.75V6.81824H4.21875V6.43945Z" fill="white"/>
<path d="M2.34375 5.68164H1.875V6.06043H2.34375V5.68164Z" fill="white"/>
<path d="M3.28125 5.68164H2.8125V6.06043H3.28125V5.68164Z" fill="white"/>
<path d="M4.21875 5.68164H3.75V6.06043H4.21875V5.68164Z" fill="white"/>
<path d="M5.15625 6.43945H4.6875V6.81824H5.15625V6.43945Z" fill="white"/>
<path d="M5.15625 5.68164H4.6875V6.06043H5.15625V5.68164Z" fill="white"/>
<path d="M6.09375 6.43945H5.625V6.81824H6.09375V6.43945Z" fill="white"/>
<path d="M6.09375 5.68164H5.625V6.06043H6.09375V5.68164Z" fill="white"/>
<path d="M2.34375 7.9541H1.875V8.33289H2.34375V7.9541Z" fill="white"/>
<path d="M3.28125 7.9541H2.8125V8.33289H3.28125V7.9541Z" fill="white"/>
<path d="M4.21875 7.9541H3.75V8.33289H4.21875V7.9541Z" fill="white"/>
<path d="M2.34375 7.19727H1.875V7.57605H2.34375V7.19727Z" fill="white"/>
<path d="M3.28125 7.19727H2.8125V7.57605H3.28125V7.19727Z" fill="white"/>
<path d="M4.21875 7.19727H3.75V7.57605H4.21875V7.19727Z" fill="white"/>
<path d="M5.15625 7.9541H4.6875V8.33289H5.15625V7.9541Z" fill="white"/>
<path d="M5.15625 7.19727H4.6875V7.57605H5.15625V7.19727Z" fill="white"/>
<path d="M6.09375 7.9541H5.625V8.33289H6.09375V7.9541Z" fill="white"/>
<path d="M6.09375 7.19727H5.625V7.57605H6.09375V7.19727Z" fill="white"/>
<path d="M2.34375 9.46973H1.875V9.84851H2.34375V9.46973Z" fill="white"/>
<path d="M3.28125 9.46973H2.8125V9.84851H3.28125V9.46973Z" fill="white"/>
<path d="M4.21875 9.46973H3.75V9.84851H4.21875V9.46973Z" fill="white"/>
<path d="M2.34375 8.71191H1.875V9.0907H2.34375V8.71191Z" fill="white"/>
<path d="M3.28125 8.71191H2.8125V9.0907H3.28125V8.71191Z" fill="white"/>
<path d="M4.21875 8.71191H3.75V9.0907H4.21875V8.71191Z" fill="white"/>
<path d="M5.15625 9.46973H4.6875V9.84851H5.15625V9.46973Z" fill="white"/>
<path d="M5.15625 8.71191H4.6875V9.0907H5.15625V8.71191Z" fill="white"/>
<path d="M6.09375 9.46973H5.625V9.84851H6.09375V9.46973Z" fill="white"/>
<path d="M6.09375 8.71191H5.625V9.0907H6.09375V8.71191Z" fill="white"/>
<path d="M12.24 2.584H10.608V4.304H10.028V2.584H8.404V2.044H10.028V0.336H10.608V2.044H12.24V2.584Z" fill="white"/>
</g>
<defs>
<clipPath id="clip0_1_26909">
<rect width="15" height="12.1212" fill="white"/>
</clipPath>
</defs>
</svg>
