<svg width="70" height="70" viewBox="0 0 70 70" fill="none" xmlns="http://www.w3.org/2000/svg">
<circle cx="35" cy="35" r="35" fill="#F5EBDC"/>
<path d="M57.9375 50.625V35.7812C57.9375 35.6238 57.8568 35.4727 57.7132 35.3614C57.5697 35.2501 57.3749 35.1875 57.1719 35.1875H56.4062V34H57.9375V32.8125H34.9688V16.7812C34.9688 16.6238 34.8881 16.4728 34.7445 16.3614C34.6009 16.2501 34.4062 16.1875 34.2031 16.1875H15.8281C15.6251 16.1875 15.4303 16.2501 15.2867 16.3614C15.1432 16.4728 15.0625 16.6238 15.0625 16.7812V50.625H13.5312V51.8125H59.4688V50.625H57.9375ZM24.25 50.625H21.1875V48.25H24.25V50.625ZM28.8438 50.625H25.7812V48.25H28.8438V50.625ZM33.4375 50.625H30.375V47.6562C30.375 47.4988 30.2943 47.3477 30.1507 47.2364C30.0072 47.1251 29.8124 47.0625 29.6094 47.0625H20.4219C20.2188 47.0625 20.0241 47.1251 19.8805 47.2364C19.7369 47.3477 19.6562 47.4988 19.6562 47.6562V50.625H16.5938V17.375H33.4375V50.625ZM53.3438 34H54.875V35.1875H53.3438V34ZM50.2812 34H51.8125V35.1875H50.2812V34ZM47.2188 34H48.75V35.1875H47.2188V34ZM44.1562 34H45.6875V35.1875H44.1562V34ZM41.0938 34H42.625V35.1875H41.0938V34ZM38.0312 34H39.5625V35.1875H38.0312V34ZM34.9688 34H36.5V35.1875H34.9688V34ZM34.9688 39.9375H38.0312V41.125H34.9688V39.9375ZM34.9688 45.875H38.0312V47.0625H34.9688V45.875ZM56.4062 50.625H34.9688V48.25H56.4062V50.625ZM39.5625 47.0625V45.875H42.625V47.0625H39.5625ZM44.1562 47.0625V45.875H47.2188V47.0625H44.1562ZM48.75 47.0625V45.875H51.8125V47.0625H48.75ZM56.4062 47.0625H53.3438V45.875H56.4062V47.0625ZM56.4062 44.6875H34.9688V42.3125H56.4062V44.6875ZM39.5625 41.125V39.9375H42.625V41.125H39.5625ZM44.1562 41.125V39.9375H47.2188V41.125H44.1562ZM48.75 41.125V39.9375H51.8125V41.125H48.75ZM56.4062 41.125H53.3438V39.9375H56.4062V41.125ZM56.4062 38.75H34.9688V36.375H56.4062V38.75Z" fill="#F7941E"/>
<path d="M19.6562 20.9375H18.125V22.125H19.6562V20.9375Z" fill="#F7941E"/>
<path d="M22.7188 20.9375H21.1875V22.125H22.7188V20.9375Z" fill="#F7941E"/>
<path d="M25.7812 20.9375H24.25V22.125H25.7812V20.9375Z" fill="#F7941E"/>
<path d="M19.6562 18.5625H18.125V19.75H19.6562V18.5625Z" fill="#F7941E"/>
<path d="M22.7188 18.5625H21.1875V19.75H22.7188V18.5625Z" fill="#F7941E"/>
<path d="M25.7812 18.5625H24.25V19.75H25.7812V18.5625Z" fill="#F7941E"/>
<path d="M28.8438 20.9375H27.3125V22.125H28.8438V20.9375Z" fill="#F7941E"/>
<path d="M28.8438 18.5625H27.3125V19.75H28.8438V18.5625Z" fill="#F7941E"/>
<path d="M31.9062 20.9375H30.375V22.125H31.9062V20.9375Z" fill="#F7941E"/>
<path d="M31.9062 18.5625H30.375V19.75H31.9062V18.5625Z" fill="#F7941E"/>
<path d="M19.6562 25.6875H18.125V26.875H19.6562V25.6875Z" fill="#F7941E"/>
<path d="M22.7188 25.6875H21.1875V26.875H22.7188V25.6875Z" fill="#F7941E"/>
<path d="M25.7812 25.6875H24.25V26.875H25.7812V25.6875Z" fill="#F7941E"/>
<path d="M19.6562 23.3125H18.125V24.5H19.6562V23.3125Z" fill="#F7941E"/>
<path d="M22.7188 23.3125H21.1875V24.5H22.7188V23.3125Z" fill="#F7941E"/>
<path d="M25.7812 23.3125H24.25V24.5H25.7812V23.3125Z" fill="#F7941E"/>
<path d="M28.8438 25.6875H27.3125V26.875H28.8438V25.6875Z" fill="#F7941E"/>
<path d="M28.8438 23.3125H27.3125V24.5H28.8438V23.3125Z" fill="#F7941E"/>
<path d="M31.9062 25.6875H30.375V26.875H31.9062V25.6875Z" fill="#F7941E"/>
<path d="M31.9062 23.3125H30.375V24.5H31.9062V23.3125Z" fill="#F7941E"/>
<path d="M19.6562 30.4375H18.125V31.625H19.6562V30.4375Z" fill="#F7941E"/>
<path d="M22.7188 30.4375H21.1875V31.625H22.7188V30.4375Z" fill="#F7941E"/>
<path d="M25.7812 30.4375H24.25V31.625H25.7812V30.4375Z" fill="#F7941E"/>
<path d="M19.6562 28.0625H18.125V29.25H19.6562V28.0625Z" fill="#F7941E"/>
<path d="M22.7188 28.0625H21.1875V29.25H22.7188V28.0625Z" fill="#F7941E"/>
<path d="M25.7812 28.0625H24.25V29.25H25.7812V28.0625Z" fill="#F7941E"/>
<path d="M28.8438 30.4375H27.3125V31.625H28.8438V30.4375Z" fill="#F7941E"/>
<path d="M28.8438 28.0625H27.3125V29.25H28.8438V28.0625Z" fill="#F7941E"/>
<path d="M31.9062 30.4375H30.375V31.625H31.9062V30.4375Z" fill="#F7941E"/>
<path d="M31.9062 28.0625H30.375V29.25H31.9062V28.0625Z" fill="#F7941E"/>
<path d="M19.6562 35.1875H18.125V36.375H19.6562V35.1875Z" fill="#F7941E"/>
<path d="M22.7188 35.1875H21.1875V36.375H22.7188V35.1875Z" fill="#F7941E"/>
<path d="M25.7812 35.1875H24.25V36.375H25.7812V35.1875Z" fill="#F7941E"/>
<path d="M19.6562 32.8125H18.125V34H19.6562V32.8125Z" fill="#F7941E"/>
<path d="M22.7188 32.8125H21.1875V34H22.7188V32.8125Z" fill="#F7941E"/>
<path d="M25.7812 32.8125H24.25V34H25.7812V32.8125Z" fill="#F7941E"/>
<path d="M28.8438 35.1875H27.3125V36.375H28.8438V35.1875Z" fill="#F7941E"/>
<path d="M28.8438 32.8125H27.3125V34H28.8438V32.8125Z" fill="#F7941E"/>
<path d="M31.9062 35.1875H30.375V36.375H31.9062V35.1875Z" fill="#F7941E"/>
<path d="M31.9062 32.8125H30.375V34H31.9062V32.8125Z" fill="#F7941E"/>
<path d="M19.6562 39.9375H18.125V41.125H19.6562V39.9375Z" fill="#F7941E"/>
<path d="M22.7188 39.9375H21.1875V41.125H22.7188V39.9375Z" fill="#F7941E"/>
<path d="M25.7812 39.9375H24.25V41.125H25.7812V39.9375Z" fill="#F7941E"/>
<path d="M19.6562 37.5625H18.125V38.75H19.6562V37.5625Z" fill="#F7941E"/>
<path d="M22.7188 37.5625H21.1875V38.75H22.7188V37.5625Z" fill="#F7941E"/>
<path d="M25.7812 37.5625H24.25V38.75H25.7812V37.5625Z" fill="#F7941E"/>
<path d="M28.8438 39.9375H27.3125V41.125H28.8438V39.9375Z" fill="#F7941E"/>
<path d="M28.8438 37.5625H27.3125V38.75H28.8438V37.5625Z" fill="#F7941E"/>
<path d="M31.9062 39.9375H30.375V41.125H31.9062V39.9375Z" fill="#F7941E"/>
<path d="M31.9062 37.5625H30.375V38.75H31.9062V37.5625Z" fill="#F7941E"/>
<path d="M19.6562 44.6875H18.125V45.875H19.6562V44.6875Z" fill="#F7941E"/>
<path d="M22.7188 44.6875H21.1875V45.875H22.7188V44.6875Z" fill="#F7941E"/>
<path d="M25.7812 44.6875H24.25V45.875H25.7812V44.6875Z" fill="#F7941E"/>
<path d="M19.6562 42.3125H18.125V43.5H19.6562V42.3125Z" fill="#F7941E"/>
<path d="M22.7188 42.3125H21.1875V43.5H22.7188V42.3125Z" fill="#F7941E"/>
<path d="M25.7812 42.3125H24.25V43.5H25.7812V42.3125Z" fill="#F7941E"/>
<path d="M28.8438 44.6875H27.3125V45.875H28.8438V44.6875Z" fill="#F7941E"/>
<path d="M28.8438 42.3125H27.3125V43.5H28.8438V42.3125Z" fill="#F7941E"/>
<path d="M31.9062 44.6875H30.375V45.875H31.9062V44.6875Z" fill="#F7941E"/>
<path d="M31.9062 42.3125H30.375V43.5H31.9062V42.3125Z" fill="#F7941E"/>
</svg>
