<svg width="11" height="10" viewBox="0 0 11 10" fill="none" xmlns="http://www.w3.org/2000/svg">
<g clip-path="url(#clip0_1_30545)">
<path d="M0 8.42011V8.242C0.0327553 8.1814 0.0729071 8.12539 0.119473 8.07538C0.45239 7.76689 0.733993 7.40392 0.953016 7.00098C1.59469 5.83416 1.93621 4.5167 1.94494 3.17449C1.95883 2.46205 1.94494 1.75249 1.94494 1.04292C1.93905 0.991786 1.94452 0.939934 1.96091 0.891307C1.9773 0.842681 2.0042 0.79856 2.03956 0.762285C2.07491 0.72601 2.11778 0.698534 2.16494 0.681954C2.21209 0.665374 2.26228 0.660124 2.3117 0.666594H3.88987V0.379321C3.88563 0.332085 3.89094 0.284451 3.90547 0.239453C3.92 0.194456 3.94344 0.153079 3.97427 0.117953C4.00511 0.0828265 4.04268 0.0547189 4.0846 0.0354214C4.12651 0.0161238 4.17185 0.00605488 4.21773 0.00585938C4.26241 0.00683857 4.30642 0.0173373 4.347 0.0366926C4.38759 0.0560478 4.42388 0.0838486 4.45361 0.118356C4.48333 0.152864 4.50585 0.193332 4.51977 0.237244C4.53368 0.281157 4.53869 0.327566 4.53448 0.373569C4.53448 0.471242 4.53448 0.571788 4.53448 0.660843H6.146V0.373569C6.146 0.285189 6.17995 0.200436 6.24039 0.137941C6.30084 0.0754473 6.38282 0.0403308 6.4683 0.0403308C6.55378 0.0403308 6.63576 0.0754473 6.69621 0.137941C6.75665 0.200436 6.7906 0.285189 6.7906 0.373569V0.660843H8.42435C8.42435 0.551679 8.42435 0.451137 8.42435 0.350591C8.42435 0.262211 8.45831 0.177449 8.51875 0.114955C8.5792 0.0524605 8.66118 0.0173528 8.74666 0.0173528C8.83214 0.0173528 8.91411 0.0524605 8.97455 0.114955C9.035 0.177449 9.06896 0.262211 9.06896 0.350591V0.669461H9.19399C9.65244 0.669461 10.1109 0.669461 10.5693 0.669461C10.658 0.657101 10.7482 0.674771 10.8263 0.719827C10.9044 0.764883 10.9664 0.834907 11.0028 0.919397V9.76168C10.964 9.84617 10.8996 9.91522 10.8193 9.95828C10.739 10.0013 10.6473 10.016 10.5582 10.0001C7.84457 10.0001 5.12907 10.0001 2.41172 10.0001C2.04496 10.0001 1.90326 9.87946 1.92271 9.48877C1.9366 9.21873 1.92271 8.94582 1.92271 8.66429H1.7949C1.33367 8.66429 0.87244 8.66429 0.405656 8.66429C0.32184 8.67252 0.237638 8.65339 0.164879 8.60959C0.0921195 8.56579 0.0344613 8.49953 0 8.42011ZM1.0586 7.99782H8.53549C8.59057 7.9955 8.64252 7.97071 8.67997 7.92887C8.88589 7.68346 9.0797 7.42746 9.26067 7.16185C9.77281 6.32868 10.1081 5.39261 10.2443 4.41551C10.297 4.06217 10.3248 3.70595 10.3637 3.34111H2.58398C2.55156 5.01609 2.01874 6.63968 1.0586 7.9892V7.99782ZM10.3498 1.33881H9.06618V1.62609C9.07222 1.67352 9.06839 1.72173 9.05495 1.76752C9.04152 1.8133 9.01879 1.85559 8.98828 1.89156C8.95777 1.92753 8.92018 1.95634 8.87803 1.97609C8.83589 1.99583 8.79015 2.00604 8.74388 2.00604C8.6976 2.00604 8.65186 1.99583 8.60972 1.97609C8.56757 1.95634 8.52998 1.92753 8.49947 1.89156C8.46896 1.85559 8.44623 1.8133 8.4328 1.76752C8.41936 1.72173 8.41553 1.67352 8.42157 1.62609V1.33881H6.78782C6.78782 1.4451 6.78782 1.54278 6.78782 1.64332C6.78782 1.68708 6.77949 1.73042 6.76329 1.77085C6.7471 1.81128 6.72335 1.84802 6.69342 1.87896C6.6635 1.9099 6.62796 1.93444 6.58886 1.95119C6.54975 1.96794 6.50784 1.97656 6.46552 1.97656C6.42319 1.97656 6.38128 1.96794 6.34218 1.95119C6.30308 1.93444 6.26755 1.9099 6.23762 1.87896C6.20769 1.84802 6.18395 1.81128 6.16775 1.77085C6.15156 1.73042 6.14321 1.68708 6.14321 1.64332V1.34168H4.5317C4.5317 1.45084 4.5317 1.54852 4.5317 1.64907C4.53356 1.69354 4.52679 1.73795 4.51177 1.77967C4.49676 1.8214 4.47381 1.85959 4.44429 1.89199C4.41476 1.92439 4.37925 1.95035 4.33986 1.96833C4.30048 1.98631 4.25801 1.99595 4.21496 1.99667C4.17109 1.99752 4.12752 1.98902 4.08697 1.9717C4.04642 1.95439 4.00975 1.92861 3.97925 1.896C3.94875 1.86339 3.92508 1.82464 3.9097 1.78216C3.89433 1.73967 3.88757 1.69437 3.88987 1.64907C3.88987 1.54565 3.88987 1.44223 3.88987 1.33881H2.58954V2.66027H10.3526L10.3498 1.33881ZM10.3498 6.46378L10.2887 6.59305C9.98621 7.30623 9.56065 7.95649 9.03284 8.51204C8.98365 8.5625 8.925 8.60204 8.8605 8.62823C8.796 8.65441 8.727 8.66668 8.65774 8.66429C6.67391 8.66429 4.69007 8.66429 2.70624 8.66429H2.58398V9.32215H10.3498V6.46378Z" fill="white"/>
</g>
<defs>
<clipPath id="clip0_1_30545">
<rect width="11" height="10" fill="white"/>
</clipPath>
</defs>
</svg>
