<svg width="18" height="19" viewBox="0 0 18 19" fill="none" xmlns="http://www.w3.org/2000/svg">
<path fill-rule="evenodd" clip-rule="evenodd" d="M14.3454 12.0572L12.4606 11.8303C12.0079 11.7755 11.5627 11.9398 11.2436 12.2762L9.87822 13.7157C7.77818 12.5892 6.05659 10.782 4.98802 8.56016L6.36084 7.11285C6.67993 6.77645 6.83576 6.30705 6.78382 5.82983L6.56862 3.85836C6.47957 3.0682 5.84882 2.47363 5.09191 2.47363H3.80814C2.96961 2.47363 2.27207 3.20902 2.32402 4.09306C2.71731 10.7742 7.7856 16.1097 14.1154 16.5243C14.9539 16.5791 15.6515 15.8437 15.6515 14.9596V13.6062C15.6589 12.816 15.0949 12.1511 14.3454 12.0572ZM4.94819 4.03829C4.99272 4.73457 5.10403 5.4152 5.28212 6.06453L4.39165 7.00333C4.0874 6.06453 3.89446 5.07097 3.82768 4.03829H4.94819ZM14.1943 13.794C13.5413 13.747 12.8957 13.6297 12.2649 13.4419L11.3745 14.3729C12.2724 14.6858 13.2148 14.8892 14.1943 14.9596V13.794Z" fill="white"/>
<mask id="mask0_1_26804" style="mask-type:luminance" maskUnits="userSpaceOnUse" x="2" y="2" width="14" height="15">
<path fill-rule="evenodd" clip-rule="evenodd" d="M14.3454 12.0572L12.4606 11.8303C12.0079 11.7755 11.5627 11.9398 11.2436 12.2762L9.87822 13.7157C7.77818 12.5892 6.05659 10.782 4.98802 8.56016L6.36084 7.11285C6.67993 6.77645 6.83576 6.30705 6.78382 5.82983L6.56862 3.85836C6.47957 3.0682 5.84882 2.47363 5.09191 2.47363H3.80814C2.96961 2.47363 2.27207 3.20902 2.32402 4.09306C2.71731 10.7742 7.7856 16.1097 14.1154 16.5243C14.9539 16.5791 15.6515 15.8437 15.6515 14.9596V13.6062C15.6589 12.816 15.0949 12.1511 14.3454 12.0572ZM4.94819 4.03829C4.99272 4.73457 5.10403 5.4152 5.28212 6.06453L4.39165 7.00333C4.0874 6.06453 3.89446 5.07097 3.82768 4.03829H4.94819ZM14.1943 13.794C13.5413 13.747 12.8957 13.6297 12.2649 13.4419L11.3745 14.3729C12.2724 14.6858 13.2148 14.8892 14.1943 14.9596V13.794Z" fill="white"/>
</mask>
<g mask="url(#mask0_1_26804)">
</g>
</svg>
