<svg width="74" height="75" viewBox="0 0 74 75" fill="none" xmlns="http://www.w3.org/2000/svg">
<path d="M37.1875 74.0911C29.9067 74.0911 22.7894 71.9424 16.7356 67.9168C10.6818 63.8911 5.96345 58.1693 3.1772 51.4749C0.390951 44.7805 -0.33806 37.4141 1.08236 30.3074C2.50278 23.2006 6.00881 16.6726 11.1571 11.5489C16.3055 6.42525 22.8648 2.93594 30.0057 1.52232C37.1467 0.108699 44.5484 0.834269 51.275 3.60719C58.0016 6.38011 63.751 11.0759 67.796 17.1007C71.841 23.1255 74 30.2087 74 37.4547C73.9918 47.1688 70.1107 56.4827 63.2088 63.3516C56.3069 70.2205 46.9483 74.0829 37.1875 74.0911ZM37.1875 4.88909C30.7157 4.88909 24.3892 6.79907 19.008 10.3774C13.6269 13.9558 9.43279 19.0418 6.95612 24.9924C4.47946 30.943 3.83146 37.4908 5.09405 43.808C6.35664 50.1251 9.47313 55.9277 14.0494 60.4821C18.6257 65.0365 24.4562 68.1381 30.8037 69.3946C37.1512 70.6512 43.7305 70.0063 49.7097 67.5414C55.689 65.0766 60.7995 60.9026 64.395 55.5472C67.9906 50.1918 69.9097 43.8956 69.9097 37.4547C69.922 33.1689 69.0848 28.9228 67.4462 24.9594C65.8076 20.9959 63.3997 17.3929 60.3604 14.3566C57.321 11.3203 53.7099 8.91039 49.7336 7.26467C45.7573 5.61895 41.4939 4.76975 37.1875 4.76571V4.88909Z" fill="#FFC000"/>
<path fill-rule="evenodd" clip-rule="evenodd" d="M49.6064 43.5937L45.1614 43.05C44.0939 42.9187 43.0439 43.3125 42.2914 44.1187L39.0714 47.5687C34.1189 44.8687 30.0589 40.5375 27.5389 35.2125L30.7764 31.7437C31.5289 30.9375 31.8964 29.8125 31.7739 28.6687L31.2664 23.9437C31.0564 22.05 29.5689 20.625 27.7839 20.625H24.7564C22.7789 20.625 21.1339 22.3875 21.2564 24.5062C22.1839 40.5187 34.1364 53.3062 49.0639 54.3C51.0414 54.4312 52.6864 52.6687 52.6864 50.55V47.3062C52.7039 45.4125 51.3739 43.8187 49.6064 43.5937ZM27.445 24.375C27.55 26.0438 27.8125 27.675 28.2325 29.2313L26.1325 31.4813C25.415 29.2313 24.96 26.85 24.8025 24.375H27.445ZM49.25 47.7563C47.71 47.6437 46.1875 47.3625 44.7 46.9125L42.6 49.1437C44.7175 49.8937 46.94 50.3812 49.25 50.55V47.7563Z" fill="#ED7D31"/>
</svg>
