<svg width="78" height="78" viewBox="0 0 78 78" fill="none" xmlns="http://www.w3.org/2000/svg">
<circle cx="39" cy="39" r="38.5" fill="#FAF6F0" stroke="#AC770D"/>
<g clip-path="url(#clip0_1_2917)">
<path d="M53.6284 28.9109C51.4469 28.9109 47.8359 28.9109 47.8359 28.9109C47.8359 28.9109 48.8139 24.0265 44.3002 23.9502H39.4116H38.8475H33.9589C29.4453 24.0265 30.4233 28.9109 30.4233 28.9109C30.4233 28.9109 26.8123 28.9109 24.6308 28.9109C22.4492 28.9109 21.9966 31.3532 21.9966 31.3532C21.9966 31.3532 21.9966 45.8538 21.9966 49.6697C21.9966 53.4857 25.383 53.0278 25.383 53.0278L38.8475 53.0433V53.0444H39.1295H39.4116V53.0433L52.8761 53.0278C52.8761 53.0278 56.2624 53.4857 56.2624 49.6697C56.2624 45.8538 56.2624 31.3532 56.2624 31.3532C56.2624 31.3532 55.81 28.9109 53.6284 28.9109Z" fill="white" stroke="#AC7700" stroke-miterlimit="10"/>
<path d="M46.3889 40.855C46.3889 44.9225 43.1389 48.2198 39.1295 48.2198C35.1202 48.2198 31.8701 44.9225 31.8701 40.855C31.8701 36.7875 35.1202 33.4902 39.1295 33.4902C43.1389 33.4903 46.3889 36.7875 46.3889 40.855Z" fill="white" stroke="#AC7700" stroke-miterlimit="10"/>
</g>
<defs>
<clipPath id="clip0_1_2917">
<rect width="36" height="31" fill="white" transform="translate(21 23)"/>
</clipPath>
</defs>
</svg>
