<svg width="15" height="20" viewBox="0 0 15 20" fill="none" xmlns="http://www.w3.org/2000/svg">
<g clip-path="url(#clip0_1_38992)">
<path d="M5.36555 20.0003C5.36555 18.6332 5.35616 17.2677 5.36555 15.9006C5.37371 15.8116 5.35808 15.7219 5.32032 15.6412C5.28257 15.5605 5.22409 15.4918 5.15111 15.4423C3.48148 14.1646 1.81186 12.8822 0.142239 11.5949C0.0672222 11.5378 0.017193 11.4529 0.00292969 11.3586C0.00292969 9.56986 0.00292969 7.77955 0.00292969 5.99084C0.00478651 5.9566 0.00844403 5.92248 0.0138865 5.88863H0.222067C1.51342 5.88863 2.8032 5.88863 4.09455 5.88863C4.22916 5.88863 4.28238 5.85509 4.31525 5.69698C4.40297 5.22268 4.58771 4.77257 4.85742 4.37603C5.12713 3.97949 5.47574 3.64542 5.88052 3.39562C5.92122 3.37166 5.96035 3.34451 6.00888 3.31257C5.81252 3.01748 5.68704 2.67936 5.6426 2.32558C5.51895 1.23319 6.17167 0.249405 7.15153 0.033802C7.18543 0.024663 7.21844 0.012368 7.25014 -0.00292969H7.74633C7.85433 0.0306086 7.96234 0.0593549 8.05938 0.0960873C9.21299 0.498547 9.72014 1.99499 9.08777 3.1305C9.05646 3.1864 9.02359 3.2407 8.98289 3.30778C9.02203 3.33652 9.05646 3.36687 9.09559 3.39083C9.51262 3.64318 9.87113 3.98471 10.1465 4.3919C10.4218 4.7991 10.6074 5.26231 10.6906 5.74968C10.7203 5.89981 10.7939 5.89502 10.8925 5.89502H14.9967V6.1218C14.9967 7.84663 14.9967 9.57145 14.9967 11.2963C15.0022 11.3591 14.9904 11.4222 14.9628 11.4786C14.9351 11.535 14.8927 11.5825 14.8401 11.6157C13.1549 12.9051 11.4685 14.1971 9.78118 15.4918C9.73098 15.5268 9.69088 15.5749 9.66501 15.631C9.63914 15.6872 9.62845 15.7494 9.63405 15.8112C9.63405 16.7087 9.63405 17.6079 9.63405 18.5054C9.63405 18.6507 9.59178 18.7066 9.46813 18.7434C8.18773 19.1309 6.90213 19.5243 5.6113 19.9236C5.55149 19.9458 5.49296 19.9714 5.43599 20.0003H5.36555ZM8.56653 17.7995V17.5679C8.56653 16.7694 8.56653 15.9709 8.56653 15.1723C8.5616 15.1227 8.57008 15.0727 8.59106 15.0276C8.61203 14.9826 8.64469 14.9443 8.68549 14.9168C8.99855 14.6836 9.3116 14.4377 9.62465 14.2013C11.0115 13.1366 12.3978 12.0693 13.7836 10.9992C13.8431 10.9545 13.9245 10.8858 13.9276 10.8235C13.9432 10.56 13.9276 10.2949 13.9276 10.025H1.06888C1.06888 10.2518 1.07827 10.4658 1.06888 10.6782C1.06206 10.7412 1.0732 10.8048 1.10097 10.8615C1.12874 10.9181 1.17195 10.9654 1.22541 10.9976C2.9086 12.2902 4.59387 13.5838 6.28123 14.8785C6.33316 14.9123 6.37513 14.9599 6.40269 15.0162C6.43025 15.0724 6.44237 15.1352 6.43776 15.1979C6.43776 16.2056 6.43776 17.215 6.43776 18.2323V18.4607L8.56653 17.7995ZM1.07358 8.81125H13.9166V7.08323H1.0814L1.07358 8.81125ZM9.60431 5.88224C9.47439 4.85533 8.41627 4.05041 7.32997 4.12547C6.3908 4.19734 5.40312 5.08371 5.40468 5.88224H9.60431ZM7.49745 2.93726C7.60675 2.93375 7.7143 2.90827 7.81394 2.86228C7.91357 2.81629 8.00333 2.75069 8.07807 2.66924C8.15281 2.58778 8.21107 2.49208 8.24949 2.38762C8.28792 2.28316 8.30576 2.17199 8.302 2.06047C8.3084 1.83508 8.22787 1.61611 8.07771 1.45066C7.92756 1.28521 7.71977 1.18648 7.49902 1.1757C7.27827 1.18608 7.07032 1.28441 6.91987 1.44956C6.76943 1.61471 6.68849 1.83349 6.69447 2.05888C6.68686 2.28398 6.76717 2.50296 6.91774 2.66767C7.06832 2.83238 7.27683 2.92935 7.49745 2.93726Z" fill="white"/>
</g>
<defs>
<clipPath id="clip0_1_38992">
<rect width="15" height="20" fill="white"/>
</clipPath>
</defs>
</svg>
