<svg width="38" height="41" viewBox="0 0 38 41" fill="none" xmlns="http://www.w3.org/2000/svg">
<g clip-path="url(#clip0_1_5918)">
<path d="M12.5854 0C11.8148 0 11.1378 0.348399 10.6774 0.854578C10.217 1.36076 9.94273 2.00516 9.80963 2.67829C9.65682 3.45099 9.45096 4.38267 9.24404 5.31919C9.14007 5.78966 9.0358 6.26162 8.93786 6.71519L8.88613 6.95437C8.61618 8.20179 8.39648 9.21711 8.39648 9.89622C8.39648 10.9358 8.96142 11.8503 9.796 12.3416V21.2069H11.1955V12.7238C12.0284 12.7238 12.7803 12.3498 13.2944 11.7601C13.8086 12.35 14.5606 12.7241 15.3938 12.7241C16.2268 12.7241 16.9787 12.3501 17.4929 11.7604C18.0071 12.3501 18.759 12.7241 19.592 12.7241C20.425 12.7241 21.177 12.3501 21.6912 11.7602C22.2054 12.3501 22.9574 12.7241 23.7904 12.7241C24.6235 12.7241 25.3755 12.35 25.8898 11.7601C26.4039 12.3498 27.1557 12.7238 27.9886 12.7238V21.2069H29.3881V12.3417C30.2227 11.8504 30.7877 10.9358 30.7877 9.89622C30.7877 9.21603 30.5676 8.19862 30.2971 6.94848L30.2466 6.71519C30.1486 6.26147 30.0443 5.78941 29.9403 5.31893L29.9402 5.31811L29.9397 5.31616C29.7329 4.38052 29.5273 3.45029 29.3748 2.67829C29.2418 2.00485 28.9672 1.36071 28.507 0.854578C28.0466 0.348076 27.3696 0 26.5991 0H12.5854Z" fill="#ED7D31"/>
<path d="M12.5947 16.2584C12.5947 15.0958 13.5431 14.1377 14.6939 14.1377H16.0933C17.2441 14.1377 18.1924 15.0958 18.1924 16.2584V19.7929H16.793V16.2584C16.793 15.8545 16.4931 15.5515 16.0933 15.5515H14.6939C14.294 15.5515 13.9941 15.8545 13.9941 16.2584V21.2067H12.5947V16.2584Z" fill="#ED7D31"/>
<path fill-rule="evenodd" clip-rule="evenodd" d="M18.1421 21.0744C18.686 20.7468 19.1898 20.5 19.7711 20.5L22.5248 20.5007C23.1061 20.5007 23.5769 20.7556 24.0704 21.0529C24.3279 21.208 24.5941 21.3834 24.8779 21.5705C25.1383 21.7421 25.4136 21.9236 25.7104 22.1079C26.9455 22.8751 28.5424 23.6965 30.819 24.0354H31.171C31.5311 23.3839 32.2214 22.9388 33.0058 22.9388H35.8034C36.9542 22.9388 37.9026 23.8968 37.9026 25.0595V34.956C37.9026 36.1186 36.9542 37.0767 35.8034 37.0767H33.0058C32.2507 37.0767 31.5828 36.6643 31.2127 36.0522H30.3685L29.3867 37.0441V37.4668C29.3867 38.6287 28.4389 39.5862 27.2888 39.5862C26.7096 39.5862 26.1877 39.3407 25.8128 38.9717L25.7541 38.914C25.454 39.7159 24.683 40.2931 23.79 40.2931C23.2109 40.2931 22.6889 40.0476 22.3141 39.6787L22.2555 39.6211C21.9553 40.4229 21.1844 41 20.2915 41C19.7124 41 19.1904 40.7545 18.8155 40.3856L18.0521 39.6349C17.7486 40.4294 16.9822 41 16.0947 41C15.5168 41 14.9929 40.7567 14.6174 40.3843L8.81884 34.6379H6.87435C6.58327 35.4579 5.80275 36.0517 4.89673 36.0517H2.09915C0.948333 36.0517 0 35.0936 0 33.931V24.0345C0 22.8718 0.948333 21.9138 2.09915 21.9138H4.89673C5.80275 21.9138 6.58327 22.5076 6.87435 23.3276H15.2101C15.6201 22.9814 16.0211 22.6455 16.4078 22.3335C17.0219 21.8384 17.5983 21.4019 18.1421 21.0744ZM30.9067 34.6384V25.4493H30.7449C30.7109 25.4493 30.6775 25.4477 30.6438 25.4407C28.116 25.0702 26.2977 24.1316 24.9777 23.3118C24.6472 23.1064 24.3468 22.9089 24.0761 22.7308L24.0753 22.7303C23.8057 22.553 23.5655 22.395 23.3542 22.2679C22.9306 22.0128 22.632 21.9144 22.5245 21.9144H19.7706C19.6635 21.9144 19.3052 22.021 18.8591 22.29C18.4131 22.5588 17.8718 22.9622 17.2808 23.4387C16.8098 23.8185 16.3068 24.2443 15.7831 24.6875C14.9923 25.3568 14.1543 26.0661 13.308 26.7179C13.3005 26.7236 13.2954 26.7268 13.2921 26.7285C13.2929 26.7295 13.2933 26.7314 13.2933 26.7343C13.2936 26.7538 13.308 26.8444 13.4192 26.9703C13.6416 27.2222 14.248 27.5696 15.3228 27.5696C17.1886 27.5696 18.3934 26.3628 18.3934 26.3628C18.6667 26.087 19.1096 26.087 19.383 26.3628L28.6792 35.7593L29.5838 34.8454C29.715 34.7129 29.8931 34.6384 30.0786 34.6384H30.9067ZM9.10439 33.2241H6.9959V24.7413H13.5272C13.1722 25.0336 12.8157 25.3203 12.461 25.5935C12.108 25.8652 11.8909 26.3108 11.8937 26.745C11.8937 27.1793 12.0839 27.5822 12.3748 27.9117C12.9567 28.5703 13.9597 28.9831 15.3226 28.9831C17.0903 28.9831 18.2558 28.227 18.8321 27.8165L27.9872 37.06V37.4668C27.9872 37.8644 27.6829 38.1724 27.2888 38.1724C27.0957 38.1724 26.9261 38.0939 26.7886 37.9585L22.1858 33.4312C22.0518 33.2958 21.8694 33.221 21.6801 33.2241C21.3955 33.2286 21.1419 33.4065 21.0385 33.6745C20.9354 33.9424 21.0032 34.2469 21.21 34.4445L24.4885 37.6692V38.1737C24.4885 38.5713 24.1842 38.8793 23.79 38.8793C23.5969 38.8793 23.4274 38.8008 23.2899 38.6654L18.687 34.1381C18.553 34.0027 18.3706 33.9279 18.1813 33.9311C17.8964 33.9348 17.6425 34.1128 17.5388 34.3807C17.4355 34.6489 17.5029 34.9538 17.71 35.1513L20.9899 38.3766V38.8806C20.9899 39.2782 20.6857 39.5862 20.2914 39.5862C20.0984 39.5862 19.9288 39.5077 19.7914 39.3723L15.1885 34.845C15.0545 34.7096 14.872 34.6348 14.6827 34.638C14.3979 34.6418 14.144 34.8197 14.0403 35.0876C13.9369 35.3559 14.0044 35.6607 14.2115 35.8583L16.7919 38.3957V38.8806C16.7919 39.2786 16.4879 39.5862 16.095 39.5862C15.9013 39.5862 15.7324 39.5086 15.5974 39.3751L9.59389 33.4258C9.46301 33.2964 9.28745 33.2241 9.10439 33.2241ZM3.99256 25.947C4.12376 25.8145 4.19748 25.6349 4.19748 25.4475C4.19748 25.2597 4.12375 25.0801 3.99256 24.9476C3.86137 24.815 3.68331 24.7406 3.49776 24.7406C3.11136 24.7406 2.79805 25.0568 2.79805 25.4475C2.79805 25.8378 3.11136 26.1544 3.49776 26.1544C3.68331 26.1544 3.86137 26.0799 3.99256 25.947ZM34.9849 33.9302C34.9849 34.1176 34.9112 34.2972 34.78 34.4297C34.6488 34.5626 34.4707 34.6371 34.2852 34.6371C33.8988 34.6371 33.5855 34.3206 33.5855 33.9302C33.5855 33.5395 33.8988 33.2233 34.2852 33.2233C34.4707 33.2233 34.6488 33.2978 34.78 33.4303C34.9112 33.5629 34.9849 33.7424 34.9849 33.9302Z" fill="#FFC000"/>
</g>
<defs>
<clipPath id="clip0_1_5918">
<rect width="38" height="41" fill="white"/>
</clipPath>
</defs>
</svg>
