<svg width="70" height="70" viewBox="0 0 70 70" fill="none" xmlns="http://www.w3.org/2000/svg">
<circle cx="35" cy="35" r="35" fill="#F5EBDC"/>
<path d="M28.4438 25.5957C26.6252 25.5957 25.146 24.1164 25.146 22.2978C25.146 20.4792 26.6252 19 28.4438 19C30.2612 19 31.7417 20.4792 31.7417 22.2978C31.7417 24.1164 30.2612 25.5957 28.4438 25.5957ZM28.4438 20.7988C27.617 20.7988 26.9448 21.4716 26.9448 22.2978C26.9448 23.1241 27.617 23.7968 28.4438 23.7968C29.2707 23.7968 29.9428 23.1241 29.9428 22.2978C29.9428 21.4716 29.2707 20.7988 28.4438 20.7988Z" fill="#F7941E"/>
<path d="M41.6347 25.5957C39.8161 25.5957 38.3369 24.1164 38.3369 22.2978C38.3369 20.4792 39.8161 19 41.6347 19C43.4521 19 44.9326 20.4792 44.9326 22.2978C44.9326 24.1164 43.4521 25.5957 41.6347 25.5957ZM41.6347 20.7988C40.8079 20.7988 40.1357 21.4716 40.1357 22.2978C40.1357 23.1241 40.8079 23.7968 41.6347 23.7968C42.4616 23.7968 43.1338 23.1241 43.1338 22.2978C43.1338 21.4716 42.4616 20.7988 41.6347 20.7988Z" fill="#F7941E"/>
<path d="M33.4387 34.44H23.4534L23.2262 33.8776C22.9102 33.0951 22.7495 32.2682 22.7495 31.4204C22.7495 28.0314 25.305 25.2744 28.4458 25.2744C31.5865 25.2744 34.142 28.0314 34.142 31.4204C34.142 32.2682 33.9813 33.0951 33.6653 33.8776L33.4387 34.44ZM24.7066 32.6412H32.1855C32.2898 32.2454 32.3438 31.8365 32.3438 31.421C32.3438 29.0237 30.5954 27.0738 28.4464 27.0738C26.2974 27.0738 24.5489 29.0237 24.5489 31.421C24.5489 31.8365 24.6017 32.2454 24.7066 32.6412Z" fill="#F7941E"/>
<path d="M46.63 34.44H36.6453L36.4181 33.8776C36.1021 33.0951 35.9414 32.2682 35.9414 31.4204C35.9414 28.0314 38.4969 25.2744 41.6377 25.2744C44.7784 25.2744 47.3339 28.0314 47.3339 31.4204C47.3339 32.2682 47.1732 33.0951 46.8572 33.8776L46.63 34.44ZM37.8979 32.6412H45.3768C45.4811 32.2454 45.5351 31.8365 45.5351 31.421C45.5351 29.0237 43.7866 27.0738 41.6377 27.0738C39.4887 27.0738 37.7402 29.0237 37.7402 31.421C37.7402 31.8365 37.793 32.2454 37.8979 32.6412Z" fill="#F7941E"/>
<path d="M30.6575 56.0796L30.8344 47.3373L19 36.1769V32.6416H51.0789V35.5833L39.2145 46.5459L38.9837 50.529L30.6575 56.0796ZM20.7988 35.4004L32.6482 46.5764L32.5253 52.6732L37.24 49.5301L37.4601 45.7184L49.2801 34.7966V34.4404H20.7988V35.4004Z" fill="#FFC30D"/>
</svg>
