<svg width="21" height="17" viewBox="0 0 21 17" fill="none" xmlns="http://www.w3.org/2000/svg">
<g clip-path="url(#clip0_1032_1889)">
<path d="M21 4.28466C20.9584 4.40606 20.8759 4.50927 20.7667 4.57669C20.6575 4.6441 20.5283 4.67155 20.4011 4.65434C19.6063 4.6414 18.8096 4.65434 18.0148 4.65434C17.915 4.65434 17.8632 4.67468 17.8299 4.78373C17.7008 5.24031 17.4266 5.64249 17.0489 5.92958C16.6711 6.21667 16.2102 6.37309 15.7357 6.37523C15.2602 6.37221 14.7988 6.21405 14.4214 5.92479C14.0441 5.63553 13.7715 5.23099 13.6451 4.77264C13.6118 4.65619 13.5545 4.63956 13.4492 4.63956C11.1608 4.63956 8.87246 4.63956 6.5841 4.63956C6.45927 4.65318 6.33351 4.62402 6.2274 4.55686C6.12129 4.48971 6.04112 4.38852 6 4.26987V4.03512C6.12015 3.7634 6.33641 3.68577 6.62292 3.68577C8.8854 3.68577 11.1479 3.68577 13.4104 3.68577H13.5952C13.61 3.63771 13.6229 3.60259 13.634 3.56562C13.7066 3.29163 13.8345 3.03544 14.01 2.81288C14.1855 2.59033 14.4048 2.40614 14.6543 2.27172C14.9051 2.16292 15.1633 2.07212 15.427 2H16.0129C16.037 2 16.0591 2.01848 16.0813 2.02403C16.4426 2.07987 16.7837 2.22699 17.0722 2.45148C17.3607 2.67596 17.5872 2.97037 17.7301 3.30684C17.7893 3.43253 17.8262 3.56932 17.8762 3.70425H18.0425C18.817 3.70425 19.5933 3.70425 20.3697 3.70425C20.4977 3.68652 20.6279 3.71105 20.7407 3.7741C20.8534 3.83716 20.9425 3.93529 20.9945 4.0536L21 4.28466ZM15.7412 2.93346C15.4124 2.93444 15.0974 3.06574 14.8653 3.29858C14.6331 3.53142 14.5028 3.8468 14.5028 4.1756C14.5037 4.50604 14.6356 4.82263 14.8694 5.05612C15.1032 5.2896 15.42 5.42095 15.7505 5.42144C16.0781 5.41857 16.3915 5.28754 16.6237 5.05641C16.8558 4.82527 16.9883 4.51242 16.9926 4.18484C16.9931 4.02037 16.9611 3.85743 16.8983 3.70538C16.8356 3.55334 16.7435 3.41519 16.6272 3.29889C16.5109 3.18259 16.3727 3.09043 16.2207 3.02772C16.0686 2.965 15.9057 2.93297 15.7412 2.93346Z" fill="#504F4F"/>
<path d="M6 14.7153C6.04112 14.5967 6.12129 14.4955 6.2274 14.4283C6.33351 14.3612 6.45927 14.332 6.5841 14.3456C8.86691 14.3456 11.1497 14.3456 13.4344 14.3456C13.5619 14.3456 13.6192 14.3142 13.6506 14.1848C13.7854 13.7352 14.0613 13.3408 14.4374 13.0598C14.8135 12.7789 15.2699 12.6264 15.7394 12.6248C16.2131 12.6283 16.6729 12.7853 17.0498 13.0722C17.4267 13.3592 17.7004 13.7606 17.8299 14.2163C17.8595 14.3272 17.902 14.3604 18.0148 14.3604C18.8096 14.3604 19.6063 14.3604 20.4011 14.3604C20.5283 14.3432 20.6575 14.3707 20.7667 14.4381C20.8759 14.5055 20.9584 14.6087 21 14.7301V14.963C20.947 15.0803 20.8576 15.1772 20.745 15.2395C20.6324 15.3018 20.5027 15.3261 20.3752 15.3087C19.5952 15.2976 18.8133 15.3087 18.0333 15.3087H17.8762C17.8614 15.353 17.8484 15.3845 17.8392 15.4177C17.7583 15.7165 17.6129 15.994 17.4134 16.2306C17.2138 16.4672 16.9648 16.6573 16.6839 16.7874C16.4671 16.8735 16.2448 16.9452 16.0185 17.0018H15.427C15.4031 16.9903 15.3783 16.9804 15.353 16.9723C14.9374 16.8988 14.5521 16.7062 14.244 16.4177C13.9251 16.1194 13.7013 15.7336 13.6007 15.3087H13.4159C11.1534 15.3087 8.89094 15.3087 6.62847 15.3087C6.50042 15.325 6.3705 15.2997 6.25797 15.2364C6.14544 15.1732 6.05628 15.0754 6.0037 14.9575L6 14.7153ZM15.7449 16.0665C16.0726 16.0641 16.3862 15.9329 16.618 15.7011C16.8497 15.4694 16.9809 15.1558 16.9834 14.8281C16.9819 14.4978 16.8503 14.1813 16.6171 13.9474C16.3839 13.7135 16.0678 13.581 15.7375 13.5785C15.4089 13.582 15.0948 13.7149 14.8636 13.9485C14.6324 14.1821 14.5028 14.4976 14.5028 14.8262C14.5025 14.9893 14.5345 15.1509 14.5969 15.3016C14.6592 15.4523 14.7507 15.5892 14.8662 15.7045C14.9816 15.8197 15.1186 15.911 15.2694 15.9731C15.4202 16.0353 15.5818 16.067 15.7449 16.0665Z" fill="#504F4F"/>
<path d="M6 9.3825C6.04554 9.26332 6.13004 9.16304 6.23976 9.09794C6.34949 9.03284 6.47801 9.00675 6.60444 9.02391C7.39002 9.035 8.1756 9.02391 8.96118 9.02391H9.12754C9.25057 8.47789 9.57711 7.99931 10.0407 7.68565C10.4063 7.43783 10.8394 7.30874 11.281 7.31596C11.7748 7.32188 12.2524 7.49343 12.6372 7.80312C13.022 8.11281 13.2916 8.54271 13.403 9.02391H13.5786C15.8521 9.02391 18.1257 9.02391 20.4011 9.02391C20.5269 9.00814 20.6544 9.0344 20.7637 9.09858C20.873 9.16277 20.958 9.26128 21.0055 9.37881V9.61356C20.958 9.73108 20.873 9.8296 20.7637 9.89378C20.6544 9.95797 20.5269 9.98422 20.4011 9.96846C18.1275 9.96846 15.8521 9.96846 13.5786 9.96846H13.4085C13.2962 10.4493 13.0268 10.879 12.6427 11.1893C12.2587 11.4997 11.7821 11.6731 11.2884 11.6819C10.7874 11.6813 10.3014 11.5119 9.90863 11.201C9.51589 10.8901 9.23941 10.4559 9.12384 9.96846H8C7.53789 9.96846 7.07579 9.95737 6.60998 9.96846C6.48355 9.98779 6.3543 9.96356 6.24345 9.89974C6.13261 9.83592 6.04676 9.73631 6 9.61725V9.3825ZM11.2643 10.7429C11.4278 10.7425 11.5897 10.7097 11.7405 10.6467C11.8914 10.5836 12.0283 10.4914 12.1435 10.3753C12.2587 10.2593 12.3499 10.1216 12.4119 9.97031C12.4738 9.81899 12.5054 9.65693 12.5046 9.49341C12.5036 9.16574 12.373 8.85178 12.1414 8.62008C11.9097 8.38838 11.5957 8.25779 11.268 8.25681C11.1044 8.25608 10.9423 8.28758 10.7908 8.34952C10.6394 8.41146 10.5017 8.50261 10.3855 8.61778C10.2692 8.73296 10.1769 8.86989 10.1136 9.02076C10.0503 9.17164 10.0174 9.3335 10.0166 9.49711C10.0171 9.82769 10.1488 10.1446 10.3827 10.3782C10.6167 10.6117 10.9337 10.7429 11.2643 10.7429Z" fill="#504F4F"/>
</g>
<g clip-path="url(#clip1_1032_1889)">
<path d="M3.99998 0C1.7944 0 0 1.79436 0 3.99998C0 6.2056 1.7944 8 3.99998 8C6.20555 8 7.99996 6.2056 7.99996 3.99998C7.99996 1.79436 6.2056 0 3.99998 0ZM6.29684 3.32435L3.78385 5.83733C3.677 5.94418 3.53496 6.003 3.38387 6.003C3.23277 6.003 3.09074 5.94418 2.98388 5.83733L1.70312 4.55657C1.59627 4.44972 1.53742 4.30768 1.53742 4.15658C1.53742 4.00545 1.59627 3.86341 1.70312 3.75656C1.80993 3.6497 1.95197 3.59085 2.10311 3.59085C2.2542 3.59085 2.39628 3.6497 2.50309 3.7566L3.38383 4.63729L5.49678 2.52434C5.60364 2.41748 5.74567 2.35867 5.89677 2.35867C6.04786 2.35867 6.1899 2.41748 6.29675 2.52434C6.51739 2.74497 6.51739 3.1038 6.29684 3.32435Z" fill="#504F4F"/>
</g>
<defs>
<clipPath id="clip0_1032_1889">
<rect width="15" height="15" fill="white" transform="translate(6 2)"/>
</clipPath>
<clipPath id="clip1_1032_1889">
<rect width="8" height="8" fill="white"/>
</clipPath>
</defs>
</svg>
