<svg width="70" height="70" viewBox="0 0 70 70" fill="none" xmlns="http://www.w3.org/2000/svg">
<circle cx="35" cy="35" r="35" fill="#F5EBDC"/>
<path d="M40.3438 34.8125C39.052 34.8125 37.7892 35.1956 36.7152 35.9132C35.6411 36.6309 34.804 37.6509 34.3097 38.8443C33.8153 40.0378 33.686 41.351 33.938 42.6179C34.19 43.8849 34.812 45.0486 35.7255 45.962C36.6389 46.8755 37.8026 47.4975 39.0696 47.7495C40.3365 48.0015 41.6497 47.8722 42.8432 47.3778C44.0366 46.8835 45.0566 46.0464 45.7743 44.9723C46.492 43.8983 46.875 42.6355 46.875 41.3438C46.873 39.6122 46.1843 37.952 44.9599 36.7276C43.7355 35.5032 42.0753 34.8145 40.3438 34.8125ZM40.3438 46.6875C39.2869 46.6875 38.2537 46.3741 37.3749 45.7869C36.4961 45.1997 35.8112 44.3652 35.4068 43.3887C35.0023 42.4123 34.8965 41.3378 35.1027 40.3012C35.3089 39.2647 35.8178 38.3125 36.5652 37.5651C37.3125 36.8178 38.2647 36.3089 39.3012 36.1027C40.3378 35.8965 41.4123 36.0023 42.3887 36.4068C43.3652 36.8112 44.1997 37.4961 44.7869 38.3749C45.3741 39.2537 45.6875 40.2869 45.6875 41.3438C45.6859 42.7605 45.1224 44.1188 44.1206 45.1206C43.1188 46.1224 41.7605 46.6859 40.3438 46.6875Z" fill="#FFC30D"/>
<path d="M33.8125 22.9375H39.75C39.9075 22.9375 40.0585 22.8749 40.1698 22.7636C40.2812 22.6522 40.3438 22.5012 40.3438 22.3438C40.3438 22.1863 40.2812 22.0353 40.1698 21.9239C40.0585 21.8126 39.9075 21.75 39.75 21.75H33.8125C33.655 21.75 33.504 21.8126 33.3927 21.9239C33.2813 22.0353 33.2188 22.1863 33.2188 22.3438C33.2188 22.5012 33.2813 22.6522 33.3927 22.7636C33.504 22.8749 33.655 22.9375 33.8125 22.9375Z" fill="#F7941E"/>
<path d="M32.0312 26.5H43.9062C44.0637 26.5 44.2147 26.4374 44.3261 26.3261C44.4374 26.2147 44.5 26.0637 44.5 25.9062C44.5 25.7488 44.4374 25.5978 44.3261 25.4864C44.2147 25.3751 44.0637 25.3125 43.9062 25.3125H32.0312C31.8738 25.3125 31.7228 25.3751 31.6114 25.4864C31.5001 25.5978 31.4375 25.7488 31.4375 25.9062C31.4375 26.0637 31.5001 26.2147 31.6114 26.3261C31.7228 26.4374 31.8738 26.5 32.0312 26.5Z" fill="#F7941E"/>
<path d="M28.4688 33.625H39.75C39.9075 33.625 40.0585 33.5624 40.1698 33.4511C40.2812 33.3397 40.3438 33.1887 40.3438 33.0312C40.3438 32.8738 40.2812 32.7228 40.1698 32.6114C40.0585 32.5001 39.9075 32.4375 39.75 32.4375H28.4688C28.3113 32.4375 28.1603 32.5001 28.0489 32.6114C27.9376 32.7228 27.875 32.8738 27.875 33.0312C27.875 33.1887 27.9376 33.3397 28.0489 33.4511C28.1603 33.5624 28.3113 33.625 28.4688 33.625Z" fill="#F7941E"/>
<path d="M28.4688 30.0625H35C35.1575 30.0625 35.3085 29.9999 35.4198 29.8886C35.5312 29.7772 35.5938 29.6262 35.5938 29.4688C35.5938 29.3113 35.5312 29.1603 35.4198 29.0489C35.3085 28.9376 35.1575 28.875 35 28.875H28.4688C28.3113 28.875 28.1603 28.9376 28.0489 29.0489C27.9376 29.1603 27.875 29.3113 27.875 29.4688C27.875 29.6262 27.9376 29.7772 28.0489 29.8886C28.1603 29.9999 28.3113 30.0625 28.4688 30.0625Z" fill="#F7941E"/>
<path d="M45.0938 32.4375H42.125C41.9675 32.4375 41.8165 32.5001 41.7052 32.6114C41.5938 32.7228 41.5312 32.8738 41.5312 33.0312C41.5312 33.1887 41.5938 33.3397 41.7052 33.4511C41.8165 33.5624 41.9675 33.625 42.125 33.625H45.0938C45.2512 33.625 45.4022 33.5624 45.5136 33.4511C45.6249 33.3397 45.6875 33.1887 45.6875 33.0312C45.6875 32.8738 45.6249 32.7228 45.5136 32.6114C45.4022 32.5001 45.2512 32.4375 45.0938 32.4375Z" fill="#F7941E"/>
<path d="M28.4688 37.1875H33.8125C33.97 37.1875 34.121 37.1249 34.2323 37.0136C34.3437 36.9022 34.4062 36.7512 34.4062 36.5938C34.4062 36.4363 34.3437 36.2853 34.2323 36.1739C34.121 36.0626 33.97 36 33.8125 36H28.4688C28.3113 36 28.1603 36.0626 28.0489 36.1739C27.9376 36.2853 27.875 36.4363 27.875 36.5938C27.875 36.7512 27.9376 36.9022 28.0489 37.0136C28.1603 37.1249 28.3113 37.1875 28.4688 37.1875Z" fill="#F7941E"/>
<path d="M28.4688 40.75H32.0312C32.1887 40.75 32.3397 40.6874 32.4511 40.5761C32.5624 40.4647 32.625 40.3137 32.625 40.1562C32.625 39.9988 32.5624 39.8478 32.4511 39.7364C32.3397 39.6251 32.1887 39.5625 32.0312 39.5625H28.4688C28.3113 39.5625 28.1603 39.6251 28.0489 39.7364C27.9376 39.8478 27.875 39.9988 27.875 40.1562C27.875 40.3137 27.9376 40.4647 28.0489 40.5761C28.1603 40.6874 28.3113 40.75 28.4688 40.75Z" fill="#F7941E"/>
<path d="M32.625 43.125H28.4688C28.3113 43.125 28.1603 43.1876 28.0489 43.2989C27.9376 43.4103 27.875 43.5613 27.875 43.7188C27.875 43.8762 27.9376 44.0272 28.0489 44.1386C28.1603 44.2499 28.3113 44.3125 28.4688 44.3125H32.625C32.7825 44.3125 32.9335 44.2499 33.0448 44.1386C33.1562 44.0272 33.2188 43.8762 33.2188 43.7188C33.2188 43.5613 33.1562 43.4103 33.0448 43.2989C32.9335 43.1876 32.7825 43.125 32.625 43.125Z" fill="#F7941E"/>
<path d="M36.7812 29.4688C36.7812 29.6262 36.8438 29.7772 36.9552 29.8886C37.0665 29.9999 37.2175 30.0625 37.375 30.0625H45.0938C45.2512 30.0625 45.4022 29.9999 45.5136 29.8886C45.6249 29.7772 45.6875 29.6262 45.6875 29.4688C45.6875 29.3113 45.6249 29.1603 45.5136 29.0489C45.4022 28.9376 45.2512 28.875 45.0938 28.875H37.375C37.2175 28.875 37.0665 28.9376 36.9552 29.0489C36.8438 29.1603 36.7812 29.3113 36.7812 29.4688Z" fill="#F7941E"/>
<path d="M42.8924 38.5489L38.6546 42.7868L37.8688 41.6081C37.8257 41.5428 37.7702 41.4866 37.7054 41.4428C37.6405 41.3991 37.5677 41.3685 37.491 41.353C37.4143 41.3374 37.3353 41.3372 37.2586 41.3523C37.1818 41.3674 37.1088 41.3975 37.0437 41.4409C36.9786 41.4843 36.9227 41.5401 36.8792 41.6052C36.8358 41.6703 36.8056 41.7433 36.7905 41.82C36.7754 41.8968 36.7756 41.9758 36.7911 42.0525C36.8066 42.1292 36.8371 42.202 36.8808 42.2669L38.0683 44.0481C38.117 44.1212 38.1814 44.1826 38.2567 44.2278C38.332 44.273 38.4164 44.301 38.5038 44.3096C38.5234 44.3116 38.5429 44.3125 38.5623 44.3125C38.6403 44.3125 38.7175 44.2972 38.7895 44.2673C38.8616 44.2375 38.927 44.1938 38.9822 44.1386L43.7322 39.3886C43.8435 39.2773 43.9061 39.1262 43.9061 38.9688C43.9061 38.8113 43.8435 38.6603 43.7322 38.5489C43.6208 38.4376 43.4698 38.375 43.3123 38.375C43.1548 38.375 43.0038 38.4376 42.8924 38.5489Z" fill="#FFC30D"/>
<path d="M49.0761 23.1114L44.3261 18.3614C44.271 18.3063 44.2055 18.2625 44.1335 18.2327C44.0614 18.2029 43.9842 18.1875 43.9062 18.1875H24.9062C24.7488 18.1875 24.5978 18.2501 24.4864 18.3614C24.3751 18.4728 24.3125 18.6238 24.3125 18.7812V21.75H21.3438C21.1863 21.75 21.0353 21.8126 20.9239 21.9239C20.8126 22.0353 20.75 22.1863 20.75 22.3438V53.2188C20.75 53.3762 20.8126 53.5272 20.9239 53.6386C21.0353 53.7499 21.1863 53.8125 21.3438 53.8125H45.0938C45.2512 53.8125 45.4022 53.7499 45.5136 53.6386C45.6249 53.5272 45.6875 53.3762 45.6875 53.2188V50.25H48.6562C48.8137 50.25 48.9647 50.1874 49.0761 50.0761C49.1874 49.9647 49.25 49.8137 49.25 49.6562V23.5312C49.25 23.4533 49.2346 23.3761 49.2048 23.304C49.175 23.232 49.1312 23.1665 49.0761 23.1114ZM44.5 20.2146L47.2229 22.9375H44.5V20.2146ZM44.5 52.625H21.9375V22.9375H24.3125V49.6562C24.3125 49.8137 24.3751 49.9647 24.4864 50.0761C24.5978 50.1874 24.7488 50.25 24.9062 50.25H44.5V52.625ZM25.5 49.0625V19.375H43.3125V23.5312C43.3125 23.6887 43.3751 23.8397 43.4864 23.9511C43.5978 24.0624 43.7488 24.125 43.9062 24.125H48.0625V49.0625H25.5Z" fill="#F7941E"/>
</svg>
