<svg width="38" height="38" viewBox="0 0 38 38" fill="none" xmlns="http://www.w3.org/2000/svg">
<path d="M24.3438 17.8125C23.052 17.8125 21.7892 18.1956 20.7152 18.9132C19.6411 19.6309 18.804 20.6509 18.3097 21.8443C17.8153 23.0378 17.686 24.351 17.938 25.6179C18.19 26.8849 18.812 28.0486 19.7255 28.962C20.6389 29.8755 21.8026 30.4975 23.0696 30.7495C24.3365 31.0015 25.6497 30.8722 26.8432 30.3778C28.0366 29.8835 29.0566 29.0464 29.7743 27.9723C30.492 26.8983 30.875 25.6355 30.875 24.3438C30.873 22.6122 30.1843 20.952 28.9599 19.7276C27.7355 18.5032 26.0753 17.8145 24.3438 17.8125ZM24.3438 29.6875C23.2869 29.6875 22.2537 29.3741 21.3749 28.7869C20.4961 28.1997 19.8112 27.3652 19.4068 26.3887C19.0023 25.4123 18.8965 24.3378 19.1027 23.3012C19.3089 22.2647 19.8178 21.3125 20.5652 20.5651C21.3125 19.8178 22.2647 19.3089 23.3012 19.1027C24.3378 18.8965 25.4123 19.0023 26.3887 19.4068C27.3652 19.8112 28.1997 20.4961 28.7869 21.3749C29.3741 22.2537 29.6875 23.2869 29.6875 24.3438C29.6859 25.7605 29.1224 27.1188 28.1206 28.1206C27.1188 29.1224 25.7605 29.6859 24.3438 29.6875Z" fill="#FFC30D"/>
<path d="M17.8125 5.9375H23.75C23.9075 5.9375 24.0585 5.87494 24.1698 5.76359C24.2812 5.65224 24.3438 5.50122 24.3438 5.34375C24.3438 5.18628 24.2812 5.03526 24.1698 4.92391C24.0585 4.81256 23.9075 4.75 23.75 4.75H17.8125C17.655 4.75 17.504 4.81256 17.3927 4.92391C17.2813 5.03526 17.2188 5.18628 17.2188 5.34375C17.2188 5.50122 17.2813 5.65224 17.3927 5.76359C17.504 5.87494 17.655 5.9375 17.8125 5.9375Z" fill="#F7941E"/>
<path d="M16.0312 9.5H27.9062C28.0637 9.5 28.2147 9.43744 28.3261 9.32609C28.4374 9.21474 28.5 9.06372 28.5 8.90625C28.5 8.74878 28.4374 8.59776 28.3261 8.48641C28.2147 8.37506 28.0637 8.3125 27.9062 8.3125H16.0312C15.8738 8.3125 15.7228 8.37506 15.6114 8.48641C15.5001 8.59776 15.4375 8.74878 15.4375 8.90625C15.4375 9.06372 15.5001 9.21474 15.6114 9.32609C15.7228 9.43744 15.8738 9.5 16.0312 9.5Z" fill="#F7941E"/>
<path d="M12.4688 16.625H23.75C23.9075 16.625 24.0585 16.5624 24.1698 16.4511C24.2812 16.3397 24.3438 16.1887 24.3438 16.0312C24.3438 15.8738 24.2812 15.7228 24.1698 15.6114C24.0585 15.5001 23.9075 15.4375 23.75 15.4375H12.4688C12.3113 15.4375 12.1603 15.5001 12.0489 15.6114C11.9376 15.7228 11.875 15.8738 11.875 16.0312C11.875 16.1887 11.9376 16.3397 12.0489 16.4511C12.1603 16.5624 12.3113 16.625 12.4688 16.625Z" fill="#F7941E"/>
<path d="M12.4688 13.0625H19C19.1575 13.0625 19.3085 12.9999 19.4198 12.8886C19.5312 12.7772 19.5938 12.6262 19.5938 12.4688C19.5938 12.3113 19.5312 12.1603 19.4198 12.0489C19.3085 11.9376 19.1575 11.875 19 11.875H12.4688C12.3113 11.875 12.1603 11.9376 12.0489 12.0489C11.9376 12.1603 11.875 12.3113 11.875 12.4688C11.875 12.6262 11.9376 12.7772 12.0489 12.8886C12.1603 12.9999 12.3113 13.0625 12.4688 13.0625Z" fill="#F7941E"/>
<path d="M29.0938 15.4375H26.125C25.9675 15.4375 25.8165 15.5001 25.7052 15.6114C25.5938 15.7228 25.5312 15.8738 25.5312 16.0312C25.5312 16.1887 25.5938 16.3397 25.7052 16.4511C25.8165 16.5624 25.9675 16.625 26.125 16.625H29.0938C29.2512 16.625 29.4022 16.5624 29.5136 16.4511C29.6249 16.3397 29.6875 16.1887 29.6875 16.0312C29.6875 15.8738 29.6249 15.7228 29.5136 15.6114C29.4022 15.5001 29.2512 15.4375 29.0938 15.4375Z" fill="#F7941E"/>
<path d="M12.4688 20.1875H17.8125C17.97 20.1875 18.121 20.1249 18.2323 20.0136C18.3437 19.9022 18.4062 19.7512 18.4062 19.5938C18.4062 19.4363 18.3437 19.2853 18.2323 19.1739C18.121 19.0626 17.97 19 17.8125 19H12.4688C12.3113 19 12.1603 19.0626 12.0489 19.1739C11.9376 19.2853 11.875 19.4363 11.875 19.5938C11.875 19.7512 11.9376 19.9022 12.0489 20.0136C12.1603 20.1249 12.3113 20.1875 12.4688 20.1875Z" fill="#F7941E"/>
<path d="M12.4688 23.75H16.0312C16.1887 23.75 16.3397 23.6874 16.4511 23.5761C16.5624 23.4647 16.625 23.3137 16.625 23.1562C16.625 22.9988 16.5624 22.8478 16.4511 22.7364C16.3397 22.6251 16.1887 22.5625 16.0312 22.5625H12.4688C12.3113 22.5625 12.1603 22.6251 12.0489 22.7364C11.9376 22.8478 11.875 22.9988 11.875 23.1562C11.875 23.3137 11.9376 23.4647 12.0489 23.5761C12.1603 23.6874 12.3113 23.75 12.4688 23.75Z" fill="#F7941E"/>
<path d="M16.625 26.125H12.4688C12.3113 26.125 12.1603 26.1876 12.0489 26.2989C11.9376 26.4103 11.875 26.5613 11.875 26.7188C11.875 26.8762 11.9376 27.0272 12.0489 27.1386C12.1603 27.2499 12.3113 27.3125 12.4688 27.3125H16.625C16.7825 27.3125 16.9335 27.2499 17.0448 27.1386C17.1562 27.0272 17.2188 26.8762 17.2188 26.7188C17.2188 26.5613 17.1562 26.4103 17.0448 26.2989C16.9335 26.1876 16.7825 26.125 16.625 26.125Z" fill="#F7941E"/>
<path d="M20.7812 12.4688C20.7812 12.6262 20.8438 12.7772 20.9552 12.8886C21.0665 12.9999 21.2175 13.0625 21.375 13.0625H29.0938C29.2512 13.0625 29.4022 12.9999 29.5136 12.8886C29.6249 12.7772 29.6875 12.6262 29.6875 12.4688C29.6875 12.3113 29.6249 12.1603 29.5136 12.0489C29.4022 11.9376 29.2512 11.875 29.0938 11.875H21.375C21.2175 11.875 21.0665 11.9376 20.9552 12.0489C20.8438 12.1603 20.7812 12.3113 20.7812 12.4688Z" fill="#F7941E"/>
<path d="M26.8924 21.5489L22.6546 25.7868L21.8688 24.6081C21.8257 24.5428 21.7702 24.4866 21.7054 24.4428C21.6405 24.3991 21.5677 24.3685 21.491 24.353C21.4143 24.3374 21.3353 24.3372 21.2586 24.3523C21.1818 24.3674 21.1088 24.3975 21.0437 24.4409C20.9786 24.4843 20.9227 24.5401 20.8792 24.6052C20.8358 24.6703 20.8056 24.7433 20.7905 24.82C20.7754 24.8968 20.7756 24.9758 20.7911 25.0525C20.8066 25.1292 20.8371 25.202 20.8808 25.2669L22.0683 27.0481C22.117 27.1212 22.1814 27.1826 22.2567 27.2278C22.332 27.273 22.4164 27.301 22.5038 27.3096C22.5234 27.3116 22.5429 27.3125 22.5623 27.3125C22.6403 27.3125 22.7175 27.2972 22.7895 27.2673C22.8616 27.2375 22.927 27.1938 22.9822 27.1386L27.7322 22.3886C27.8435 22.2773 27.9061 22.1262 27.9061 21.9688C27.9061 21.8113 27.8435 21.6603 27.7322 21.5489C27.6208 21.4376 27.4698 21.375 27.3123 21.375C27.1548 21.375 27.0038 21.4376 26.8924 21.5489Z" fill="#FFC30D"/>
<path d="M33.0761 6.11139L28.3261 1.36139C28.271 1.30626 28.2055 1.26253 28.1335 1.23269C28.0614 1.20285 27.9842 1.1875 27.9062 1.1875H8.90625C8.74878 1.1875 8.59776 1.25006 8.48641 1.36141C8.37506 1.47276 8.3125 1.62378 8.3125 1.78125V4.75H5.34375C5.18628 4.75 5.03526 4.81256 4.92391 4.92391C4.81256 5.03526 4.75 5.18628 4.75 5.34375V36.2188C4.75 36.3762 4.81256 36.5272 4.92391 36.6386C5.03526 36.7499 5.18628 36.8125 5.34375 36.8125H29.0938C29.2512 36.8125 29.4022 36.7499 29.5136 36.6386C29.6249 36.5272 29.6875 36.3762 29.6875 36.2188V33.25H32.6562C32.8137 33.25 32.9647 33.1874 33.0761 33.0761C33.1874 32.9647 33.25 32.8137 33.25 32.6562V6.53125C33.25 6.45328 33.2346 6.37607 33.2048 6.30403C33.175 6.23199 33.1312 6.16653 33.0761 6.11139ZM28.5 3.21464L31.2229 5.9375H28.5V3.21464ZM28.5 35.625H5.9375V5.9375H8.3125V32.6562C8.3125 32.8137 8.37506 32.9647 8.48641 33.0761C8.59776 33.1874 8.74878 33.25 8.90625 33.25H28.5V35.625ZM9.5 32.0625V2.375H27.3125V6.53125C27.3125 6.68872 27.3751 6.83975 27.4864 6.95109C27.5978 7.06244 27.7488 7.125 27.9062 7.125H32.0625V32.0625H9.5Z" fill="#F7941E"/>
</svg>
