<svg width="40" height="40" viewBox="0 0 40 40" fill="none" xmlns="http://www.w3.org/2000/svg">
<g clip-path="url(#clip0_1_28845)">
<path d="M19.9333 38.5668C9.6957 38.5668 1.3667 30.2378 1.3667 20.0002C1.3667 9.76259 9.6955 1.43359 19.9333 1.43359C24.2165 1.43359 28.3959 2.92739 31.7017 5.63979C32.0007 5.88499 32.0441 6.32619 31.7989 6.62499C31.5533 6.92379 31.1121 6.96699 30.8137 6.72219C27.7575 4.21459 23.8931 2.83359 19.9331 2.83359C10.4673 2.83359 2.7665 10.5344 2.7665 20.0002C2.7665 29.4658 10.4673 37.1668 19.9331 37.1668C29.3989 37.1668 37.0997 29.4658 37.0997 20.0002C37.0997 16.8146 36.2201 13.704 34.5557 11.0048C34.3527 10.6756 34.4551 10.2444 34.7843 10.0416C35.1131 9.83899 35.5445 9.94099 35.7475 10.2702C37.5479 13.1906 38.4997 16.5552 38.4997 20.0004C38.4999 30.2378 30.1709 38.5668 19.9333 38.5668Z" fill="#F7941E"/>
<path d="M33.4 8.79981C33.8051 8.79981 34.1334 8.47145 34.1334 8.06641C34.1334 7.66136 33.8051 7.33301 33.4 7.33301C32.995 7.33301 32.6666 7.66136 32.6666 8.06641C32.6666 8.47145 32.995 8.79981 33.4 8.79981Z" fill="#F7941E"/>
<path d="M19.9667 22.1668C16.3273 22.1668 13.3667 19.206 13.3667 15.5668C13.3667 11.9276 16.3275 8.9668 19.9667 8.9668C23.6059 8.9668 26.5667 11.9276 26.5667 15.5668C26.5667 19.206 23.6061 22.1668 19.9667 22.1668ZM19.9667 10.3666C17.0993 10.3666 14.7667 12.6994 14.7667 15.5666C14.7667 18.4338 17.0995 20.7666 19.9667 20.7666C22.8339 20.7666 25.1667 18.4338 25.1667 15.5666C25.1667 12.6994 22.8341 10.3666 19.9667 10.3666Z" fill="#F7941E"/>
<path d="M9.55746 34.1628L8.18286 33.8968C8.20306 33.7928 8.69506 31.321 10.3791 28.816C12.6391 25.4542 15.9643 23.662 19.9951 23.6332C20.0293 23.633 20.0639 23.6328 20.0981 23.6328C25.1325 23.6328 27.9829 26.303 29.4901 28.5518C31.1131 30.973 31.5397 33.3804 31.5569 33.4814L30.1773 33.7182C30.1151 33.3622 28.5523 24.9716 20.0055 25.0332C11.4111 25.095 9.57486 34.0722 9.55746 34.1628Z" fill="#F7941E"/>
</g>
<defs>
<clipPath id="clip0_1_28845">
<rect width="40" height="40" fill="white"/>
</clipPath>
</defs>
</svg>
