<svg width="11" height="11" viewBox="0 0 11 11" fill="none" xmlns="http://www.w3.org/2000/svg">
<g clip-path="url(#clip0_1_3733)">
<path d="M5.41138 0H5.59403C5.59403 0 5.59403 -5.80591e-07 5.60925 0.0142759C7.15575 0.682999 8.83805 1.03039 10.541 1.03266C10.598 1.02493 10.6561 1.02986 10.7107 1.04705C10.7653 1.06424 10.8148 1.09322 10.8553 1.13165C10.8958 1.17007 10.9261 1.21687 10.9438 1.26829C10.9614 1.3197 10.966 1.37428 10.957 1.42764C10.9723 2.49996 10.9866 3.57387 11.0002 4.64936C11.0105 5.06447 10.9722 5.47938 10.886 5.88665C10.3313 8.29303 8.82182 9.92689 6.35764 10.7882C6.10395 10.8739 5.85026 10.931 5.59657 11H5.41391C5.36317 10.9857 5.31244 10.9691 5.2617 10.9572C4.34868 10.7582 3.49153 10.3785 2.74763 9.84361C1.88693 9.2453 1.18981 8.46405 0.713528 7.56399C0.237243 6.66394 -0.00462788 5.67076 0.0077785 4.66602C0.0077785 3.59291 0.0077785 2.52455 0.0077785 1.4443C0.0077785 1.15877 0.139696 1.03266 0.446661 1.03028C1.43903 1.02978 2.4275 0.91389 3.38947 0.685269C4.08616 0.52081 4.76352 0.291239 5.41138 0ZM0.735868 1.73221V1.80359C0.735868 2.78391 0.735868 3.7666 0.735868 4.74692C0.735392 5.14737 0.783911 5.54655 0.880471 5.93662C1.4944 8.19706 2.99878 9.65088 5.39869 10.2814C5.46119 10.2957 5.52646 10.2957 5.58896 10.2814C6.92207 9.97147 8.10609 9.25169 8.95214 8.23692C9.7982 7.22216 10.2575 5.97087 10.2569 4.68267C10.2569 3.73091 10.234 2.77915 10.2213 1.82738C10.2213 1.78931 10.2213 1.75124 10.2213 1.71317C9.96765 1.69652 9.75201 1.687 9.52623 1.66797C8.19287 1.57182 6.88564 1.26953 5.65745 0.773307C5.60788 0.749878 5.55314 0.737674 5.49763 0.737674C5.44212 0.737674 5.38738 0.749878 5.33781 0.773307C4.25066 1.21335 3.0999 1.49961 1.92314 1.62276C1.53753 1.67748 1.14431 1.6989 0.735868 1.73221Z" fill="white"/>
<path d="M6.96648 4.46833H7.32419C7.37409 4.467 7.42376 4.47528 7.47012 4.49266C7.51649 4.51004 7.55856 4.53614 7.59374 4.56937C7.62893 4.60259 7.65648 4.64223 7.67469 4.68583C7.69291 4.72943 7.7014 4.77606 7.69965 4.82286C7.69965 5.7318 7.69965 6.64073 7.69965 7.54966C7.70222 7.59738 7.69406 7.64506 7.67569 7.68962C7.65731 7.73418 7.62914 7.7746 7.593 7.80827C7.55687 7.84194 7.51358 7.86809 7.46595 7.88503C7.41832 7.90197 7.36743 7.90931 7.31658 7.90658H3.68627C3.63542 7.90931 3.58452 7.90197 3.5369 7.88503C3.48927 7.86809 3.44598 7.84194 3.40984 7.80827C3.37371 7.7746 3.34553 7.73418 3.32716 7.68962C3.30879 7.64506 3.30062 7.59738 3.3032 7.54966C3.3032 6.64073 3.3032 5.7318 3.3032 4.82286C3.30145 4.77606 3.30994 4.72943 3.32815 4.68583C3.34637 4.64223 3.37392 4.60259 3.4091 4.56937C3.44429 4.53614 3.48636 4.51004 3.53272 4.49266C3.57908 4.47528 3.62875 4.467 3.67866 4.46833H4.03636C4.03636 4.29226 4.03636 4.12094 4.03636 3.952C4.03729 3.65625 4.13966 3.36863 4.32834 3.13166C4.51703 2.8947 4.78201 2.72098 5.0841 2.63619C5.30056 2.57607 5.52889 2.56364 5.7513 2.59987C5.97372 2.63609 6.18422 2.71999 6.36639 2.84503C6.54856 2.97007 6.69749 3.13287 6.80158 3.32075C6.90567 3.50863 6.9621 3.71652 6.96648 3.92821C6.96902 4.10428 6.96648 4.28274 6.96648 4.46833ZM4.04144 7.21179H6.95887V5.16312H4.04144V7.21179ZM6.23332 4.46357C6.23332 4.28036 6.23332 4.1019 6.23332 3.92583C6.22684 3.76336 6.15898 3.60834 6.04187 3.48847C5.92476 3.36861 5.76602 3.2917 5.59402 3.27149C5.42792 3.2514 5.25951 3.28563 5.11718 3.36842C4.97485 3.4512 4.8673 3.57747 4.81265 3.72596C4.76286 3.96888 4.74835 4.217 4.76953 4.46357H6.23332Z" fill="white"/>
<path d="M5.86783 6.18633C5.86783 6.12208 5.86783 6.05784 5.86783 5.99359C5.86085 5.90689 5.81946 5.82578 5.75182 5.76631C5.68418 5.70684 5.59523 5.67332 5.50252 5.67237C5.40802 5.6717 5.31698 5.70564 5.24875 5.76696C5.18053 5.82828 5.14051 5.91216 5.13721 6.00073C5.13721 6.12684 5.13721 6.23867 5.13721 6.37668C5.14109 6.46361 5.18033 6.54584 5.24686 6.60647C5.31339 6.66709 5.40215 6.70152 5.49491 6.70266C5.58951 6.70405 5.68105 6.6712 5.7505 6.61094C5.81995 6.55067 5.86197 6.46763 5.86783 6.37906C5.86783 6.31719 5.86783 6.25057 5.86783 6.18633Z" fill="white"/>
<path d="M5.86783 6.18633C5.86783 6.25057 5.86783 6.31719 5.86783 6.37906C5.86197 6.46763 5.81995 6.55067 5.7505 6.61094C5.68105 6.6712 5.58951 6.70405 5.49491 6.70266C5.40215 6.70152 5.31339 6.66709 5.24686 6.60647C5.18033 6.54584 5.14109 6.46361 5.13721 6.37668C5.13721 6.25057 5.13721 6.13874 5.13721 6.00073C5.14051 5.91216 5.18053 5.82828 5.24875 5.76696C5.31698 5.70564 5.40802 5.6717 5.50252 5.67237C5.59523 5.67332 5.68418 5.70684 5.75182 5.76631C5.81946 5.82578 5.86085 5.90689 5.86783 5.99359C5.86783 6.05784 5.86783 6.12208 5.86783 6.18633Z" fill="white"/>
</g>
<defs>
<clipPath id="clip0_1_3733">
<rect width="11" height="11" fill="white"/>
</clipPath>
</defs>
</svg>
