<svg width="22" height="22" viewBox="0 0 22 22" fill="none" xmlns="http://www.w3.org/2000/svg">
<g clip-path="url(#clip0_1_34718)">
<path d="M11.6448 0C12.0761 0.0560784 12.5074 0.0992163 12.9386 0.17255C15.1638 0.551841 17.2139 1.62008 18.7998 3.22667C18.8888 3.30811 18.9606 3.40649 19.011 3.51604C19.0614 3.6256 19.0895 3.74412 19.0935 3.86466C19.0975 3.98519 19.0774 4.10532 19.0344 4.21799C18.9914 4.33066 18.9263 4.4336 18.843 4.52079C18.7593 4.60794 18.6588 4.67729 18.5476 4.72466C18.4365 4.77203 18.3169 4.79644 18.196 4.79644C18.0752 4.79644 17.9556 4.77203 17.8444 4.72466C17.7333 4.67729 17.6328 4.60794 17.5491 4.52079C16.9199 3.90431 16.2123 3.37346 15.4444 2.94196C13.7375 1.99682 11.7703 1.63055 9.83768 1.89804C7.52401 2.17703 5.41271 3.35451 3.95922 5.17647C3.13394 6.13982 2.52512 7.2692 2.17392 8.48822C1.82272 9.70724 1.73734 10.9875 1.92354 12.2424C2.20979 14.5276 3.37656 16.6109 5.17546 18.0486C6.1385 18.8753 7.26858 19.4845 8.48852 19.8344C9.70847 20.1843 10.9895 20.2667 12.2443 20.0761C13.5246 19.9169 14.7553 19.4825 15.8519 18.8027C16.9485 18.1229 17.885 17.2137 18.5971 16.1376C19.5963 14.706 20.1458 13.0088 20.1757 11.2631C20.1692 11.164 20.1692 11.0646 20.1757 10.9655C20.1805 10.844 20.2098 10.7247 20.262 10.6148C20.3141 10.5049 20.3879 10.4067 20.479 10.3261C20.57 10.2455 20.6765 10.1842 20.7918 10.1458C20.9072 10.1074 21.0292 10.0928 21.1504 10.1027C21.2711 10.1099 21.3892 10.1408 21.4979 10.1937C21.6067 10.2466 21.7039 10.3205 21.7841 10.411C21.8642 10.5016 21.9257 10.6071 21.9649 10.7215C22.0042 10.8359 22.0205 10.9569 22.0129 11.0776C22.0252 12.1004 21.8797 13.1189 21.5817 14.0973C20.1843 18.3463 17.3076 20.9992 12.8998 21.8231C10.1575 22.3232 7.3279 21.7549 4.99108 20.235C2.65427 18.715 0.987344 16.3585 0.33209 13.6486C0.189765 13.062 0.133698 12.4537 0.0388143 11.8541L0 11.6471V10.3529L0.0517557 9.88706C0.28428 7.57119 1.25325 5.39096 2.81631 3.66667C4.45067 1.81634 6.67033 0.58296 9.10449 0.17255C9.53578 0.0992163 9.93688 0.0560784 10.3552 0H11.6448Z" fill="white"/>
<path d="M10.5406 12.0051L12.1363 10.4004C12.9083 9.63259 13.6717 8.85612 14.448 8.09259C14.5313 8.00069 14.6325 7.92678 14.7454 7.87542C14.8583 7.82405 14.9805 7.7963 15.1045 7.79387C15.2285 7.79145 15.3517 7.8144 15.4665 7.86132C15.5813 7.90824 15.6853 7.97813 15.7721 8.06671C15.8576 8.15135 15.9255 8.25212 15.9719 8.36319C16.0182 8.47426 16.0421 8.59341 16.0421 8.71377C16.0421 8.83412 16.0182 8.95328 15.9719 9.06434C15.9255 9.17541 15.8576 9.27618 15.7721 9.36082C14.2482 10.885 12.7286 12.4034 11.2134 13.9161C11.1297 14.0086 11.0275 14.0826 10.9135 14.1332C10.7995 14.1838 10.6761 14.21 10.5513 14.21C10.4266 14.21 10.3032 14.1838 10.1892 14.1332C10.0752 14.0826 9.97301 14.0086 9.88932 13.9161C9.1245 13.1799 8.36831 12.4236 7.62074 11.6471C7.53572 11.5622 7.46827 11.4613 7.42225 11.3503C7.37623 11.2392 7.35254 11.1202 7.35254 11C7.35254 10.8798 7.37623 10.7608 7.42225 10.6498C7.46827 10.5388 7.53572 10.4379 7.62074 10.353C7.70566 10.2679 7.80651 10.2005 7.91751 10.1544C8.02852 10.1084 8.14751 10.0847 8.26767 10.0847C8.38784 10.0847 8.50683 10.1084 8.61784 10.1544C8.72884 10.2005 8.82969 10.2679 8.91461 10.353C9.45803 10.9051 9.9842 11.4487 10.5406 12.0051Z" fill="white"/>
</g>
<defs>
<clipPath id="clip0_1_34718">
<rect width="22" height="22" fill="white"/>
</clipPath>
</defs>
</svg>
