<svg width="35" height="35" viewBox="0 0 35 35" fill="none" xmlns="http://www.w3.org/2000/svg">
<path d="M31.0331 7.94728C30.908 7.94728 30.8126 7.94728 30.7173 7.94728C29.314 7.94728 27.9103 7.94779 26.5071 7.94728C25.7252 7.94676 25.3309 7.55302 25.3304 6.77116C25.3299 5.36792 25.3304 3.96417 25.3304 2.56093C25.3304 2.46608 25.3304 2.37174 25.3304 2.25126C25.2212 2.25126 25.1351 2.25126 25.0484 2.25126C18.991 2.25126 12.9335 2.25126 6.87656 2.25126C6.29055 2.25126 6.11623 2.42609 6.11674 3.01773C6.11828 8.12313 6.12033 13.229 6.12187 18.3344C6.12187 18.6569 6.12187 18.9794 6.11572 19.3019C6.10957 19.63 5.93013 19.8294 5.64763 19.8351C5.36821 19.8407 5.17236 19.6449 5.15186 19.326C5.1416 19.166 5.15032 19.005 5.15032 18.7897C4.67454 18.8153 4.21209 18.7969 3.76759 18.8769C3.2954 18.962 2.96574 19.5085 3.02111 19.9827C3.08365 20.5175 3.49176 20.9123 4.00906 20.9358C4.12186 20.941 4.23465 20.941 4.34744 20.941C9.54974 20.941 14.752 20.9415 19.9548 20.9404C20.6285 20.9404 21.1766 21.1768 21.4821 21.8023C21.5842 22.0115 21.637 22.2663 21.638 22.5001C21.6488 24.8954 21.6488 27.2912 21.6426 29.6865C21.6406 30.5458 21.0756 31.1441 20.2189 31.2246C20.1307 31.2328 20.0415 31.2333 19.9533 31.2333C14.7269 31.2338 9.5 31.2312 4.27361 31.2363C3.53482 31.2369 2.91549 31.0113 2.45766 30.4104C2.18388 30.0515 2.04699 29.6439 2.04648 29.1963C2.04391 26.091 2.04238 22.9856 2.04648 19.8802C2.04802 18.8302 2.88165 17.8361 4.15364 17.8433C4.47459 17.8448 4.79605 17.8438 5.14981 17.8438C5.14981 17.7233 5.14981 17.6218 5.14981 17.5203C5.14981 12.6728 5.15288 7.82526 5.14622 2.97774C5.14519 2.29433 5.3877 1.756 6.00498 1.45095C6.24646 1.33149 6.54638 1.28329 6.81965 1.28278C10.6833 1.27253 14.5464 1.2756 18.4101 1.2756C20.8541 1.2756 23.2981 1.28073 25.7416 1.2715C26.2666 1.26945 26.6937 1.43915 27.0628 1.80983C28.5209 3.27203 29.9841 4.7291 31.4489 6.18413C31.8242 6.55685 32.0047 6.99572 32.0047 7.52687C32.0011 15.8991 32.0026 24.2714 32.0021 32.6437C32.0021 33.7234 31.3853 34.3402 30.3071 34.3402C22.4752 34.3402 14.6433 34.333 6.81144 34.3499C5.88347 34.352 5.19031 33.6598 5.15801 32.9272C5.14417 32.616 5.30413 32.3797 5.57688 32.3484C5.85271 32.3166 6.05574 32.4812 6.11264 32.7831C6.1998 33.2441 6.34848 33.3722 6.81196 33.3722C14.6597 33.3727 22.508 33.3727 30.3558 33.3722C30.8234 33.3722 31.0331 33.161 31.0331 32.6898C31.0341 24.5114 31.0336 16.3324 31.0336 8.15389C31.0331 8.09647 31.0331 8.0411 31.0331 7.94728ZM3.01085 21.6075C3.01085 21.729 3.01085 21.8064 3.01085 21.8838C3.01085 24.2632 3.01034 26.6426 3.01085 29.0215C3.01085 29.8423 3.42716 30.2643 4.24439 30.2643C9.48667 30.2653 14.7295 30.2653 19.9718 30.2643C20.4809 30.2643 20.6752 30.0695 20.6757 29.5634C20.6767 28.515 20.6762 27.4665 20.6762 26.4181C20.6762 25.1358 20.6777 23.8531 20.6752 22.5708C20.6741 22.1366 20.4562 21.9197 20.022 21.9084C19.9574 21.9069 19.8928 21.9079 19.8282 21.9079C14.7956 21.9079 9.7625 21.9084 4.72991 21.9074C4.15262 21.9079 3.56559 21.9658 3.01085 21.6075ZM30.8116 6.97931C29.292 5.46943 27.798 3.98519 26.3091 2.50555C26.3122 2.49581 26.2999 2.51632 26.2999 2.53734C26.2989 3.95648 26.3009 5.37612 26.2948 6.79525C26.2943 6.97982 26.3958 6.98034 26.5265 6.97982C27.2202 6.97777 27.9134 6.9788 28.607 6.9788C29.3325 6.97931 30.0574 6.97931 30.8116 6.97931Z" fill="#F5941E"/>
<path d="M11.5259 27.6088C11.5259 26.5926 11.5259 25.5975 11.5259 24.6029C12.5292 24.4439 13.1629 24.6972 13.2711 25.88C13.3075 26.2778 13.2665 26.6685 13.0696 27.0269C12.8635 27.4027 12.5513 27.6098 12.1139 27.6088C11.9232 27.6083 11.732 27.6088 11.5259 27.6088Z" fill="white"/>
<path d="M7.1665 25.8685C7.1665 25.4122 7.1665 24.981 7.1665 24.5104C7.50437 24.5432 7.84787 24.4237 8.17036 24.6134C8.44465 24.7749 8.56462 25.0554 8.4913 25.3502C8.42055 25.6337 8.16626 25.8521 7.86889 25.8665C7.64536 25.8772 7.4208 25.8685 7.1665 25.8685Z" fill="white"/>
<path d="M16.8292 11.7726C14.3001 11.7726 11.7715 11.7736 9.24236 11.7716C8.78965 11.7711 8.50562 11.4609 8.63482 11.1071C8.74197 10.8139 8.97832 10.7539 9.27107 10.7544C11.7443 10.7606 14.2175 10.7559 16.6908 10.7559C19.2614 10.7559 21.832 10.758 24.4022 10.7575C24.6272 10.7575 24.8549 10.7436 24.9984 10.9646C25.1128 11.141 25.1281 11.3296 25.0251 11.5163C24.9113 11.7218 24.7241 11.7752 24.4991 11.7747C23.2071 11.7706 21.9146 11.7736 20.6226 11.7741C19.3583 11.7747 18.0935 11.7741 16.8292 11.7741C16.8292 11.7736 16.8292 11.7731 16.8292 11.7726Z" fill="#FFC30D"/>
<path d="M16.898 16.4186C14.3689 16.4186 11.8403 16.4196 9.31121 16.4176C8.8585 16.4171 8.57447 16.1069 8.70367 15.7531C8.81082 15.4599 9.04717 15.3999 9.33992 15.4004C11.8131 15.4065 14.2864 15.4019 16.7596 15.4019C19.3302 15.4019 21.9009 15.404 24.471 15.4035C24.6961 15.4035 24.9237 15.3896 25.0673 15.6106C25.1816 15.787 25.197 15.9756 25.0939 16.1623C24.9801 16.3678 24.793 16.4212 24.5679 16.4207C23.2759 16.4166 21.9834 16.4196 20.6914 16.4201C19.4271 16.4207 18.1623 16.4201 16.898 16.4201C16.898 16.4196 16.898 16.4191 16.898 16.4186Z" fill="#FFC30D"/>
<path d="M12.2011 5.38993C13.1875 5.38942 14.174 5.38737 15.1604 5.38993C15.5951 5.39096 15.8171 5.57091 15.8079 5.91288C15.7966 6.31483 15.5398 6.41481 15.1896 6.41429C13.2029 6.41173 11.2162 6.41583 9.22954 6.41327C8.82964 6.41276 8.6097 6.21947 8.61585 5.89955C8.622 5.57655 8.83938 5.39301 9.24185 5.39147C10.2283 5.38788 11.2147 5.39045 12.2011 5.38993Z" fill="#FFC30D"/>
<path d="M4.93362 23.6859C5.33506 23.6213 5.85903 23.5854 6.4112 23.5854C7.32943 23.5854 7.92467 23.7505 8.39122 24.1017C8.89314 24.475 9.20896 25.0702 9.20896 25.9238C9.20896 26.8493 8.87161 27.4876 8.40557 27.8823C7.89596 28.3058 7.12128 28.5063 6.17433 28.5063C5.60781 28.5063 5.20586 28.4704 4.93311 28.4345V23.6859H4.93362ZM6.03129 27.6311C6.1246 27.6526 6.27534 27.6526 6.41171 27.6526C7.40172 27.6598 8.0472 27.1148 8.0472 25.9597C8.05438 24.9554 7.46632 24.4247 6.52655 24.4247C6.28251 24.4247 6.1246 24.4463 6.03181 24.4678V27.6311H6.03129Z" fill="#FFC30D"/>
<path d="M14.3527 25.9885C14.3527 27.5738 13.3914 28.5351 11.9784 28.5351C10.5439 28.5351 9.7041 27.4518 9.7041 26.0747C9.7041 24.6258 10.6295 23.5425 12.0574 23.5425C13.5416 23.5425 14.3527 24.6545 14.3527 25.9885ZM10.8587 26.0531C10.8587 27.0001 11.3037 27.6671 12.0353 27.6671C12.7741 27.6671 13.1976 26.9642 13.1976 26.0244C13.1976 25.1564 12.7813 24.4105 12.0281 24.4105C11.2893 24.4105 10.8587 25.1134 10.8587 26.0531Z" fill="#FFC30D"/>
<path d="M18.6211 28.3202C18.4201 28.4207 17.9684 28.5356 17.3798 28.5356C15.7085 28.5356 14.8477 27.4881 14.8477 26.111C14.8477 24.4612 16.0243 23.543 17.4875 23.543C18.054 23.543 18.4847 23.6578 18.6785 23.7583L18.456 24.6263C18.2335 24.533 17.9254 24.4468 17.5378 24.4468C16.6698 24.4468 15.9956 24.9703 15.9956 26.0464C15.9956 27.0149 16.5693 27.6245 17.5449 27.6245C17.8751 27.6245 18.2407 27.5527 18.456 27.4666L18.6211 28.3202Z" fill="#FFC30D"/>
</svg>
