<svg width="70" height="70" viewBox="0 0 70 70" fill="none" xmlns="http://www.w3.org/2000/svg">
<circle cx="35" cy="35" r="35" fill="#F5EBDC"/>
<path d="M31.311 26.4007H27.844C27.6007 26.4007 27.4033 26.2034 27.4033 25.96V22.4934C27.4033 22.2501 27.6007 22.0527 27.844 22.0527H31.311C31.5545 22.0527 31.7517 22.2501 31.7517 22.4934V25.96C31.7517 26.2034 31.5545 26.4007 31.311 26.4007ZM28.2847 25.5194H30.8703V22.9341H28.2847V25.5194Z" fill="#F5941E"/>
<path d="M29.078 28.6333H27.844C27.6007 28.6333 27.4033 28.436 27.4033 28.1926C27.4033 27.9493 27.6007 27.752 27.844 27.752H29.078C29.3215 27.752 29.5187 27.9493 29.5187 28.1926C29.5187 28.436 29.3215 28.6333 29.078 28.6333Z" fill="#F5941E"/>
<path d="M44.9435 28.6333H31.3108C31.0674 28.6333 30.8701 28.436 30.8701 28.1926C30.8701 27.9493 31.0674 27.752 31.3108 27.752H44.9435C45.187 27.752 45.3842 27.9493 45.3842 28.1926C45.3842 28.436 45.187 28.6333 44.9435 28.6333Z" fill="#F5941E"/>
<path d="M29.0189 32.0415H27.7849C27.5415 32.0415 27.3442 31.8442 27.3442 31.6008C27.3442 31.3575 27.5415 31.1602 27.7849 31.1602H29.0189C29.2623 31.1602 29.4597 31.3575 29.4597 31.6008C29.4597 31.8442 29.2623 32.0415 29.0189 32.0415Z" fill="#F5941E"/>
<path d="M44.8849 32.0415H31.2522C31.0089 32.0415 30.8115 31.8442 30.8115 31.6008C30.8115 31.3575 31.0089 31.1602 31.2522 31.1602H44.8849C45.1284 31.1602 45.3256 31.3575 45.3256 31.6008C45.3256 31.8442 45.1284 32.0415 44.8849 32.0415Z" fill="#F5941E"/>
<path d="M29.0189 35.3608H27.7849C27.5415 35.3608 27.3442 35.1636 27.3442 34.9202C27.3442 34.6767 27.5415 34.4795 27.7849 34.4795H29.0189C29.2624 34.4795 29.4597 34.6767 29.4597 34.9202C29.4597 35.1636 29.2624 35.3608 29.0189 35.3608Z" fill="#F5941E"/>
<path d="M44.8848 35.3608H31.2522C31.0088 35.3608 30.8115 35.1636 30.8115 34.9202C30.8115 34.6767 31.0088 34.4795 31.2522 34.4795H44.8848C45.1283 34.4795 45.3256 34.6767 45.3256 34.9202C45.3256 35.1636 45.1283 35.3608 44.8848 35.3608Z" fill="#F5941E"/>
<path d="M29.0189 38.7983H27.7849C27.5415 38.7983 27.3442 38.6011 27.3442 38.3577C27.3442 38.1142 27.5415 37.917 27.7849 37.917H29.0189C29.2624 37.917 29.4597 38.1142 29.4597 38.3577C29.4597 38.6011 29.2624 38.7983 29.0189 38.7983Z" fill="#F5941E"/>
<path d="M44.8848 38.7983H31.2522C31.0088 38.7983 30.8115 38.6011 30.8115 38.3577C30.8115 38.1142 31.0088 37.917 31.2522 37.917H44.8848C45.1283 37.917 45.3256 38.1142 45.3256 38.3577C45.3256 38.6011 45.1283 38.7983 44.8848 38.7983Z" fill="#F5941E"/>
<path d="M29.0189 42.148H27.7849C27.5415 42.148 27.3442 41.9507 27.3442 41.7073C27.3442 41.4638 27.5415 41.2666 27.7849 41.2666H29.0189C29.2624 41.2666 29.4597 41.4638 29.4597 41.7073C29.4597 41.9507 29.2624 42.148 29.0189 42.148Z" fill="#F5941E"/>
<path d="M44.8848 42.148H31.2522C31.0088 42.148 30.8115 41.9507 30.8115 41.7073C30.8115 41.4638 31.0088 41.2666 31.2522 41.2666H44.8848C45.1283 41.2666 45.3256 41.4638 45.3256 41.7073C45.3256 41.9507 45.1283 42.148 44.8848 42.148Z" fill="#F5941E"/>
<path d="M48.2342 47.0541H24.4358C24.1924 47.0541 23.9951 46.8569 23.9951 46.6134V17.4407C23.9951 17.1973 24.1924 17 24.4358 17H40.3896C40.5073 17 40.6201 17.0472 40.703 17.1308L48.5477 25.063C48.6291 25.1455 48.6749 25.2569 48.6749 25.3728V46.6134C48.6749 46.8569 48.4777 47.0541 48.2342 47.0541ZM24.8765 46.1728H47.7935V25.554L40.2055 17.8814H24.8765V46.1728Z" fill="#FEC000"/>
<path d="M47.8227 25.8136H40.2425C39.999 25.8136 39.8018 25.6162 39.8018 25.3729V17.6758H40.6832V24.9322H47.8227V25.8136Z" fill="#FEC000"/>
<path d="M44.8845 50.5499H21.1448C20.9015 50.5499 20.7041 50.3526 20.7041 50.1092V19.6731C20.7041 19.4298 20.9015 19.2324 21.1448 19.2324H24.4355C24.679 19.2324 24.8762 19.4298 24.8762 19.6731C24.8762 19.9164 24.679 20.1138 24.4355 20.1138H21.5855V49.6684H44.4438V46.8775C44.4438 46.6341 44.6411 46.4369 44.8845 46.4369C45.128 46.4369 45.3252 46.6341 45.3252 46.8775V50.1092C45.3252 50.3526 45.128 50.5499 44.8845 50.5499Z" fill="#FEC000"/>
</svg>
