<svg width="5" height="5" viewBox="0 0 5 5" fill="none" xmlns="http://www.w3.org/2000/svg">
<path d="M3.96563 0C3.86328 0 3.76091 0.0390875 3.68281 0.117188L3.2 0.6L4.2 1.6L4.68281 1.11719C4.83901 0.960988 4.83901 0.707762 4.68281 0.551562L4.24844 0.117188C4.17034 0.0390875 4.06798 0 3.96563 0ZM2.8 1L0.451953 3.34805C0.451953 3.34805 0.635506 3.3316 0.703906 3.4C0.772306 3.4684 0.716 3.916 0.8 4C0.884 4.084 1.32878 4.02487 1.39258 4.08867C1.45638 4.15247 1.45195 4.34805 1.45195 4.34805L3.8 2L2.8 1ZM0.2 4L0.0113281 4.53438C0.00391108 4.55546 8.19671e-05 4.57765 0 4.6C0 4.65304 0.0210714 4.70391 0.0585786 4.74142C0.0960859 4.77893 0.146957 4.8 0.2 4.8C0.222354 4.79992 0.244537 4.79609 0.265625 4.78867L0.267578 4.78789L0.272656 4.78633L0.273828 4.78555L0.8 4.6L0.5 4.3L0.2 4Z" fill="#3C3838"/>
</svg>
