<svg width="14" height="14" viewBox="0 0 14 14" fill="none" xmlns="http://www.w3.org/2000/svg">
<g clip-path="url(#clip0_1_30400)">
<path d="M0 2.9145C0.0579536 2.69005 0.135128 2.47106 0.230657 2.25999C0.378375 1.98485 0.599589 1.75664 0.869381 1.60107C1.13917 1.4455 1.44682 1.36876 1.75766 1.37949C2.76788 1.37949 3.78102 1.37949 4.79124 1.37949C4.84028 1.37422 4.88988 1.37916 4.93694 1.394C4.984 1.40885 5.02752 1.43328 5.06477 1.46577C5.10203 1.49826 5.13222 1.53813 5.15348 1.58287C5.17474 1.62761 5.18659 1.67627 5.18832 1.72582C5.18663 1.77641 5.17454 1.82611 5.15281 1.87178C5.13108 1.91744 5.10018 1.9581 5.06206 1.99118C5.02394 2.02426 4.97942 2.04905 4.93131 2.064C4.88319 2.07894 4.83252 2.08372 4.78248 2.07802H1.80438C1.56032 2.06449 1.31928 2.13762 1.12342 2.28462C0.927549 2.43162 0.789306 2.64314 0.732847 2.88221C0.707909 2.98895 0.69614 3.09837 0.69781 3.208V12.1803C0.679093 12.425 0.746661 12.6685 0.888667 12.8682C1.03067 13.0678 1.23805 13.2108 1.47445 13.2721C1.58906 13.3006 1.70678 13.3144 1.82482 13.3132H11.4599C11.6107 13.3228 11.7618 13.2999 11.9031 13.2459C12.0444 13.192 12.1726 13.1082 12.2791 13.0004C12.3855 12.8925 12.4678 12.763 12.5204 12.6206C12.573 12.4781 12.5947 12.326 12.5839 12.1745C12.5839 11.1795 12.5839 10.1875 12.5839 9.19249C12.5731 9.10572 12.5937 9.01793 12.6419 8.94517C12.6902 8.87241 12.7629 8.81955 12.8467 8.79626C12.8968 8.78497 12.9487 8.78497 12.9988 8.79626C13.0489 8.80756 13.0958 8.82986 13.1363 8.86157C13.1768 8.89328 13.2098 8.93361 13.2329 8.97966C13.256 9.02571 13.2687 9.07635 13.2701 9.12791C13.2701 9.40674 13.2701 9.68557 13.2701 9.96733C13.2701 10.7598 13.2701 11.5522 13.2701 12.3418C13.2529 12.775 13.0744 13.186 12.7699 13.4932C12.4654 13.8003 12.0572 13.9812 11.6263 14H11.4365C8.23455 14 5.03163 14 1.82774 14C1.50611 14.019 1.18568 13.9465 0.9032 13.7907C0.620718 13.635 0.387625 13.4024 0.230657 13.1195C0.134683 12.9086 0.0574952 12.6896 0 12.465V2.9145Z" fill="#474747"/>
<path d="M12.0294 4.27883e-06C12.4142 -0.000906692 12.7852 0.143673 13.0688 0.405035C13.2294 0.55472 13.3813 0.698537 13.5331 0.868767C13.8254 1.15829 13.9926 1.5518 13.9986 1.96425C14.0046 2.3767 13.8489 2.77496 13.5652 3.07296C13.5302 3.11405 13.4893 3.1522 13.4513 3.19329L7.42213 9.25703C7.31418 9.36831 7.17779 9.44753 7.02797 9.48596C6.11994 9.73543 5.21483 9.99078 4.3068 10.2432C4.25084 10.2686 4.19012 10.2818 4.1287 10.2818C4.06728 10.2818 4.00656 10.2686 3.9506 10.2432C3.87846 10.2018 3.8233 10.136 3.79495 10.0575C3.76661 9.97901 3.76693 9.89295 3.79585 9.81468C4.00899 9.03103 4.24549 8.25032 4.43527 7.46667C4.5428 7.01615 4.78051 6.60767 5.11848 6.29267C7.03673 4.38784 8.94038 2.47715 10.844 0.545916C10.9942 0.378593 11.1769 0.243867 11.3807 0.149995C11.5845 0.0561234 11.8053 0.00508443 12.0294 4.27883e-06ZM10.5521 1.8696L5.49804 6.95598L7.08344 8.54969L12.1375 3.46625L10.5521 1.8696ZM11.0367 1.2826L12.701 2.95849L13.0134 2.62684C13.0542 2.57988 13.098 2.53292 13.136 2.48302C13.2455 2.3355 13.3046 2.15638 13.3046 1.97233C13.3046 1.78828 13.2455 1.60916 13.136 1.46164C12.9597 1.24832 12.7643 1.05182 12.5521 0.874636C12.4316 0.766448 12.2797 0.700057 12.1188 0.68526C11.958 0.670462 11.7966 0.708043 11.6586 0.792456C11.4363 0.941121 11.2281 1.11011 11.0367 1.29728V1.2826ZM5.11848 7.60755L4.62213 9.41258L6.41483 8.9107L5.11848 7.60755Z" fill="#474747"/>
</g>
<defs>
<clipPath id="clip0_1_30400">
<rect width="14" height="14" fill="white"/>
</clipPath>
</defs>
</svg>
