<svg width="26" height="26" viewBox="0 0 26 26" fill="none" xmlns="http://www.w3.org/2000/svg">
<g clip-path="url(#clip0_1_38930)">
<path d="M24.2351 25.5927H23.7463C23.2263 25.4748 22.8519 25.1524 22.4948 24.785C21.857 24.128 21.2018 23.4884 20.5552 22.8419C20.5015 22.7881 20.4426 22.7396 20.3576 22.6685V24.0639C20.3629 24.4349 20.2356 24.7957 19.9988 25.0813C19.77 25.3621 19.4528 25.48 19.1322 25.6013H1.74337C0.736302 25.1801 0.519635 24.8473 0.519635 23.7467V19.0979C0.519635 13.4357 0.519635 7.77344 0.519635 2.11122C0.497157 1.73169 0.600086 1.35529 0.812568 1.04002C1.03963 0.721084 1.3863 0.57375 1.74337 0.450684H15.149C15.2863 0.536279 15.4167 0.632484 15.539 0.738417C17.047 2.23948 18.548 3.74748 20.0578 5.24508C20.1563 5.33552 20.2343 5.44611 20.2863 5.56933C20.3383 5.69254 20.3633 5.82552 20.3594 5.95922C20.349 7.60415 20.3594 9.25255 20.349 10.894C20.3443 11.0137 20.3636 11.1331 20.4055 11.2453C20.4475 11.3575 20.5113 11.4602 20.5934 11.5475C21.4216 12.5119 21.94 13.7034 22.081 14.9668C22.222 16.2301 21.979 17.5067 21.3838 18.6299C21.3603 18.6609 21.3435 18.6965 21.3343 18.7343C21.3252 18.7722 21.3239 18.8115 21.3306 18.8498C21.3372 18.8882 21.3517 18.9248 21.3731 18.9573C21.3944 18.9898 21.4223 19.0176 21.4548 19.0389C22.6231 20.1968 23.781 21.3651 24.9475 22.523C25.2377 22.7878 25.464 23.1149 25.6096 23.4797V24.4123C25.4996 24.7095 25.3157 24.9739 25.0752 25.1804C24.8347 25.3869 24.5456 25.5288 24.2351 25.5927ZM19.3731 6.24002H19.0836C18.1078 6.24002 17.1319 6.24002 16.1578 6.24002C15.1836 6.24002 14.5596 5.62642 14.5596 4.64882C14.5596 3.67122 14.5596 2.68495 14.5596 1.70215V1.44388C14.492 1.44388 14.4591 1.43348 14.4279 1.43348H2.0571C1.65323 1.43348 1.47644 1.62762 1.47644 2.05575C1.47644 9.36233 1.47644 16.6683 1.47644 23.9737C1.47644 24.4244 1.64977 24.6029 2.0987 24.6029C7.64537 24.6029 13.1955 24.6029 18.7491 24.6029C19.2691 24.6029 19.4303 24.362 19.3662 23.7363C19.3171 23.2172 19.3217 22.6944 19.38 22.1763C19.4083 22.0278 19.3973 21.8745 19.3481 21.7316C19.2988 21.5887 19.213 21.4611 19.0992 21.3616C19.0763 21.3327 19.0478 21.3085 19.0155 21.2906C18.9832 21.2726 18.9477 21.2612 18.911 21.257C18.8743 21.2529 18.8371 21.256 18.8016 21.2662C18.7661 21.2764 18.7329 21.2935 18.704 21.3166C17.9067 21.7597 17.0157 22.0074 16.104 22.0394C13.504 22.1087 11.5211 21.0219 10.1778 18.7928C10.1511 18.7366 10.108 18.6899 10.0541 18.659C10.0002 18.628 9.93811 18.6142 9.87617 18.6195C7.84297 18.6195 5.80977 18.6195 3.77657 18.6195C3.39697 18.6195 3.16297 18.4306 3.16297 18.1324C3.16297 17.8343 3.39697 17.6436 3.7731 17.6384H9.62657C8.92284 14.775 9.5711 12.3396 11.9423 10.5734C14.3135 8.80708 16.8476 8.88682 19.3731 10.3827V6.24002ZM21.1463 15.6746C21.1466 14.6065 20.8303 13.5624 20.2374 12.6741C19.6444 11.7859 18.8014 11.0933 17.8149 10.684C16.8285 10.2748 15.7428 10.1672 14.6952 10.3748C13.6475 10.5825 12.685 11.096 11.9292 11.8506C11.1734 12.6052 10.6582 13.5669 10.4489 14.6142C10.2396 15.6615 10.3455 16.7474 10.7531 17.7345C11.1608 18.7217 11.852 19.5658 12.7393 20.1602C13.6267 20.7545 14.6703 21.0725 15.7383 21.0739C17.1703 21.0711 18.5429 20.5017 19.5563 19.49C20.5696 18.4782 21.1413 17.1065 21.1463 15.6746ZM19.8047 20.6908C19.8047 20.6908 19.8394 20.7307 19.874 20.7654L23.4447 24.3377C23.4903 24.3848 23.5389 24.4288 23.5903 24.4695C23.6763 24.5359 23.7772 24.5805 23.8842 24.5994C23.9912 24.6184 24.1013 24.6111 24.2048 24.5782C24.3084 24.5453 24.4025 24.4878 24.479 24.4106C24.5555 24.3334 24.6122 24.2388 24.6442 24.135C24.7482 23.8212 24.6234 23.582 24.405 23.3653C23.2598 22.2225 22.1158 21.0785 20.973 19.9333C20.9099 19.8624 20.852 19.7871 20.7996 19.708L19.8047 20.6908ZM15.5424 2.19615C15.5424 3.02295 15.5424 3.84628 15.5424 4.66962C15.5424 5.08215 15.7279 5.26068 16.1491 5.26242C16.8026 5.26242 17.456 5.26242 18.1095 5.26242H18.6087L15.5424 2.19615Z" fill="#9C450A"/>
<path d="M8.39253 4.02828H12.8264C12.8992 4.02828 12.9737 4.02828 13.0465 4.02828C13.112 4.02526 13.1775 4.03521 13.2391 4.05756C13.3007 4.07991 13.3573 4.11422 13.4056 4.15851C13.4539 4.20281 13.493 4.25622 13.5207 4.31567C13.5483 4.37513 13.5639 4.43945 13.5665 4.50495C13.5637 4.63276 13.513 4.75485 13.4244 4.847C13.3357 4.93915 13.2157 4.99462 13.0881 5.00242C13.0229 5.00672 12.9575 5.00672 12.8923 5.00242C9.8728 5.00242 6.85449 5.00242 3.83733 5.00242C3.73165 5.00336 3.62626 4.99114 3.5236 4.96602C3.42162 4.93715 3.33218 4.87513 3.2694 4.78974C3.20662 4.70436 3.17408 4.60049 3.17693 4.49455C3.18156 4.38722 3.22142 4.28441 3.29035 4.202C3.35928 4.1196 3.45344 4.0622 3.55826 4.03868C3.66326 4.02336 3.76942 4.01756 3.87546 4.02135L8.39253 4.02828Z" fill="#9C450A"/>
<path d="M9.4292 8.40842C8.23493 8.40842 7.04067 8.40842 5.84467 8.40842C5.73403 8.42329 5.62154 8.40217 5.52383 8.34816C5.42613 8.29416 5.3484 8.21015 5.30213 8.10855C5.27556 8.04858 5.2618 7.98372 5.26172 7.91813C5.26164 7.85253 5.27525 7.78764 5.30168 7.72761C5.32811 7.66758 5.36677 7.61372 5.4152 7.56948C5.46363 7.52524 5.52076 7.49159 5.58293 7.47068C5.70081 7.43806 5.82295 7.42345 5.9452 7.42735C8.25631 7.42735 10.572 7.42735 12.8924 7.42735C12.9978 7.42553 13.1031 7.436 13.2061 7.45855C13.3145 7.48426 13.4105 7.54699 13.4776 7.6359C13.5447 7.72481 13.5786 7.83435 13.5736 7.94562C13.5662 8.05688 13.5212 8.16232 13.4459 8.24456C13.3706 8.3268 13.2695 8.38092 13.1593 8.39802C13.0702 8.40843 12.9804 8.41191 12.8907 8.40842H9.4292Z" fill="#9C450A"/>
<path d="M6.01647 11.8162H3.85847C3.75199 11.8178 3.64564 11.8079 3.54127 11.7867C3.437 11.7611 3.34452 11.7009 3.279 11.6159C3.21349 11.5308 3.17883 11.426 3.18074 11.3187C3.17937 11.2151 3.21278 11.1141 3.27563 11.0317C3.33848 10.9494 3.42714 10.8905 3.52741 10.8646C3.64107 10.8388 3.75764 10.8283 3.87407 10.8334C5.31505 10.8334 6.75487 10.8334 8.19354 10.8334C8.29941 10.8327 8.40509 10.8425 8.50901 10.8628C8.61129 10.8906 8.70138 10.9518 8.76503 11.0365C8.82869 11.1213 8.86227 11.2248 8.86048 11.3308C8.85869 11.4368 8.82163 11.5392 8.75515 11.6217C8.68867 11.7043 8.59657 11.7623 8.4934 11.7867C8.38872 11.8052 8.28248 11.8133 8.1762 11.811L6.01647 11.8162Z" fill="#9C450A"/>
<path d="M5.86894 14.2428H7.97321C8.067 14.232 8.162 14.2454 8.24911 14.2818C8.33622 14.3183 8.41251 14.3764 8.47068 14.4508C8.51631 14.5116 8.54657 14.5826 8.55887 14.6576C8.57117 14.7326 8.56514 14.8095 8.54131 14.8817C8.51747 14.9539 8.47653 15.0192 8.42198 15.0722C8.36742 15.1251 8.30088 15.1641 8.22801 15.1858C8.12578 15.2133 8.02013 15.2262 7.91428 15.2239C6.54841 15.2239 5.18081 15.2239 3.81494 15.2239C3.74948 15.2257 3.68398 15.2222 3.61908 15.2135C3.49619 15.1998 3.38264 15.1414 3.30014 15.0493C3.21764 14.9572 3.17197 14.8379 3.17188 14.7143C3.17684 14.5854 3.23273 14.4637 3.3273 14.376C3.42186 14.2882 3.54736 14.2416 3.67628 14.2463C4.40427 14.2463 5.13401 14.2463 5.86201 14.2463L5.86894 14.2428Z" fill="#9C450A"/>
<path d="M5.7646 22.029C5.09553 22.029 4.42473 22.029 3.75566 22.029C3.3414 22.029 3.1074 21.7551 3.20446 21.4154C3.2227 21.3262 3.2682 21.245 3.33466 21.1829C3.40112 21.1208 3.48525 21.0809 3.5754 21.0687C3.66366 21.0543 3.7529 21.0468 3.84233 21.0462C5.11344 21.0462 6.37993 21.0462 7.6418 21.0462C7.73948 21.0452 7.83702 21.0539 7.933 21.0722C8.04233 21.0946 8.14056 21.1541 8.21101 21.2406C8.28146 21.3272 8.3198 21.4355 8.31953 21.5471C8.31905 21.6587 8.27855 21.7664 8.2054 21.8507C8.13225 21.935 8.03129 21.9902 7.92086 22.0064C7.6782 22.0324 7.43206 22.0272 7.18766 22.029C6.71273 22.0324 6.23953 22.0307 5.7646 22.029Z" fill="#9C450A"/>
<path d="M3.66902 8.40495C3.54107 8.40327 3.41865 8.35251 3.32704 8.26316C3.23543 8.17381 3.18163 8.05269 3.17676 7.92482C3.18097 7.79678 3.23325 7.67503 3.32319 7.58381C3.41313 7.49259 3.53413 7.43858 3.66209 7.43255C3.78985 7.43517 3.9117 7.48686 4.00239 7.5769C4.09307 7.66693 4.14562 7.78841 4.14916 7.91615C4.14873 8.04417 4.09828 8.16694 4.00858 8.25827C3.91887 8.3496 3.79701 8.40224 3.66902 8.40495Z" fill="#9C450A"/>
<path d="M10.334 21.5419C10.3354 21.639 10.3078 21.7343 10.2548 21.8157C10.2017 21.897 10.1257 21.9608 10.0363 21.9987C9.94691 22.0367 9.84824 22.0472 9.75287 22.0288C9.65751 22.0104 9.56977 21.9641 9.50085 21.8957C9.43194 21.8273 9.38496 21.7399 9.36593 21.6446C9.34689 21.5494 9.35666 21.4506 9.39397 21.361C9.43129 21.2713 9.49447 21.1948 9.57545 21.1412C9.65644 21.0876 9.75155 21.0593 9.84866 21.06C9.97651 21.0609 10.0989 21.1119 10.1896 21.2019C10.2804 21.292 10.3322 21.4141 10.334 21.5419Z" fill="#9C450A"/>
<path d="M20.0594 15.6763C20.059 16.5315 19.8049 17.3674 19.3292 18.0782C18.8535 18.7889 18.1776 19.3425 17.387 19.6688C16.5965 19.9951 15.7269 20.0795 14.8884 19.9113C14.0498 19.7431 13.28 19.3299 12.6765 18.7239C12.073 18.118 11.6628 17.3465 11.498 16.5073C11.3332 15.6681 11.4211 14.7989 11.7506 14.0097C12.0801 13.2204 12.6364 12.5468 13.349 12.0739C14.0616 11.601 14.8986 11.3503 15.7538 11.3534C16.8965 11.3607 17.99 11.819 18.7964 12.6286C19.6027 13.4382 20.0567 14.5336 20.0594 15.6763ZM15.7365 19.0112C16.3965 19.0116 17.0419 18.8162 17.5909 18.4499C18.14 18.0836 18.5682 17.5627 18.8213 16.9532C19.0744 16.3436 19.1412 15.6726 19.0132 15.0251C18.8851 14.3776 18.568 13.7826 18.1019 13.3153C17.6357 12.8479 17.0415 12.5293 16.3944 12.3995C15.7472 12.2698 15.0761 12.3348 14.4658 12.5864C13.8556 12.8379 13.3336 13.2648 12.9659 13.8129C12.5982 14.361 12.4012 15.0058 12.3998 15.6659C12.4002 16.5515 12.7517 17.4008 13.3771 18.0278C14.0025 18.6549 14.8509 19.0085 15.7365 19.0112Z" fill="#9C450A"/>
<path d="M15.8077 13.468C16.3683 13.4895 16.9 13.722 17.2964 14.119C17.6927 14.516 17.9244 15.0481 17.9449 15.6087C17.9573 15.7392 17.9184 15.8695 17.8366 15.972C17.7548 16.0745 17.6364 16.1412 17.5064 16.1582C17.4409 16.1644 17.3749 16.157 17.3124 16.1364C17.25 16.1157 17.1925 16.0824 17.1436 16.0384C17.0947 15.9944 17.0555 15.9407 17.0284 15.8808C17.0014 15.8208 16.9871 15.7559 16.9864 15.6902C16.9772 15.3599 16.8418 15.0458 16.608 14.8124C16.3743 14.5789 16.06 14.444 15.7297 14.4352C15.6641 14.4346 15.5993 14.4203 15.5395 14.3932C15.4798 14.3661 15.4263 14.3268 15.3826 14.2779C15.3388 14.2289 15.3058 14.1714 15.2856 14.1089C15.2654 14.0465 15.2584 13.9805 15.2652 13.9152C15.2797 13.7847 15.3444 13.665 15.4457 13.5815C15.547 13.498 15.6769 13.4573 15.8077 13.468Z" fill="#9C450A"/>
</g>
<defs>
<clipPath id="clip0_1_38930">
<rect width="26" height="26" fill="white"/>
</clipPath>
</defs>
</svg>
