<svg width="96" height="91" viewBox="0 0 96 91" fill="none" xmlns="http://www.w3.org/2000/svg">
<path d="M49.1875 85.0911C41.9067 85.0911 34.7894 82.9424 28.7356 78.9168C22.6818 74.8911 17.9635 69.1693 15.1772 62.4749C12.391 55.7805 11.6619 48.4141 13.0824 41.3074C14.5028 34.2006 18.0088 27.6726 23.1571 22.5489C28.3055 17.4253 34.8648 13.9359 42.0057 12.5223C49.1467 11.1087 56.5484 11.8343 63.275 14.6072C70.0016 17.3801 75.751 22.0759 79.796 28.1007C83.841 34.1255 86 41.2087 86 48.4547C85.9918 58.1688 82.1107 67.4827 75.2088 74.3516C68.3069 81.2205 58.9483 85.0829 49.1875 85.0911ZM49.1875 15.8891C42.7157 15.8891 36.3892 17.7991 31.008 21.3774C25.6269 24.9558 21.4328 30.0418 18.9561 35.9924C16.4795 41.943 15.8315 48.4908 17.0941 54.808C18.3566 61.1251 21.4731 66.9277 26.0494 71.4821C30.6257 76.0365 36.4562 79.1381 42.8037 80.3946C49.1512 81.6512 55.7305 81.0063 61.7097 78.5414C67.689 76.0766 72.7995 71.9026 76.395 66.5472C79.9906 61.1918 81.9097 54.8956 81.9097 48.4547C81.922 44.1689 81.0848 39.9228 79.4462 35.9594C77.8076 31.9959 75.3997 28.3929 72.3604 25.3566C69.321 22.3203 65.7099 19.9104 61.7336 18.2647C57.7573 16.6189 53.4939 15.7697 49.1875 15.7657V15.8891Z" fill="#FFC000"/>
<path d="M51.9152 60.2724H46.4833L44.4375 28.3633H53.9375L51.9152 60.2724Z" fill="#ED7D31"/>
<path d="M52.75 63.8184H46.8125V69.7275H52.75V63.8184Z" fill="#ED7D31"/>
</svg>
