<svg width="34" height="34" viewBox="0 0 34 34" fill="none" xmlns="http://www.w3.org/2000/svg">
<g clip-path="url(#clip0_1_39681)">
<path d="M31.1106 8.76019H30.819C30.6484 7.29769 29.4715 6.13817 28.0007 5.99628C27.8318 4.41965 26.4943 3.1875 24.8739 3.1875H4.80461C2.11878 3.1875 -0.0664062 5.37269 -0.0664062 8.05825V22.1299C-0.0664062 23.7618 1.18235 25.1068 2.77402 25.2606C2.94108 26.8204 4.25234 28.0422 5.84947 28.0678C5.85362 28.3446 5.89694 28.6118 5.97554 28.8639C6.33325 30.0123 7.40665 30.8484 8.67122 30.8484H31.1106C32.6673 30.8484 33.9337 29.582 33.9337 28.0256V11.5832C33.9337 10.0266 32.6673 8.76019 31.1106 8.76019ZM32.6055 11.5832V22.4565L29.7169 20.2744C28.9275 19.6783 27.8601 19.669 27.0606 20.2513L23.4064 22.9138L16.4379 15.7295C15.6078 14.8735 14.2571 14.8208 13.363 15.6099L7.17656 21.0679V11.5832C7.17656 10.7589 7.84711 10.0883 8.67122 10.0883H31.1106C31.935 10.0883 32.6055 10.7589 32.6055 11.5832ZM32.6055 28.0253C32.6055 28.8497 31.935 29.5202 31.1109 29.5202H8.67122C8.00171 29.5202 7.43336 29.0774 7.244 28.4694C7.20016 28.3291 7.17656 28.1799 7.17656 28.0256V22.8389L14.2418 16.6057C14.6032 16.2867 15.149 16.3079 15.4846 16.654L18.6296 19.8965L24.8894 26.3504C25.0196 26.4847 25.1927 26.5522 25.3662 26.5522C25.5327 26.5522 25.6995 26.4899 25.8285 26.3649C26.0915 26.1094 26.098 25.6891 25.8427 25.4259L24.3403 23.8767L27.8427 21.325C28.1659 21.0895 28.5973 21.0931 28.9163 21.3341L32.6055 24.1208V28.0253ZM4.08399 24.9237V9.24449C4.08399 9.17782 4.08737 9.11168 4.09411 9.04683C4.1932 8.07226 5.01887 7.30936 6.01912 7.30936H14.142C14.5088 7.30936 14.806 7.01209 14.806 6.6453C14.806 6.27851 14.5088 5.98124 14.142 5.98124H6.01912C4.21966 5.98124 2.75587 7.44503 2.75587 9.24449V23.9187C1.90737 23.766 1.26172 23.022 1.26172 22.1299V8.05825C1.26172 6.10497 2.85107 4.51563 4.80461 4.51563H24.8739C25.7553 4.51563 26.4923 5.14675 26.6565 5.98124H19.4545C19.0877 5.98124 18.7904 6.27851 18.7904 6.6453C18.7904 7.01209 19.0877 7.30936 19.4545 7.30936H27.3548H27.6961C28.5724 7.30936 29.306 7.93322 29.4759 8.76019H8.67122C7.11482 8.76019 5.84843 10.0266 5.84843 11.5832V22.5387V26.7397C4.87075 26.712 4.08399 25.9081 4.08399 24.9237Z" fill="#F5941E"/>
<path d="M25.7336 12.791C24.1663 12.791 22.8916 14.066 22.8916 15.6327C22.8916 17.1998 24.1666 18.4747 25.7336 18.4747C27.3004 18.4747 28.5753 17.1998 28.5753 15.6327C28.5753 14.066 27.3004 12.791 25.7336 12.791ZM25.7336 17.1466C24.8988 17.1466 24.2197 16.4675 24.2197 15.633C24.2197 14.7983 24.8988 14.1191 25.7336 14.1191C26.5681 14.1191 27.2472 14.7983 27.2472 15.633C27.2472 16.4675 26.5681 17.1466 25.7336 17.1466Z" fill="#FFC30D"/>
<path d="M16.1854 6.89953C16.202 6.93947 16.2225 6.97787 16.2463 7.01392C16.2705 7.05024 16.2982 7.08422 16.3288 7.11483C16.3594 7.14518 16.3932 7.17319 16.4297 7.19784C16.4655 7.2217 16.5047 7.24219 16.5446 7.2588C16.5843 7.2754 16.6264 7.28811 16.6689 7.29667C16.7112 7.30523 16.755 7.30938 16.7983 7.30938C16.8422 7.30938 16.8852 7.30523 16.9286 7.29667C16.9708 7.28811 17.0121 7.2754 17.0526 7.2588C17.0925 7.24219 17.1309 7.2217 17.1669 7.19784C17.2033 7.17319 17.2372 7.14518 17.2679 7.11483C17.299 7.08422 17.3262 7.05024 17.3509 7.01392C17.3747 6.97787 17.3952 6.93947 17.4118 6.89953C17.4284 6.85906 17.4411 6.8173 17.4497 6.77553C17.4583 6.73221 17.4624 6.68837 17.4624 6.64531C17.4624 6.60199 17.4583 6.55816 17.4497 6.51587C17.4411 6.47333 17.4284 6.43131 17.4118 6.39162C17.3952 6.35116 17.3747 6.3125 17.3509 6.27671C17.3262 6.24013 17.299 6.20641 17.2679 6.1758C17.2372 6.14519 17.2033 6.11744 17.1669 6.09331C17.1309 6.06945 17.0925 6.04895 17.0526 6.03235C17.0121 6.01575 16.9708 6.00304 16.9286 5.99448C16.8427 5.9771 16.7545 5.9771 16.6689 5.99448C16.6264 6.00304 16.5843 6.01575 16.5446 6.03235C16.5047 6.04895 16.4655 6.06945 16.4297 6.09331C16.3932 6.11744 16.3594 6.14519 16.3288 6.1758C16.2982 6.20641 16.2705 6.24013 16.2463 6.27671C16.2225 6.3125 16.202 6.35116 16.1854 6.39162C16.1688 6.43131 16.1561 6.47333 16.1475 6.51587C16.1389 6.55816 16.1343 6.60199 16.1343 6.64531C16.1343 6.68837 16.1389 6.73221 16.1475 6.77553C16.1561 6.8173 16.1688 6.85906 16.1854 6.89953Z" fill="#FFC30D"/>
</g>
<defs>
<clipPath id="clip0_1_39681">
<rect width="34" height="34" fill="white"/>
</clipPath>
</defs>
</svg>
