<svg width="17" height="15" viewBox="0 0 17 15" fill="none" xmlns="http://www.w3.org/2000/svg">
<path fill-rule="evenodd" clip-rule="evenodd" d="M13.9644 7.044C13.9416 10.8888 10.8064 13.9871 6.96163 13.9644C3.11686 13.9416 0.0185243 10.8063 0.0412931 6.96155C0.0640619 3.11678 3.19932 0.0184578 7.04408 0.0412265C10.8888 0.0639953 13.9872 3.19924 13.9644 7.044ZM12.5721 7.03576C12.5539 10.1116 10.0457 12.5903 6.96987 12.572C3.89406 12.5538 1.41539 10.0456 1.43361 6.96979C1.45182 3.89398 3.96002 1.41532 7.03583 1.43354C10.1116 1.45175 12.5903 3.95994 12.5721 7.03576Z" fill="#009154"/>
<path fill-rule="evenodd" clip-rule="evenodd" d="M6.89177 8.78464L3.9436 5.56713L2.8711 6.54985L6.80198 10.8399L15.382 2.97809L14.3993 1.90559L6.89177 8.78464Z" fill="#009154"/>
</svg>
