<svg width="70" height="70" viewBox="0 0 70 70" fill="none" xmlns="http://www.w3.org/2000/svg">
<path d="M32.8417 47.768C32.8277 47.768 32.8138 47.7678 32.7998 47.7675C32.1726 47.7559 31.5776 47.4837 31.1535 47.0145L17.1966 31.5728C16.3408 30.626 16.4029 29.1542 17.3353 28.2853C18.2677 27.4167 19.7171 27.4791 20.5729 28.4261L32.9025 42.0673L64.5414 9.53868C65.4305 8.62404 66.8812 8.61494 67.7817 9.51816C68.682 10.4212 68.6914 11.8942 67.8021 12.8087L34.4721 47.0761C34.0411 47.5192 33.4537 47.768 32.8417 47.768Z" fill="#F7941E"/>
<path d="M35.0002 69.9784C16.0061 69.9784 0.553223 54.2871 0.553223 34.9998C0.553223 15.7126 16.0061 0.0214844 35.0002 0.0214844C36.2655 0.0214844 37.2916 1.06325 37.2916 2.34828C37.2916 3.63331 36.2655 4.67508 35.0002 4.67508C18.5331 4.67508 5.1361 18.2788 5.1361 34.9998C5.1361 51.7212 18.5331 65.3248 35.0002 65.3248C51.4671 65.3248 64.8641 51.721 64.8641 35C64.8641 33.715 65.8898 32.6732 67.1555 32.6732C68.4208 32.6732 69.447 33.715 69.447 35C69.447 54.2873 53.9939 69.9784 35.0002 69.9784Z" fill="#FFC000"/>
</svg>
