<svg width="70" height="70" viewBox="0 0 70 70" fill="none" xmlns="http://www.w3.org/2000/svg">
<circle cx="35" cy="35" r="35" fill="#F5EBDC"/>
<path d="M36 38.5C39.4518 38.5 42.25 35.7018 42.25 32.25C42.25 28.7982 39.4518 26 36 26C32.5482 26 29.75 28.7982 29.75 32.25C29.75 35.7018 32.5482 38.5 36 38.5Z" stroke="#F5941E" stroke-width="2" stroke-linecap="round" stroke-linejoin="round"/>
<path d="M44.75 51C44.75 48.6794 43.8281 46.4538 42.1872 44.8128C40.5462 43.1719 38.3206 42.25 36 42.25C33.6794 42.25 31.4538 43.1719 29.8128 44.8128C28.1719 46.4538 27.25 48.6794 27.25 51H44.75Z" stroke="#FFC000" stroke-width="2" stroke-linecap="round" stroke-linejoin="round"/>
<path d="M46 33.5C47.0654 33.5 48.113 33.2277 49.0435 32.7089C49.974 32.1901 50.7565 31.4421 51.3166 30.5358C51.8767 29.6296 52.1958 28.5952 52.2437 27.5309C52.2916 26.4667 52.0666 25.4078 51.5902 24.4549C51.1137 23.502 50.4016 22.6868 49.5215 22.0865C48.6413 21.4862 47.6223 21.1209 46.5613 21.0253C45.5002 20.9296 44.4323 21.1067 43.459 21.5398C42.4857 21.973 41.6392 22.6477 41 23.5" stroke="#F5941E" stroke-width="2" stroke-linecap="round" stroke-linejoin="round"/>
<path d="M47.25 46H54.75C54.75 43.6794 53.8281 41.4538 52.1872 39.8128C50.5462 38.1719 48.3206 37.25 46 37.25" stroke="#FFC000" stroke-width="2" stroke-linecap="round" stroke-linejoin="round"/>
<path d="M31 23.5C30.3608 22.6477 29.5143 21.973 28.541 21.5398C27.5677 21.1067 26.4998 20.9296 25.4387 21.0253C24.3777 21.1209 23.3587 21.4862 22.4785 22.0865C21.5984 22.6868 20.8863 23.502 20.4098 24.4549C19.9334 25.4078 19.7084 26.4667 19.7563 27.5309C19.8042 28.5952 20.1233 29.6296 20.6834 30.5358C21.2435 31.4421 22.026 32.1901 22.9565 32.7089C23.887 33.2277 24.9346 33.5 26 33.5" stroke="#F7941E" stroke-width="2" stroke-linecap="round" stroke-linejoin="round"/>
<path d="M26 37.25C23.6794 37.25 21.4538 38.1719 19.8128 39.8128C18.1719 41.4538 17.25 43.6794 17.25 46H24.75" stroke="#FFC000" stroke-width="2" stroke-linecap="round" stroke-linejoin="round"/>
</svg>
