<svg width="33" height="33" viewBox="0 0 33 33" fill="none" xmlns="http://www.w3.org/2000/svg">
<g clip-path="url(#clip0_1_39203)">
<path d="M7.55721 10.3516L3.15721 8.59162C2.81823 8.45641 2.43426 8.49812 2.13222 8.70296C1.83019 8.90781 1.64941 9.24912 1.64966 9.61407V30.4937L0.150906 32.0711C-0.000638727 32.2305 -0.0426387 32.4649 0.044119 32.667C0.130877 32.8691 0.329707 33.0001 0.549656 33.0001H32.4497C32.6696 33.0001 32.8684 32.8691 32.9552 32.667C33.042 32.4649 33 32.2305 32.8484 32.0711L31.3497 30.4937V9.61407C31.3499 9.24912 31.1691 8.90781 30.8671 8.70296C30.5651 8.49812 30.1811 8.45641 29.8421 8.59162L25.4421 10.3516C25.0225 10.517 24.7475 10.9231 24.7497 11.3741V23.5461L22.5497 21.2301V8.52507L32.7758 0.990071C32.9878 0.800622 33.0204 0.480862 32.8511 0.252481C32.6818 0.0240997 32.3664 -0.0376376 32.1235 0.110071L21.8193 7.70007H16.4997H11.1801L0.875806 0.110071C0.631987 -0.0463542 0.308632 0.0131529 0.136476 0.246131C-0.0356811 0.479108 0.00238277 0.805682 0.223506 0.992821L10.4497 8.52782V21.2301L8.24966 23.5456V11.3741C8.25181 10.9231 7.97681 10.517 7.55721 10.3516ZM2.74966 9.61297L7.14966 11.373V17.808L6.35381 18.2056C6.08194 18.3414 5.97163 18.6719 6.10741 18.9437C6.24319 19.2156 6.57364 19.3259 6.84551 19.1901L7.14966 19.04V24.705L2.74966 29.336V9.61297ZM4.86551 31.9001L12.1805 24.2001H20.8194L28.1344 31.9001H4.86551ZM29.6513 31.9001L21.4563 23.2711C21.3519 23.1613 21.2068 23.0994 21.0553 23.1001H11.944C11.7933 23.1 11.6491 23.1619 11.5453 23.2711L3.34806 31.9001H1.83061L11.2356 22.0001H21.7632L31.1682 31.9001H29.6513ZM18.6997 16.5001H18.1497C17.8459 16.5001 17.5997 16.7463 17.5997 17.0501C17.5997 17.3538 17.8459 17.6001 18.1497 17.6001H18.6997V20.9001H14.2997V12.1001H18.6997V16.5001ZM25.8497 11.3735L30.2497 9.61352V18.9085L29.9455 18.7562C29.6736 18.6204 29.3432 18.7307 29.2074 19.0026C29.0716 19.2744 29.1819 19.6049 29.4538 19.7407L30.2497 20.14V29.336L25.8497 24.7044V11.3735ZM11.5497 8.80007H21.4497V20.9001H19.7997V12.1001C19.7997 11.4926 19.3072 11.0001 18.6997 11.0001H14.2997C13.6921 11.0001 13.1997 11.4926 13.1997 12.1001V20.9001H11.5497V8.80007Z" fill="#F7941E"/>
<path d="M16.5 4.4C18.0163 4.4 19.25 3.4133 19.25 2.2C19.25 0.9867 18.0163 0 16.5 0C14.9836 0 13.75 0.9867 13.75 2.2C13.75 3.4133 14.9836 4.4 16.5 4.4ZM16.5 1.1C17.3943 1.1 18.15 1.6038 18.15 2.2C18.15 2.7962 17.3943 3.3 16.5 3.3C15.6057 3.3 14.85 2.7962 14.85 2.2C14.85 1.6038 15.6057 1.1 16.5 1.1Z" fill="#FFC30D"/>
</g>
<defs>
<clipPath id="clip0_1_39203">
<rect width="33" height="33" fill="white"/>
</clipPath>
</defs>
</svg>
