<svg width="14" height="14" viewBox="0 0 14 14" fill="none" xmlns="http://www.w3.org/2000/svg">
<path d="M8.4594 12.7617H5.53563C5.53563 12.7617 5.19647 12.8475 4.63121 12.4327C4.25437 12.0665 1.31761 8.55219 1.31761 8.55219C1.31761 8.55219 0.472962 7.50283 1.53851 7.1322C2.34417 6.85755 3.45066 8.24408 3.45066 8.24408L3.71055 8.36278C3.71055 8.36278 5.01585 8.29206 5.86504 9.37868" stroke="white" stroke-width="0.6" stroke-miterlimit="10"/>
<path d="M3.66211 8.3416V2.30428C3.66211 2.30428 3.82064 1.6268 4.56523 1.54662C5.02913 1.52894 5.40078 1.84021 5.44691 2.22473C5.44691 2.23799 5.44691 2.25124 5.44691 2.2645C5.4612 2.74499 5.47485 6.07177 5.47485 6.07177" stroke="white" stroke-width="0.6" stroke-miterlimit="10"/>
<path d="M5.44612 2.22303C5.44612 2.22303 5.31618 1.03665 6.42071 1.00003C6.92945 0.99561 7.23547 1.48494 7.26535 1.75769C7.29524 2.03045 7.24651 6.07259 7.24651 6.07259" stroke="white" stroke-width="0.6" stroke-miterlimit="10"/>
<path d="M7.27832 2.63348C7.27832 2.63348 7.53821 2.07533 8.20483 2.16688C8.38406 2.18319 8.5518 2.2598 8.67908 2.3835C8.80637 2.50719 8.88521 2.6702 8.90199 2.84436L8.89679 6.07012" stroke="white" stroke-width="0.6" stroke-miterlimit="10"/>
<path d="M8.90137 3.67199C8.96385 3.5164 9.07262 3.38242 9.21381 3.28717C9.35499 3.19192 9.52218 3.13971 9.69403 3.13721C9.86654 3.14827 10.0295 3.21808 10.1543 3.33437C10.2791 3.45066 10.3577 3.60598 10.3762 3.77301C10.4042 4.0704 10.3996 7.19134 10.3996 7.19134" stroke="white" stroke-width="0.6" stroke-miterlimit="10"/>
<path d="M12.7915 10.55C12.9067 9.19672 11.8713 8.00894 10.4787 7.89697C9.08617 7.785 7.86389 8.79124 7.74867 10.1445C7.63344 11.4977 8.66892 12.6855 10.0615 12.7975C11.454 12.9094 12.6763 11.9032 12.7915 10.55Z" fill="#AC770E" stroke="white" stroke-width="0.6" stroke-miterlimit="10"/>
<path d="M9.48195 10.2905L8.76855 9.56752L9.48195 8.84521L10.2376 9.57952L10.9815 8.85658L11.7034 9.55868L10.9997 10.2905L11.7034 11.0134L10.9997 11.73L10.2363 11.0608L9.51249 11.73L8.76855 11.0191L9.48195 10.2905Z" fill="white" stroke="#AB770E" stroke-width="0.6" stroke-miterlimit="10"/>
</svg>
