<svg width="16" height="14" viewBox="0 0 16 14" fill="none" xmlns="http://www.w3.org/2000/svg">
<path d="M15.8553 5.23205L11.7221 1.09873C11.5293 0.905891 11.2165 0.905891 11.0237 1.09873L9.01779 3.10464C8.82495 3.29748 8.82495 3.61017 9.01779 3.80302L9.39557 4.1808L8.33913 4.27336C8.2226 4.28358 8.1092 4.30755 7.99973 4.34408C7.89054 4.30764 7.77688 4.28355 7.66085 4.27336L6.60438 4.1808L6.98216 3.80302C7.17501 3.61017 7.17501 3.29748 6.98216 3.10464L4.97626 1.09873C4.78345 0.905891 4.47073 0.905891 4.27788 1.09873L0.144633 5.23205C-0.0482109 5.42486 -0.0482109 5.73758 0.144633 5.93042L2.15054 7.93633C2.34329 8.12908 2.6561 8.12914 2.84891 7.93633L3.29573 7.48952L3.3881 8.54573C3.41835 8.89217 3.57054 9.21842 3.81645 9.46433L6.79066 12.4382C7.60707 13.2546 8.46913 13.1784 9.02716 12.6204C9.29157 12.356 12.1729 9.47508 12.1838 9.46414C12.4296 9.21823 12.5817 8.89211 12.6119 8.54573L12.7043 7.48948L13.1511 7.9363C13.3439 8.12905 13.6567 8.12911 13.8495 7.9363L15.8554 5.93039C16.0482 5.73758 16.0482 5.42486 15.8553 5.23205ZM2.49973 6.88877L1.1922 5.58123L4.62713 2.14633L5.93463 3.45383C1.78866 7.5998 2.8476 6.54086 2.49973 6.88877ZM11.037 9.21248C11.037 9.21255 11.0369 9.21261 11.0369 9.21267C10.8557 9.39405 10.5623 9.39411 10.3807 9.21252C10.3804 9.2122 10.38 9.21192 10.3797 9.21161L9.5912 8.42305C9.39832 8.2302 9.08566 8.23023 8.89282 8.42305C8.69998 8.61589 8.69998 8.92858 8.89282 9.12142L9.68235 9.91095C9.68251 9.91111 9.68269 9.91123 9.68285 9.91139C9.86369 10.0928 9.86413 10.3858 9.68219 10.5674C9.50104 10.7487 9.2076 10.7488 9.02598 10.5672C9.02576 10.567 9.02551 10.5668 9.02532 10.5666L8.23644 9.77777C8.04363 9.58492 7.73091 9.58492 7.53807 9.77777C7.34523 9.97061 7.34523 10.2833 7.53807 10.4761L8.3276 11.2657C8.32769 11.2658 8.32779 11.2659 8.32791 11.266C8.50819 11.4467 8.51019 11.7398 8.3271 11.9225C8.21863 12.0312 8.06298 12.0787 7.91073 12.0495C7.74482 12.0177 7.68604 11.9369 7.48895 11.7398L4.5147 8.76589C4.43273 8.68392 4.38201 8.57517 4.37191 8.45967L4.20735 6.57792C4.41373 6.37152 5.36329 5.42173 5.69279 5.09239L7.57457 5.25727C7.68998 5.26736 7.7986 5.31802 7.88048 5.39983C8.60323 6.1223 10.8509 8.37005 11.0368 8.55605C11.2179 8.73714 11.2179 9.03164 11.037 9.21248ZM11.685 7.80742C11.5304 7.6528 9.83654 5.95883 9.07769 5.20014L10.3071 5.09242C10.6582 5.44333 11.6887 6.47411 11.7925 6.57795L11.685 7.80742ZM13.5003 6.88877C13.0377 6.42623 10.1675 3.55602 10.0654 3.45386L11.3729 2.14636L14.8078 5.5812L13.5003 6.88877Z" fill="white"/>
</svg>
