<svg width="34" height="26" viewBox="0 0 34 26" fill="none" xmlns="http://www.w3.org/2000/svg">
<path d="M32.5014 9.49125L24.2973 1.28708C23.9146 0.904307 23.2939 0.904307 22.9111 1.28708L18.9296 5.26859C18.5468 5.65136 18.5468 6.27201 18.9296 6.65478L19.6795 7.40464L17.5825 7.58837C17.3512 7.60865 17.1261 7.65622 16.9089 7.72873C16.6921 7.65641 16.4665 7.60859 16.2362 7.58837L14.1393 7.40464L14.8891 6.65478C15.2719 6.27201 15.2719 5.65136 14.8891 5.26859L10.9076 1.28708C10.5249 0.904307 9.90418 0.904307 9.52141 1.28708L1.31735 9.49125C0.93458 9.87397 0.93458 10.4947 1.31735 10.8775L5.29886 14.859C5.68145 15.2415 6.30235 15.2417 6.68506 14.859L7.57193 13.9721L7.75529 16.0686C7.81533 16.7562 8.1174 17.4038 8.6055 17.8919L14.509 23.7946C16.1295 25.4151 17.8406 25.2638 18.9482 24.1564C19.473 23.6315 25.1921 17.9132 25.2137 17.8915C25.7017 17.4034 26.0035 16.7561 26.0635 16.0686L26.2469 13.972L27.1338 14.8589C27.5164 15.2415 28.1373 15.2416 28.52 14.8589L32.5015 10.8774C32.8842 10.4947 32.8842 9.87397 32.5014 9.49125ZM5.99196 12.7797L3.39665 10.1844L10.2146 3.36644L12.8099 5.96168C4.58058 14.191 6.68245 12.0891 5.99196 12.7797ZM22.9376 17.392C22.578 17.752 21.9953 17.7525 21.6349 17.3921L21.6329 17.3903L20.0678 15.825C19.6849 15.4423 19.0643 15.4423 18.6816 15.825C18.2988 16.2078 18.2988 16.8285 18.6816 17.2112L20.2487 18.7784L20.2497 18.7792C20.6086 19.1393 20.6095 19.7209 20.2484 20.0813C19.8888 20.4413 19.3064 20.4415 18.9459 20.081L18.9445 20.0798L17.3787 18.514C16.996 18.1312 16.3753 18.1312 15.9925 18.514C15.6097 18.8968 15.6097 19.5174 15.9925 19.9002L17.5597 21.4673C17.9175 21.826 17.9221 22.4084 17.5587 22.771C17.3434 22.9869 17.0344 23.0811 16.7322 23.0231C16.4029 22.96 16.2862 22.7996 15.895 22.4084L9.99145 16.5055C9.82875 16.3429 9.72808 16.127 9.70805 15.8977L9.38141 12.1627C9.79104 11.753 11.6758 9.86776 12.3298 9.21405L16.065 9.54131C16.294 9.56135 16.5096 9.66189 16.6722 9.82428C18.1067 11.2583 22.5681 15.7198 22.9372 16.089C23.2965 16.4485 23.2966 17.033 22.9376 17.392ZM24.2238 14.6031C23.917 14.2962 20.5547 10.9338 19.0485 9.42793L21.4887 9.21411C22.1857 9.91062 24.231 11.9566 24.4372 12.1627L24.2238 14.6031ZM27.8268 12.7797C26.9087 11.8616 21.2117 6.16452 21.0089 5.96175L23.6041 3.3665L30.4221 10.1843L27.8268 12.7797Z" fill="#F7941E" stroke="white" stroke-width="0.7"/>
</svg>
