<svg width="17" height="15" viewBox="0 0 17 15" fill="none" xmlns="http://www.w3.org/2000/svg">
<g clip-path="url(#clip0_1_15490)">
<path d="M14.8644 5.8426L10.9894 1.96762C10.8087 1.78683 10.5155 1.78683 10.3347 1.96762L8.45418 3.84816C8.27339 4.02895 8.27339 4.3221 8.45418 4.50289L8.80835 4.85706L7.81794 4.94384C7.70869 4.95342 7.60237 4.97589 7.49974 5.01013C7.39738 4.97597 7.29083 4.95339 7.18205 4.94384L6.19161 4.85706L6.54578 4.50289C6.72657 4.3221 6.72657 4.02895 6.54578 3.84816L4.66524 1.96762C4.48448 1.78683 4.19131 1.78683 4.01052 1.96762L0.135593 5.8426C-0.0451978 6.02337 -0.0451978 6.31654 0.135593 6.49733L2.01613 8.37787C2.19683 8.55857 2.4901 8.55863 2.67086 8.37787L3.08974 7.95898L3.17635 8.94919C3.2047 9.27397 3.34738 9.57983 3.57792 9.81037L6.36625 12.5983C7.13163 13.3637 7.93981 13.2923 8.46297 12.7692C8.71085 12.5213 11.412 9.82045 11.4223 9.81019C11.6528 9.57965 11.7953 9.27391 11.8237 8.94919L11.9103 7.95895L12.3292 8.37784C12.5099 8.55854 12.8031 8.5586 12.9839 8.37784L14.8644 6.4973C15.0452 6.31654 15.0452 6.02337 14.8644 5.8426ZM2.34349 7.39578L1.11768 6.16997L4.33794 2.94974L5.56372 4.17552C1.67687 8.06237 2.66963 7.06962 2.34349 7.39578ZM10.3472 9.57426C10.3472 9.57432 10.3471 9.57438 10.347 9.57444C10.1772 9.74448 9.90217 9.74454 9.73193 9.57429C9.73164 9.574 9.73129 9.57374 9.73099 9.57344L8.99174 8.83417C8.81093 8.65338 8.51781 8.65341 8.33702 8.83417C8.15623 9.01496 8.15623 9.3081 8.33702 9.48889L9.0772 10.2291C9.07735 10.2292 9.07753 10.2293 9.07767 10.2295C9.24721 10.3995 9.24762 10.6743 9.07706 10.8445C8.90722 11.0145 8.63213 11.0146 8.46185 10.8443C8.46165 10.8441 8.46141 10.844 8.46124 10.8438L7.72167 10.1042C7.5409 9.92342 7.24773 9.92342 7.06694 10.1042C6.88615 10.285 6.88615 10.5782 7.06694 10.7589L7.80713 11.4991C7.80721 11.4992 7.8073 11.4993 7.80742 11.4994C7.97643 11.6688 7.97831 11.9436 7.80666 12.1149C7.70497 12.2168 7.55904 12.2613 7.41631 12.234C7.26077 12.2041 7.20566 12.1284 7.02089 11.9436L4.23253 9.15558C4.15568 9.07874 4.10813 8.97678 4.09867 8.8685L3.94439 7.10436C4.13787 6.91086 5.02808 6.02044 5.33699 5.71168L7.10116 5.86625C7.20935 5.87571 7.31119 5.9232 7.38795 5.9999C8.06553 6.67721 10.1727 8.78448 10.347 8.95885C10.5167 9.12863 10.5168 9.40472 10.3472 9.57426ZM10.9547 8.25702C10.8098 8.11206 9.22176 6.52396 8.51034 5.81269L9.66288 5.71171C9.99209 6.04068 10.9581 7.00704 11.0555 7.10439L10.9547 8.25702ZM12.6565 7.39578C12.2229 6.96216 9.53204 4.27133 9.43627 4.17555L10.662 2.94977L13.8823 6.16994L12.6565 7.39578Z" fill="white"/>
</g>
<path d="M11.9361 11.47H13.4061V9.98H14.6161V11.47H16.1061V12.58H14.6161V14.08H13.4061V12.58H11.9361V11.47Z" fill="white"/>
<defs>
<clipPath id="clip0_1_15490">
<rect width="15" height="15" fill="white"/>
</clipPath>
</defs>
</svg>
