<svg width="40" height="40" viewBox="0 0 40 40" fill="none" xmlns="http://www.w3.org/2000/svg">
<path d="M25.3333 25.4008V19.3335C25.3333 18.2308 24.436 17.3335 23.3333 17.3335H4.66667C3.564 17.3335 2.66667 18.2308 2.66667 19.3335V25.4008C1.14733 25.7108 0 27.0575 0 28.6668V32.6668V39.3335C0 39.7015 0.298667 40.0002 0.666667 40.0002H3.33333C3.70133 40.0002 4 39.7015 4 39.3335V37.3335H24V39.3335C24 39.7015 24.2987 40.0002 24.6667 40.0002H27.3333C27.7013 40.0002 28 39.7015 28 39.3335V32.6668V28.6668C28 27.0575 26.8527 25.7108 25.3333 25.4008ZM4 19.3335C4 18.9662 4.29933 18.6668 4.66667 18.6668H23.3333C23.7007 18.6668 24 18.9662 24 19.3335V25.3335H22.6667V22.6668C22.6667 21.5642 21.7693 20.6668 20.6667 20.6668H16.6667C15.564 20.6668 14.6667 21.5642 14.6667 22.6668V25.3335H13.3333V22.6668C13.3333 21.5642 12.436 20.6668 11.3333 20.6668H7.33333C6.23067 20.6668 5.33333 21.5642 5.33333 22.6668V25.3335H4V19.3335ZM21.3333 22.6668V25.3335H16V22.6668C16 22.2995 16.2993 22.0002 16.6667 22.0002H20.6667C21.034 22.0002 21.3333 22.2995 21.3333 22.6668ZM12 22.6668V25.3335H6.66667V22.6668C6.66667 22.2995 6.966 22.0002 7.33333 22.0002H11.3333C11.7007 22.0002 12 22.2995 12 22.6668ZM26.6667 38.6668H25.3333V36.6668C25.3333 36.2988 25.0347 36.0002 24.6667 36.0002H3.33333C2.96533 36.0002 2.66667 36.2988 2.66667 36.6668V38.6668H1.33333V33.3335H26.6667V38.6668ZM26.6667 32.0002H1.33333V28.6668C1.33333 27.5642 2.23067 26.6668 3.33333 26.6668H6H12.6667H15.3333H22H24.6667C25.7693 26.6668 26.6667 27.5642 26.6667 28.6668V32.0002Z" fill="#F7941E"/>
<path d="M39.3335 25.3335H30.0002C29.6322 25.3335 29.3335 25.6322 29.3335 26.0002V31.3335V36.0002H30.6668V32.0002H38.6668V36.0002H40.0002V31.3335V26.0002C40.0002 25.6322 39.7015 25.3335 39.3335 25.3335ZM38.6668 30.6668H30.6668V26.6668H38.6668V30.6668Z" fill="#F7941E"/>
<path d="M36.0002 28H33.3335V29.3333H36.0002V28Z" fill="#FFC30D"/>
<path d="M37.9659 19.7888L36.6326 15.7888C36.5412 15.5168 36.2872 15.3335 35.9999 15.3335H33.3332C33.0459 15.3335 32.7919 15.5168 32.7006 15.7895L31.3672 19.7895C31.2992 19.9928 31.3339 20.2162 31.4592 20.3902C31.5846 20.5642 31.7859 20.6668 31.9999 20.6668H33.9999V22.6668H32.6666V24.0002H36.6666V22.6668H35.3332V20.6668H37.3332C37.5472 20.6668 37.7486 20.5642 37.8739 20.3895C37.9992 20.2155 38.0332 19.9922 37.9659 19.7888ZM32.9246 19.3335L33.8139 16.6668H35.5199L36.4086 19.3335H32.9246Z" fill="#FFC30D"/>
</svg>
