<svg width="58" height="78" viewBox="0 0 58 78" fill="none" xmlns="http://www.w3.org/2000/svg">
<path d="M36.2501 7.85254H4.948V10.3522H36.2501V7.85254Z" fill="#F7941E"/>
<path d="M52.5522 12.6436H4.948V15.1432H52.5522V12.6436Z" fill="#F7941E"/>
<path d="M47.448 17.7471H4.948V20.2467H47.448V17.7471Z" fill="#F7941E"/>
<path d="M52.5518 18.0596H50.0518V20.3509H52.5518V18.0596Z" fill="#F7941E"/>
<path d="M32.7079 47.7434C32.3973 47.7434 32.0858 47.6369 31.8314 47.4211L28.7671 44.8179L26.0291 47.3782C25.5068 47.8671 24.6943 47.865 24.1743 47.3739L20.4243 43.8327C19.8887 43.3267 19.8558 42.4855 20.3504 41.9396L23.0058 39.0073L20.3629 36.1676C19.8585 35.6256 19.8829 34.7789 20.4179 34.2671L24.0637 30.7779C24.5818 30.2826 25.3964 30.2763 25.9218 30.7644L28.7479 33.3899L31.5179 30.7725C32.0423 30.2774 32.8633 30.2795 33.3843 30.7781L37.0302 34.2673C37.5646 34.7787 37.59 35.6242 37.0866 36.1662L34.5623 38.8877L37.1356 41.9827C37.5752 42.5118 37.5483 43.2869 37.0729 43.7837L33.6875 47.3249C33.4221 47.6024 33.0656 47.7434 32.7079 47.7434ZM23.2479 42.7743L25.1087 44.5317L27.7989 42.016C28.3016 41.5459 29.0762 41.5278 29.6008 41.9731L32.6118 44.5311L34.2806 42.7857L31.7189 39.7042C31.2841 39.1808 31.305 38.4163 31.7675 37.9178L34.1939 35.3017L32.4416 33.6246L29.6856 36.2291C29.1668 36.7194 28.3564 36.723 27.8337 36.237L25.0135 33.6169L23.2548 35.3L25.8348 38.0724C26.3137 38.5871 26.3191 39.3826 25.8473 39.9036L23.2479 42.7743Z" fill="#F7941E"/>
<path d="M52.4479 56.2314H5V58.9394H52.4479V56.2314Z" fill="#F7941E"/>
<path d="M47.4479 61.335H5V64.0429H47.4479V61.335Z" fill="#F7941E"/>
<path d="M37.7604 66.3867H5V69.0947H37.7604V66.3867Z" fill="#F7941E"/>
<path d="M42.4479 66.3867H40V69.0947H42.4479V66.3867Z" fill="#F7941E"/>
<path d="M48.1683 38.5526C48.425 38.7784 48.7446 38.8901 49.0625 38.8901C49.4192 38.8901 49.775 38.7499 50.0402 38.4734L53.8917 34.4584L55.1092 35.9075C55.4754 36.3435 56.0754 36.5031 56.6094 36.3092C57.1442 36.1142 57.5 35.6061 57.5 35.037V1.7075C57.5 0.959685 56.8937 0.353516 56.1458 0.353516H1.35417C0.60625 0.353516 0 0.959685 0 1.7075V35.1406C0 35.6769 0.316875 36.1629 0.807708 36.3794C1.29833 36.5958 1.87104 36.502 2.26729 36.1404L3.73875 34.7973L7.72062 38.5247C8.23812 39.009 9.04146 39.0125 9.56291 38.5328L13.89 34.5525L14.021 34.664C13.6627 35.9261 13.4621 37.2532 13.4435 38.6241C13.3294 38.6828 13.2217 38.7584 13.1244 38.8519L8.70562 43.1003L4.85125 38.9113C4.58646 38.6234 4.21021 38.4655 3.81917 38.4745C3.42833 38.4847 3.06083 38.6634 2.81146 38.9648L0.311457 41.9853C0.110416 42.2282 0.000416438 42.5335 0.000416438 42.8487V76.3859C0.000416438 77.1337 0.606666 77.7399 1.35458 77.7399H46.4587C46.8254 77.7399 47.1762 77.5912 47.4315 77.3277L57.119 67.329C57.3635 67.0765 57.5004 66.7387 57.5004 66.3872V42.8487C57.5004 42.4896 57.3577 42.1453 57.104 41.8911L54.7081 39.4956C54.1998 38.9873 53.3827 38.9648 52.8469 39.4446L48.7735 43.0933L44.2625 38.843C44.1987 38.7832 44.1302 38.7311 44.059 38.6857C44.0454 37.3186 43.8506 35.9942 43.499 34.7342L43.6956 34.6185L48.1683 38.5526ZM41.3546 38.838C41.3546 45.7869 35.7002 51.4405 28.7504 51.4405C21.8004 51.4405 16.1462 45.7869 16.1462 38.838C16.1462 31.8889 21.8004 26.2355 28.7504 26.2355C35.7002 26.2355 41.3546 31.8889 41.3546 38.838ZM47.6567 73.2028V67.8966H52.7977L47.6567 73.2028ZM47.8217 45.9162C48.334 46.3987 49.1302 46.4082 49.654 45.9391L53.6992 42.3157L54.7921 43.4082V65.1887H46.3025C45.5546 65.1887 44.9483 65.7948 44.9483 66.5426V75.0311H2.70875V43.3355L3.90854 41.8859L7.64958 45.9516C7.89646 46.2195 8.24063 46.3772 8.60458 46.3884C8.97125 46.3978 9.32187 46.2632 9.58479 46.0108L13.766 41.9909C15.224 48.9252 21.3879 54.148 28.7504 54.148C36.091 54.148 42.2392 48.9556 43.7204 42.0519L47.8217 45.9162ZM28.7504 23.5275C22.7673 23.5275 17.5779 26.9785 15.0598 31.9924L14.7315 31.7135C14.2104 31.2707 13.4408 31.2859 12.9377 31.7487L8.65417 35.689L4.67583 31.9652C4.15958 31.4821 3.35916 31.4771 2.83729 31.9537L2.70875 32.071V3.06149H54.7921V31.3652C54.5679 31.1903 54.2923 31.0888 54.0033 31.0792C53.6208 31.0661 53.2477 31.2177 52.9817 31.4952L48.984 35.6626L44.7496 31.9366C44.3104 31.5502 43.6723 31.4896 43.1683 31.786L42.5287 32.1622C40.0433 27.0558 34.8017 23.5275 28.7504 23.5275Z" fill="#FFC000"/>
</svg>
