<svg width="23" height="28" viewBox="0 0 23 28" fill="none" xmlns="http://www.w3.org/2000/svg">
<path d="M6.77055 5.51276C5.46665 5.51276 4.40607 4.42445 4.40607 3.08646C4.40607 1.74846 5.46665 0.660156 6.77055 0.660156C8.0736 0.660156 9.13504 1.74846 9.13504 3.08646C9.13504 4.42445 8.0736 5.51276 6.77055 5.51276ZM6.77055 1.98359C6.17771 1.98359 5.69579 2.47856 5.69579 3.08646C5.69579 3.69436 6.17771 4.18932 6.77055 4.18932C7.36339 4.18932 7.84532 3.69436 7.84532 3.08646C7.84532 2.47856 7.36339 1.98359 6.77055 1.98359Z" fill="#F7941E"/>
<path d="M16.2292 5.51276C14.9253 5.51276 13.8647 4.42445 13.8647 3.08646C13.8647 1.74846 14.9253 0.660156 16.2292 0.660156C17.5322 0.660156 18.5937 1.74846 18.5937 3.08646C18.5937 4.42445 17.5322 5.51276 16.2292 5.51276ZM16.2292 1.98359C15.6363 1.98359 15.1544 2.47856 15.1544 3.08646C15.1544 3.69436 15.6363 4.18932 16.2292 4.18932C16.822 4.18932 17.3039 3.69436 17.3039 3.08646C17.3039 2.47856 16.822 1.98359 16.2292 1.98359Z" fill="#F7941E"/>
<path d="M10.3521 12.0197H3.19288L3.02995 11.6059C2.80339 11.0302 2.68817 10.4219 2.68817 9.79811C2.68817 7.30476 4.52043 5.27637 6.77228 5.27637C9.02413 5.27637 10.8564 7.30476 10.8564 9.79811C10.8564 10.4219 10.7412 11.0302 10.5146 11.6059L10.3521 12.0197ZM4.09139 10.6963H9.45361C9.52841 10.4051 9.56711 10.1043 9.56711 9.79855C9.56711 8.03485 8.3135 6.60025 6.77271 6.60025C5.23193 6.60025 3.97832 8.03485 3.97832 9.79855C3.97832 10.1043 4.01615 10.4051 4.09139 10.6963Z" fill="#F7941E"/>
<path d="M19.8095 12.0197H12.6507L12.4878 11.6059C12.2612 11.0302 12.146 10.4219 12.146 9.79811C12.146 7.30476 13.9783 5.27637 16.2301 5.27637C18.482 5.27637 20.3142 7.30476 20.3142 9.79811C20.3142 10.4219 20.199 11.0302 19.9724 11.6059L19.8095 12.0197ZM13.5488 10.6963H18.911C18.9858 10.4051 19.0245 10.1043 19.0245 9.79855C19.0245 8.03485 17.7709 6.60025 16.2301 6.60025C14.6893 6.60025 13.4357 8.03485 13.4357 9.79855C13.4357 10.1043 13.4735 10.4051 13.5488 10.6963Z" fill="#F7941E"/>
<path d="M8.35824 27.9402L8.48507 21.5083L0 13.2973V10.6963H23V12.8606L14.4934 20.926L14.3279 23.8566L8.35824 27.9402ZM1.28972 12.726L9.78553 20.9485L9.6974 25.4341L13.0778 23.1216L13.2355 20.3172L21.7103 12.2818V12.0197H1.28972V12.726Z" fill="#FFC30D"/>
</svg>
