<svg width="9" height="13" viewBox="0 0 9 13" fill="none" xmlns="http://www.w3.org/2000/svg">
<path d="M8.15625 5.28125C8.15625 4.31155 7.77104 3.38157 7.08536 2.69589C6.39968 2.01021 5.4697 1.625 4.5 1.625C3.5303 1.625 2.60032 2.01021 1.91464 2.69589C1.22896 3.38157 0.84375 4.31155 0.84375 5.28125C0.84375 6.78113 2.04381 8.736 4.5 11.0776C6.95619 8.736 8.15625 6.78113 8.15625 5.28125ZM4.5 12.1875C1.52056 9.47944 0.03125 7.17681 0.03125 5.28125C0.03125 4.09606 0.502064 2.95942 1.34012 2.12137C2.17817 1.28331 3.31481 0.8125 4.5 0.8125C5.68519 0.8125 6.82183 1.28331 7.65988 2.12137C8.49794 2.95942 8.96875 4.09606 8.96875 5.28125C8.96875 7.17681 7.47944 9.47944 4.5 12.1875Z" fill="#F7941E"/>
<path d="M4.5 6.5C4.82323 6.5 5.13323 6.3716 5.36179 6.14304C5.59035 5.91448 5.71875 5.60448 5.71875 5.28125C5.71875 4.95802 5.59035 4.64802 5.36179 4.41946C5.13323 4.1909 4.82323 4.0625 4.5 4.0625C4.17677 4.0625 3.86677 4.1909 3.63821 4.41946C3.40965 4.64802 3.28125 4.95802 3.28125 5.28125C3.28125 5.60448 3.40965 5.91448 3.63821 6.14304C3.86677 6.3716 4.17677 6.5 4.5 6.5ZM4.5 7.3125C3.96128 7.3125 3.44462 7.09849 3.06369 6.71756C2.68276 6.33663 2.46875 5.81997 2.46875 5.28125C2.46875 4.74253 2.68276 4.22587 3.06369 3.84494C3.44462 3.46401 3.96128 3.25 4.5 3.25C5.03872 3.25 5.55538 3.46401 5.93631 3.84494C6.31724 4.22587 6.53125 4.74253 6.53125 5.28125C6.53125 5.81997 6.31724 6.33663 5.93631 6.71756C5.55538 7.09849 5.03872 7.3125 4.5 7.3125Z" fill="#F7941E"/>
</svg>
