<svg width="13" height="9" viewBox="0 0 13 9" fill="none" xmlns="http://www.w3.org/2000/svg">
<g clip-path="url(#clip0_1_31486)">
<path d="M6.49982 3.98299e-05H11.6122C11.7944 -0.0146999 11.9777 0.00954946 12.1498 0.0711694C12.3219 0.132789 12.4788 0.230362 12.6102 0.357374C12.7415 0.484385 12.8442 0.637913 12.9114 0.807708C12.9786 0.977504 13.0087 1.15966 12.9998 1.34202V7.6143C13.0136 7.7973 12.9881 7.98112 12.9251 8.15351C12.8621 8.3259 12.7631 8.4829 12.6345 8.61404C12.506 8.74517 12.3509 8.84743 12.1796 8.91399C12.0084 8.98055 11.8249 9.00989 11.6414 9.00004H1.35094C1.17102 9.00949 0.991116 8.98106 0.822904 8.91659C0.654693 8.85213 0.501931 8.75307 0.37453 8.62585C0.247129 8.49862 0.147933 8.34607 0.0833803 8.17809C0.0188273 8.0101 -0.00964127 7.83045 -0.000179261 7.65077V1.34202C-0.00867167 1.16229 0.0207678 0.982784 0.086229 0.81515C0.15169 0.647517 0.25171 0.495498 0.379801 0.368959C0.507892 0.242419 0.66119 0.144184 0.829752 0.0806289C0.998314 0.0170735 1.17837 -0.0103834 1.35825 3.98299e-05H6.49982ZM0.832405 8.36552C0.983712 8.47083 1.16719 8.51986 1.35094 8.50409H11.6341C11.6923 8.51112 11.7512 8.51112 11.8094 8.50409L12.1891 8.3874L8.53746 4.23748L8.4133 4.33959L6.72622 5.79826C6.54364 5.95871 6.456 5.95871 6.27342 5.79826L4.48409 4.25936L0.832405 8.36552ZM1.01499 0.539749L6.48522 5.36795L11.9554 0.547041C11.7875 0.474108 1.27791 0.466816 1.0296 0.539749H1.01499ZM0.511056 7.99356L4.09701 3.90928L0.620606 0.846069H0.569483C0.52625 0.996228 0.496914 1.15003 0.481843 1.30555C0.481843 3.42792 0.481843 5.55028 0.481843 7.67994C0.49092 7.78518 0.505547 7.88986 0.525663 7.99356H0.511056ZM12.4448 7.90604H12.5178C12.5178 7.81852 12.5178 7.7237 12.5178 7.62889V1.34202C12.5251 1.28878 12.5251 1.2348 12.5178 1.18156C12.5178 1.07216 12.4521 0.962763 12.4082 0.82419L8.92454 3.90198L12.4448 7.90604Z" fill="#AB7711"/>
</g>
<defs>
<clipPath id="clip0_1_31486">
<rect width="13" height="9" fill="white"/>
</clipPath>
</defs>
</svg>
