<svg width="10" height="11" viewBox="0 0 10 11" fill="none" xmlns="http://www.w3.org/2000/svg">
<path d="M5.00019 0.5C5.3285 0.5 5.65359 0.564664 5.9569 0.690301C6.26021 0.815938 6.53581 1.00009 6.76796 1.23223C7.0001 1.46438 7.18425 1.73998 7.30989 2.04329C7.43553 2.34661 7.50019 2.6717 7.50019 3V6C7.50019 6.66304 7.2368 7.29893 6.76796 7.76777C6.29912 8.23661 5.66323 8.5 5.00019 8.5C4.33715 8.5 3.70127 8.23661 3.23242 7.76777C2.76358 7.29893 2.50019 6.66304 2.50019 6V3C2.50019 2.33696 2.76358 1.70107 3.23242 1.23223C3.70127 0.763392 4.33715 0.5 5.00019 0.5ZM0.0961914 6.981L1.07719 6.7845C1.25939 7.69072 1.74971 8.50592 2.46485 9.09159C3.17999 9.67726 4.07583 9.99728 5.00019 9.99728C5.92455 9.99728 6.8204 9.67726 7.53554 9.09159C8.25068 8.50592 8.741 7.69072 8.92319 6.7845L9.90419 6.981C9.44819 9.2725 7.42519 11 5.00019 11C2.57519 11 0.552191 9.2725 0.0961914 6.981Z" fill="#F7941E"/>
</svg>
