<svg width="122" height="111" viewBox="0 0 122 111" fill="none" xmlns="http://www.w3.org/2000/svg">
<g clip-path="url(#clip0_1_42882)">
<mask id="mask0_1_42882" style="mask-type:luminance" maskUnits="userSpaceOnUse" x="-14" y="-14" width="140" height="140">
<path d="M125.142 -13.4121H-13.9048V125.338H125.142V-13.4121Z" fill="white"/>
</mask>
<g mask="url(#mask0_1_42882)">
<path d="M55.6189 111C66.6192 111 77.3726 107.745 86.5191 101.647C95.6655 95.5482 102.794 86.8802 107.004 76.739C111.214 66.5977 112.315 55.4385 110.169 44.6725C108.023 33.9066 102.726 24.0174 94.9474 16.2556C87.1689 8.49378 77.2586 3.20792 66.4696 1.06644C55.6806 -1.07504 44.4975 0.0240474 34.3345 4.22471C24.1714 8.42537 15.485 15.5389 9.37347 24.6659C3.26199 33.7928 0 44.5232 0 55.5C0 70.2195 5.85983 84.3362 16.2904 94.7444C26.721 105.153 40.8678 111 55.6189 111Z" fill="#F5EBDC"/>
<path d="M77.653 15.9844H34.7616C30.6659 15.9844 27.3457 19.2975 27.3457 23.3844V80.2858C27.3457 84.3727 30.6659 87.6858 34.7616 87.6858H77.653C81.7486 87.6858 85.0688 84.3727 85.0688 80.2858V23.3844C85.0688 19.2975 81.7486 15.9844 77.653 15.9844Z" fill="url(#paint0_linear_1_42882)"/>
<path d="M53.3478 25.2344H34.7154C33.4611 25.2344 32.4443 26.249 32.4443 27.5006C32.4443 28.7522 33.4611 29.7669 34.7154 29.7669H53.3478C54.6021 29.7669 55.6189 28.7522 55.6189 27.5006C55.6189 26.249 54.6021 25.2344 53.3478 25.2344Z" fill="#F7941E"/>
<path d="M76.5223 38.0918H34.7154C33.4611 38.0918 32.4443 39.1064 32.4443 40.358C32.4443 41.6097 33.4611 42.6243 34.7154 42.6243H76.5223C77.7766 42.6243 78.7934 41.6097 78.7934 40.358C78.7934 39.1064 77.7766 38.0918 76.5223 38.0918Z" fill="#D5D5D5"/>
<path d="M76.5223 50.9492H34.7154C33.4611 50.9492 32.4443 51.9639 32.4443 53.2155C32.4443 54.4671 33.4611 55.4817 34.7154 55.4817H76.5223C77.7766 55.4817 78.7934 54.4671 78.7934 53.2155C78.7934 51.9639 77.7766 50.9492 76.5223 50.9492Z" fill="#D5D5D5"/>
<path d="M76.5223 63.8066H34.7154C33.4611 63.8066 32.4443 64.8213 32.4443 66.0729C32.4443 67.3245 33.4611 68.3391 34.7154 68.3391H76.5223C77.7766 68.3391 78.7934 67.3245 78.7934 66.0729C78.7934 64.8213 77.7766 63.8066 76.5223 63.8066Z" fill="#D5D5D5"/>
<path d="M34.7154 76.6641H76.5223C77.1246 76.6641 77.7023 76.9028 78.1282 77.3278C78.5541 77.7528 78.7934 78.3293 78.7934 78.9303C78.7934 79.5314 78.5541 80.1078 78.1282 80.5328C77.7023 80.9578 77.1246 81.1966 76.5223 81.1966H34.7154C34.1131 81.1966 33.5354 80.9578 33.1095 80.5328C32.6836 80.1078 32.4443 79.5314 32.4443 78.9303C32.4443 78.3293 32.6836 77.7528 33.1095 77.3278C33.5354 76.9028 34.1131 76.6641 34.7154 76.6641Z" fill="#D5D5D5"/>
<path d="M119.65 8.05664H91.8038C91.1641 8.07359 90.5573 8.34323 90.1167 8.8063C89.6761 9.26938 89.4377 9.88804 89.4539 10.5264V24.2719C89.439 24.9094 89.6779 25.5269 90.1184 25.989C90.5588 26.4511 91.1649 26.7201 91.8038 26.737H119.65C120.289 26.7201 120.895 26.4511 121.336 25.989C121.776 25.5269 122.015 24.9094 122 24.2719V10.5264C122.016 9.88804 121.778 9.26938 121.337 8.8063C120.897 8.34323 120.29 8.07359 119.65 8.05664Z" fill="white"/>
<path d="M96.4059 20.3498C96.956 20.3498 97.4936 20.1871 97.951 19.8821C98.4083 19.5772 98.7647 19.1438 98.9752 18.6368C99.1857 18.1297 99.2408 17.5717 99.1334 17.0334C99.0261 16.4951 98.7613 16.0007 98.3724 15.6126C97.9834 15.2245 97.4879 14.9602 96.9485 14.8531C96.409 14.7461 95.8499 14.801 95.3417 15.011C94.8336 15.2211 94.3992 15.5768 94.0937 16.0331C93.7881 16.4894 93.625 17.026 93.625 17.5748C93.625 18.3108 93.918 19.0166 94.4395 19.537C94.961 20.0574 95.6684 20.3498 96.4059 20.3498Z" fill="#CCC6D9"/>
<path d="M105.676 14.7998H114.946C115.683 14.7998 116.391 15.0922 116.912 15.6126C117.434 16.133 117.727 16.8388 117.727 17.5748C117.727 18.3108 117.434 19.0166 116.912 19.537C116.391 20.0574 115.683 20.3498 114.946 20.3498H105.676C104.938 20.3498 104.231 20.0574 103.71 19.537C103.188 19.0166 102.895 18.3108 102.895 17.5748C102.895 16.8388 103.188 16.133 103.71 15.6126C104.231 15.0922 104.938 14.7998 105.676 14.7998Z" fill="#D5D5D5"/>
<path fill-rule="evenodd" clip-rule="evenodd" d="M71.8922 90.909C77.6348 90.9209 83.25 89.2202 88.017 86.025L106.881 103.993L113.722 96.0751L95.5209 78.736C99.2793 73.4519 101.15 67.0611 100.832 60.5891C100.515 54.1172 98.0277 47.9392 93.7701 43.0467C89.5124 38.1542 83.7311 34.8308 77.3538 33.6098C70.9765 32.3887 64.3731 33.3409 58.6031 36.3134C52.8331 39.286 48.2311 44.1066 45.5355 50.0016C42.84 55.8967 42.2072 62.5245 43.7388 68.8214C45.2703 75.1183 48.8773 80.7193 53.9811 84.7256C59.0848 88.7318 65.3893 90.9111 71.8829 90.9136L71.8922 90.909ZM96.6008 62.0027C96.6018 66.8439 95.1639 71.5766 92.4691 75.6023C89.7743 79.628 85.9436 82.7658 81.4615 84.6189C76.9794 86.4719 72.0473 86.957 67.2889 86.0128C62.5305 85.0685 58.1596 82.7374 54.7291 79.3141C51.2985 75.8909 48.9623 71.5293 48.0161 66.7811C47.0698 62.0329 47.5559 57.1113 49.413 52.6388C51.27 48.1663 54.4145 44.3438 58.4488 41.6548C62.4831 38.9657 67.226 37.5309 72.0775 37.5318C78.5815 37.5318 84.8191 40.11 89.4181 44.6992C94.0171 49.2884 96.6008 55.5126 96.6008 62.0027Z" fill="#FFC001"/>
<path d="M72.0727 86.95C86.0238 86.95 97.333 75.7668 97.333 61.975C97.333 48.1833 86.0238 37 72.0727 37C58.1217 37 46.8125 48.1833 46.8125 61.975C46.8125 75.7668 58.1217 86.95 72.0727 86.95Z" fill="white" fill-opacity="0.3"/>
<path d="M76.4389 61.9752L82.5524 55.898C82.9785 55.4495 83.2642 54.8866 83.3742 54.2783C83.4842 53.6701 83.4137 53.043 83.1715 52.4742C82.9293 51.9054 82.5259 51.4195 82.0108 51.0763C81.4957 50.7331 80.8913 50.5474 80.272 50.5422C79.4385 50.5281 78.6323 50.8383 78.024 51.4071L71.8967 57.4844L65.7833 51.4071C65.4902 51.0972 65.137 50.8501 64.745 50.681C64.3518 50.5086 63.9277 50.4173 63.4983 50.4127C63.0696 50.4043 62.6436 50.4818 62.2455 50.6407C61.8474 50.7996 61.4854 51.0366 61.1808 51.3377C60.8776 51.6377 60.6394 51.9966 60.4809 52.3922C60.3193 52.7848 60.2388 53.206 60.2444 53.6304C60.25 54.0548 60.3415 54.4737 60.5134 54.862C60.6872 55.2504 60.936 55.6009 61.2457 55.8934L67.3823 61.9752L61.255 68.0525C60.9453 68.3449 60.6965 68.6954 60.5226 69.0839C60.3507 69.4721 60.2593 69.891 60.2537 70.3154C60.2481 70.7398 60.3286 71.161 60.4902 71.5536C60.6454 71.9501 60.8805 72.3105 61.1808 72.6127C61.4854 72.9139 61.8474 73.1509 62.2455 73.3098C62.6436 73.4687 63.0696 73.5462 63.4983 73.5377C63.9262 73.5325 64.3486 73.4413 64.7404 73.2695C65.1323 73.1003 65.4856 72.8533 65.7786 72.5434L71.906 66.4661L78.0333 72.5434C78.6462 73.0786 79.44 73.3616 80.254 73.335C81.068 73.3083 81.8415 72.9741 82.4179 72.4C82.9946 71.8304 83.3297 71.0614 83.3538 70.2521C83.378 69.4428 83.0894 68.6553 82.5477 68.0525L76.4389 61.9752Z" fill="#F7941E"/>
<path d="M106.881 103.988L113.722 96.0703L114.751 97.0508C115.754 98.032 116.348 99.3556 116.413 100.756C116.478 102.156 116.01 103.529 115.103 104.599C114.665 105.113 114.127 105.533 113.522 105.833C112.916 106.134 112.256 106.309 111.581 106.347C110.907 106.378 110.234 106.271 109.604 106.032C108.973 105.794 108.398 105.428 107.914 104.96L106.885 103.979L106.881 103.988Z" fill="#EDA400"/>
<path d="M118.19 74.4621C119.726 74.4621 120.971 73.2197 120.971 71.6871C120.971 70.1545 119.726 68.9121 118.19 68.9121C116.654 68.9121 115.409 70.1545 115.409 71.6871C115.409 73.2197 116.654 74.4621 118.19 74.4621Z" fill="#E3E3E3"/>
<path fill-rule="evenodd" clip-rule="evenodd" d="M13.1537 90.8304C13.6718 90.6565 14.154 90.3901 14.5766 90.0441C15.0038 89.627 15.285 89.0838 15.3785 88.4947C15.5499 87.7547 15.6148 86.9685 15.8188 86.2285C15.8562 86.0563 15.9571 85.9045 16.1015 85.803C16.2334 85.7013 16.399 85.6534 16.565 85.6689C16.6889 85.6756 16.8086 85.7157 16.9114 85.7849C17.0143 85.8541 17.0964 85.9499 17.149 86.062C17.1792 86.1288 17.2025 86.1986 17.2185 86.2701C17.2185 86.3395 17.2185 86.5522 17.2602 86.6401C17.2973 86.8575 17.3297 87.0749 17.3622 87.2922C17.4059 87.9821 17.5624 88.6601 17.8257 89.2995C18.2567 90.2245 18.6924 90.7564 19.2764 91.0061C19.9648 91.2191 20.7016 91.2191 21.3899 91.0061L21.6356 90.9506C21.7314 90.935 21.8295 90.9389 21.9238 90.9621C22.0181 90.9853 22.1067 91.0274 22.1842 91.0857C22.2618 91.1441 22.3267 91.2175 22.375 91.3016C22.4233 91.3857 22.454 91.4787 22.4652 91.575C22.5034 91.7628 22.468 91.9582 22.3663 92.1208C22.2645 92.2834 22.1042 92.4009 21.9183 92.4491L21.6866 92.5C20.5139 92.8052 19.1605 93.8875 18.3726 94.8402C18.127 95.1362 17.7747 95.9549 17.4132 96.4775C17.2162 96.7968 16.9292 97.0509 16.5882 97.2082C16.4497 97.2538 16.3002 97.2538 16.1618 97.2082C15.9883 97.1672 15.8373 97.0612 15.74 96.9122C15.667 96.8103 15.6179 96.6934 15.5963 96.57C15.5963 96.5006 15.5963 96.3249 15.5963 96.2416C15.5221 95.978 15.4341 95.7144 15.3692 95.4461C15.1974 94.8681 14.914 94.3292 14.5349 93.8597C14.2314 93.3898 13.7985 93.0172 13.2881 92.7867C13.0043 92.7198 12.7243 92.638 12.4492 92.5416C12.2434 92.4489 12.0786 92.2845 11.9857 92.0791C11.92 91.9343 11.8929 91.775 11.9069 91.6166C11.9247 91.4263 12.0082 91.2481 12.1433 91.1125C12.2631 91.0064 12.4084 90.9331 12.5651 90.8997C12.7134 90.8535 13.1027 90.835 13.1537 90.8304ZM16.4769 89.7851L16.5604 89.9701C17.1953 91.2975 17.8998 92.0375 18.7573 92.3936H18.7897C18.2422 92.815 17.7418 93.2942 17.2973 93.8227C17.0674 94.1538 16.8629 94.5016 16.6855 94.8634C16.4598 94.1867 16.123 93.5522 15.689 92.9856C15.3927 92.5323 15.0138 92.1385 14.572 91.8247C14.904 91.6473 15.2149 91.4332 15.499 91.1865C15.9283 90.8004 16.263 90.3209 16.4769 89.7851Z" fill="#CCC6D9"/>
</g>
</g>
<defs>
<linearGradient id="paint0_linear_1_42882" x1="56.2073" y1="15.9844" x2="56.2073" y2="87.6858" gradientUnits="userSpaceOnUse">
<stop stop-color="white"/>
<stop offset="0.72" stop-color="#FAFAFA"/>
</linearGradient>
<clipPath id="clip0_1_42882">
<rect width="122" height="111" fill="white"/>
</clipPath>
</defs>
</svg>
