<svg width="45" height="29" viewBox="0 0 45 29" fill="none" xmlns="http://www.w3.org/2000/svg">
<path d="M4.02676 0.0400391C2.0446 0.0400391 0.416656 1.67248 0.416656 3.65446V25.1383C0.416656 27.1202 2.0446 28.7484 4.02676 28.7484H40.9732C42.9554 28.7484 44.5833 27.1202 44.5833 25.1383V3.65446C44.5833 1.67248 42.9554 0.0400391 40.9732 0.0400391H4.02676ZM4.02676 2.16642H40.9732C41.8141 2.16642 42.4569 2.81375 42.4569 3.65446V25.1383C42.4569 25.979 41.8141 26.622 40.9732 26.622H4.02676C3.18587 26.622 2.54304 25.979 2.54304 25.1383V3.65446C2.54304 2.81375 3.18587 2.16642 4.02676 2.16642Z" fill="#F7941E"/>
<path d="M23.5955 6.65625C23.3027 6.65628 23.0219 6.77267 22.8148 6.97974C22.6077 7.1868 22.4914 7.46758 22.4914 7.76042V12.1986C22.4914 12.4915 22.6077 12.7723 22.8148 12.9793C23.0219 13.1864 23.3027 13.3028 23.5955 13.3028H36.8628C37.1556 13.3028 37.4364 13.1864 37.6435 12.9793C37.8506 12.7723 37.9669 12.4915 37.9669 12.1986V7.76042C37.9669 7.46758 37.8506 7.1868 37.6435 6.97974C37.4364 6.77267 37.1556 6.65628 36.8628 6.65625H23.5955ZM24.6997 8.86458H35.7586V11.0945H24.6997V8.86458Z" fill="#F7941E"/>
<path fill-rule="evenodd" clip-rule="evenodd" d="M7.04166 19.915V22.1234H20.2917V19.915H7.04166Z" fill="#F7941E"/>
<path fill-rule="evenodd" clip-rule="evenodd" d="M7.04166 15.498V17.7064H37.9583V15.498H7.04166Z" fill="#F7941E"/>
<path fill-rule="evenodd" clip-rule="evenodd" d="M7.04166 11.082V13.2904H20.2917V11.082H7.04166Z" fill="#F7941E"/>
<path fill-rule="evenodd" clip-rule="evenodd" d="M26.4508 18.8889C26.0241 18.964 25.5787 19.1032 25.1181 19.29C24.1969 19.6657 23.224 20.2254 22.4784 21.0153L24.0355 22.4818C24.464 22.028 25.2338 21.5513 25.9246 21.2698C26.1461 21.1792 26.3175 21.144 26.5026 21.0932C26.4143 21.3814 26.2937 21.6377 26.3128 22.1542C26.3316 22.6619 26.4222 23.1702 26.8045 23.6768C26.9957 23.9299 27.3033 24.1942 27.7189 24.2936C28.1345 24.3929 28.5826 24.2932 28.9136 24.1081L28.9568 24.0817L28.9999 24.0507C30.139 23.2623 30.9042 22.3237 31.6482 21.6439C31.597 21.8493 31.5351 21.9973 31.5274 22.2952C31.5124 22.8802 31.7195 23.1162 31.9458 23.3951C32.172 23.674 32.4843 23.9369 32.9292 24.0809C33.3741 24.2244 33.9641 24.1889 34.4474 23.9261C34.9307 23.662 35.3013 23.2331 35.6206 22.6667C36.3002 21.4609 37.6521 21.7221 37.6521 21.7221L37.9756 19.6044C37.9756 19.6044 35.2007 19.2705 33.8263 21.5712C33.9122 21.2021 34.0172 20.688 33.7918 20.1004C33.6276 19.6724 33.2025 19.269 32.7739 19.1429C32.3453 19.017 31.9865 19.0856 31.6956 19.1695C31.1138 19.3396 30.7034 19.6242 30.3715 19.9157C29.6915 20.5129 29.1403 21.0469 28.5643 21.5763C28.605 21.3952 28.6178 21.36 28.6721 21.1018C28.7278 20.8377 28.7928 20.5382 28.7238 20.1314C28.6549 19.7246 28.2939 19.1706 27.8138 18.9666C27.2684 18.7362 26.8762 18.8144 26.4508 18.8895L26.4508 18.8889Z" fill="#F7941E"/>
</svg>
