<svg width="31" height="31" viewBox="0 0 31 31" fill="none" xmlns="http://www.w3.org/2000/svg">
<mask id="mask0_1_39621" style="mask-type:luminance" maskUnits="userSpaceOnUse" x="0" y="0" width="31" height="31">
<path d="M0 0H31V31H0V0Z" fill="white"/>
</mask>
<g mask="url(#mask0_1_39621)">
<path fill-rule="evenodd" clip-rule="evenodd" d="M5.78999 30.0918C5.505 30.0918 5.27395 29.8605 5.27395 29.5752C5.27395 29.3244 5.07085 29.1211 4.82032 29.1211C4.56979 29.1211 4.3667 29.3244 4.3667 29.5752C4.3667 30.3621 5.00394 31 5.78999 31H28.0926C28.8787 31 29.516 30.3621 29.516 29.5752V5.70969C29.516 5.33175 29.3659 4.96939 29.0992 4.70223L24.8186 0.417322C24.5516 0.150103 24.1896 0 23.8121 0H5.78999C5.00394 0 4.3667 0.637911 4.3667 1.42479V16.9562C4.3667 17.207 4.56979 17.4103 4.82032 17.4103C5.07085 17.4103 5.27395 17.207 5.27395 16.9562V1.42479C5.27395 1.1395 5.505 0.908203 5.78999 0.908203H23.8121C23.949 0.908203 24.0803 0.962626 24.1771 1.05953L28.4575 5.34432C28.4576 5.34434 28.4576 5.34436 28.4576 5.34438C28.5544 5.44134 28.6087 5.57277 28.6087 5.70969V29.5752C28.6087 29.8605 28.3777 30.0918 28.0926 30.0918H5.78999Z" fill="#F5941E"/>
<path fill-rule="evenodd" clip-rule="evenodd" d="M24.2483 5.37305C24.2312 5.37305 24.2173 5.35897 24.2173 5.34161V0.456815C24.2173 0.204404 24.0155 -0.000214577 23.7666 -0.000214577C23.5177 -0.000214577 23.3159 0.204404 23.3159 0.456815V5.34161C23.3159 5.86379 23.7334 6.28711 24.2483 6.28711H29.0652C29.3141 6.28711 29.5159 6.08249 29.5159 5.83008C29.5159 5.57767 29.3141 5.37305 29.0652 5.37305H24.2483Z" fill="#F5941E"/>
<path fill-rule="evenodd" clip-rule="evenodd" d="M14.3347 25.6733C14.5829 25.6733 14.7842 25.4683 14.7842 25.2154V21.7864H15.8809C16.1291 21.7864 16.3303 21.5814 16.3303 21.3285C16.3303 21.0755 16.1291 20.8705 15.8809 20.8705H14.3347C14.0865 20.8705 13.8853 21.0755 13.8853 21.3285V25.2154C13.8853 25.4683 14.0865 25.6733 14.3347 25.6733Z" fill="#FFC30D"/>
<path fill-rule="evenodd" clip-rule="evenodd" d="M13.8853 23.2284C13.8853 23.4696 14.0896 23.665 14.3416 23.665H15.7867C16.0387 23.665 16.243 23.4696 16.243 23.2284C16.243 22.9873 16.0387 22.7918 15.7867 22.7918H14.3416C14.0896 22.7918 13.8853 22.9873 13.8853 23.2284Z" fill="#FFC30D"/>
<path fill-rule="evenodd" clip-rule="evenodd" d="M9.86777 25.5859C10.1089 25.5859 10.3044 25.3819 10.3044 25.1302V21.4136C10.3044 21.1618 10.1089 20.9578 9.86777 20.9578C9.62663 20.9578 9.43115 21.1618 9.43115 21.4136V25.1302C9.43115 25.3819 9.62663 25.5859 9.86777 25.5859Z" fill="black"/>
<path fill-rule="evenodd" clip-rule="evenodd" d="M9.89412 25.5859L9.89241 25.1365L9.43884 25.1381C9.43927 25.2573 9.48748 25.3715 9.57287 25.4555C9.65825 25.5395 9.77381 25.5864 9.89412 25.5859ZM9.88473 21.4072L9.43115 21.4081C9.43092 21.2887 9.47861 21.1742 9.56369 21.0897C9.64878 21.0052 9.76428 20.9578 9.88473 20.9578H10.9507C11.5959 20.9578 12.1099 21.235 12.4495 21.6851C12.7782 22.1208 12.9241 22.6899 12.9241 23.2719C12.9241 24.4352 12.2477 25.5559 10.9898 25.5777C10.8347 25.5803 10.5597 25.5824 10.3259 25.5838C10.2084 25.5845 10.1005 25.585 10.022 25.5854C9.98271 25.5856 9.95076 25.5857 9.92863 25.5858L9.89412 25.5859C9.89411 25.5859 9.89412 25.5859 9.89241 25.1365C9.43884 25.1381 9.43884 25.1381 9.43884 25.1381L9.43807 24.9189C9.43761 24.7841 9.437 24.599 9.43639 24.3977C9.43516 23.9954 9.43393 23.5275 9.43393 23.2677C9.43393 23.0555 9.43324 22.5908 9.43254 22.1787C9.4322 21.9728 9.43185 21.7801 9.43159 21.6389L9.43115 21.4081C9.43115 21.4081 9.43115 21.4081 9.88473 21.4072ZM10.3444 24.6848C10.3442 24.5954 10.3438 24.4973 10.3435 24.395C10.3423 23.9924 10.3411 23.5259 10.3411 23.2677C10.3411 23.0546 10.3404 22.589 10.3397 22.1772C10.3395 22.0643 10.3393 21.9553 10.3391 21.8567H10.9507C11.307 21.8567 11.5529 21.998 11.7229 22.2233C11.9038 22.463 12.017 22.8263 12.017 23.2719C12.017 24.1636 11.5423 24.6691 10.9739 24.6789C10.83 24.6814 10.5734 24.6834 10.3444 24.6848Z" fill="#FFC30D"/>
<path fill-rule="evenodd" clip-rule="evenodd" d="M5.76426 25.6733C6.00539 25.6733 6.20088 25.4695 6.20088 25.2181V21.3257C6.20088 21.0743 6.00539 20.8705 5.76426 20.8705C5.52312 20.8705 5.32764 21.0743 5.32764 21.3257V25.2181C5.32764 25.4695 5.52312 25.6733 5.76426 25.6733Z" fill="#FFC30D"/>
<path fill-rule="evenodd" clip-rule="evenodd" d="M5.79764 24.0142L5.79476 23.5543L5.33524 23.5571C5.33598 23.6791 5.38512 23.7958 5.47184 23.8815C5.55856 23.9672 5.67575 24.0149 5.79764 24.0142ZM5.78716 21.3303L5.32764 21.3318C5.32725 21.2096 5.3755 21.0922 5.46172 21.0057C5.54794 20.9191 5.66504 20.8705 5.78716 20.8705H6.88121C7.73574 20.8705 8.4713 21.5616 8.4713 22.4399C8.4713 23.3182 7.73574 24.0093 6.88121 24.0093C6.73076 24.0093 6.46037 24.0105 6.2265 24.0117C6.1098 24.0123 6.00257 24.0129 5.92451 24.0134L5.79764 24.0142C5.79764 24.0142 5.79764 24.0142 5.79476 23.5543C5.33524 23.5571 5.33524 23.5571 5.33524 23.5571L5.33448 23.4263C5.33402 23.3459 5.3334 23.2354 5.33279 23.1153C5.33157 22.8755 5.33033 22.5957 5.33033 22.4399C5.33033 22.3138 5.32966 22.0371 5.32899 21.7912C5.32865 21.6684 5.32831 21.5536 5.32806 21.4694L5.32764 21.3318C5.32764 21.3318 5.32764 21.3318 5.78716 21.3303ZM6.25174 23.0919C6.25054 22.8561 6.24939 22.589 6.24939 22.4399C6.24939 22.3125 6.24872 22.0353 6.24804 21.7902H6.88121C7.25148 21.7902 7.55224 22.0925 7.55224 22.4399C7.55224 22.7872 7.25148 23.0896 6.88121 23.0896C6.73447 23.0896 6.47815 23.0907 6.25174 23.0919Z" fill="#FFC30D"/>
<path fill-rule="evenodd" clip-rule="evenodd" d="M16.6928 3.5279C16.495 3.27649 16.213 3.12508 15.8794 3.10708H15.8794C15.5205 3.08773 15.1795 3.13614 14.8856 3.28871C14.5807 3.44694 14.3691 3.69545 14.2472 3.99381C14.0209 4.54772 14.1137 5.24191 14.3096 5.90334C14.5057 6.56556 14.8428 7.31561 15.2711 8.0915C14.9546 9.10541 14.5412 10.2015 14.0735 11.2677C13.7732 11.9523 13.4539 12.6167 13.1279 13.2329C12.2932 13.4975 11.528 13.7972 10.8959 14.1245C10.2404 14.4639 9.66355 14.8653 9.32406 15.3402C9.14883 15.5853 9.02242 15.8703 9.0023 16.1885C8.98182 16.5126 9.07485 16.8211 9.25601 17.1002L9.72842 16.7949L9.25601 17.1002C9.43403 17.3744 9.67204 17.5981 9.98242 17.7083C10.2956 17.8196 10.6106 17.7898 10.892 17.6894C11.4215 17.5004 11.9269 17.0291 12.3816 16.4792C12.8851 15.8704 13.4021 15.0706 13.8991 14.172C14.6471 13.9524 15.4539 13.7584 16.2739 13.5983C17.2581 13.4061 18.2445 13.2662 19.1519 13.1887C19.6595 13.6787 20.1649 14.1007 20.6448 14.4197C21.2406 14.8157 21.8868 15.1144 22.4932 15.0914C22.8153 15.0791 23.1267 14.9755 23.39 14.754C23.6472 14.5376 23.8216 14.2399 23.9338 13.8982L23.9338 13.8982C24.0314 13.6013 24.0267 13.2868 23.8761 12.9982C23.7342 12.7263 23.497 12.5432 23.2569 12.4185C22.7875 12.1746 22.1253 12.0602 21.4094 12.0169C20.8631 11.9838 20.2443 11.9902 19.5831 12.0309C18.975 11.4053 18.3573 10.673 17.7817 9.89815C17.3023 9.25286 16.8623 8.59177 16.4879 7.95443C16.6539 7.38261 16.7885 6.83745 16.8836 6.33792C17.0288 5.57527 17.0928 4.8664 17.0064 4.31855C16.963 4.04395 16.8744 3.75862 16.6928 3.5279ZM18.1704 12.1613C17.7233 11.6578 17.2867 11.118 16.8773 10.5669C16.5841 10.1723 16.3014 9.76701 16.0359 9.3597C15.7622 10.1401 15.4461 10.9399 15.1048 11.718C14.9418 12.0895 14.7721 12.4583 14.5974 12.8196C15.0778 12.7 15.5678 12.5917 16.0577 12.4961C16.7636 12.3583 17.4774 12.245 18.1704 12.1613ZM20.7693 13.1192C20.9691 13.1208 21.1602 13.127 21.3413 13.1379C22.019 13.179 22.4849 13.2836 22.737 13.4146C22.8275 13.4616 22.8624 13.4977 22.8734 13.5113C22.8725 13.5184 22.8701 13.5303 22.8641 13.5485M22.8736 13.5027C22.8735 13.5028 22.8734 13.5042 22.8739 13.5067C22.874 13.5038 22.8738 13.5025 22.8736 13.5027ZM20.7693 13.1192C20.9402 13.255 21.1072 13.3776 21.2689 13.485C21.8142 13.8475 22.2105 13.9782 22.4504 13.9691C22.5516 13.9652 22.6144 13.9374 22.6643 13.8954C22.7201 13.8484 22.7977 13.7507 22.8641 13.5485M12.2537 14.7382C12.0027 15.1271 11.7541 15.4734 11.5133 15.7644C11.0845 16.283 10.7414 16.5504 10.5129 16.6319C10.4152 16.6668 10.3738 16.6552 10.36 16.6503C10.3434 16.6444 10.2839 16.6176 10.2008 16.4896L10.2008 16.4896C10.1331 16.3853 10.1224 16.3123 10.1258 16.2592C10.1295 16.2003 10.1545 16.1127 10.2405 15.9923C10.4237 15.7361 10.8091 15.4348 11.4145 15.1213C11.6685 14.9898 11.9499 14.8618 12.2537 14.7382ZM15.7115 6.45234C15.5775 6.14493 15.4687 5.8538 15.3892 5.58512C15.2087 4.97574 15.2151 4.60012 15.2897 4.41772C15.3182 4.34792 15.3538 4.31165 15.4051 4.28505C15.4667 4.25308 15.589 4.21696 15.8123 4.22821C15.8313 4.25626 15.869 4.33237 15.8943 4.49314C15.9501 4.84658 15.9159 5.40209 15.7776 6.12834C15.7575 6.23391 15.7355 6.34198 15.7115 6.45234Z" fill="#F5941E"/>
<path fill-rule="evenodd" clip-rule="evenodd" d="M3.39152 27.2087C2.83949 27.2087 2.39193 26.7594 2.39193 26.2052V19.0853C2.68253 19.2654 3.02494 19.3693 3.39152 19.3693H18.4023C18.687 19.3693 18.9178 19.6009 18.9178 19.8867V26.6913C18.9178 26.977 18.687 27.2087 18.4023 27.2087H3.39152ZM1.48584 17.4564V26.2052C1.48584 27.2617 2.33905 28.1182 3.39152 28.1182H18.4023C19.1874 28.1182 19.8239 27.4793 19.8239 26.6913V19.8867C19.8239 19.0986 19.1874 18.4598 18.4023 18.4598H3.39152C2.83947 18.4598 2.39193 18.0106 2.39193 17.4564C2.39193 16.9023 2.83948 16.453 3.39152 16.453H4.84422C5.09443 16.453 5.29726 16.2494 5.29726 15.9983C5.29726 15.7471 5.09443 15.5435 4.84422 15.5435H3.39152C2.33906 15.5435 1.48584 16.4 1.48584 17.4564Z" fill="#F5941E"/>
</g>
</svg>
