<svg width="40" height="40" viewBox="0 0 40 40" fill="none" xmlns="http://www.w3.org/2000/svg">
<path d="M20 22.5C23.4518 22.5 26.25 19.7018 26.25 16.25C26.25 12.7982 23.4518 10 20 10C16.5482 10 13.75 12.7982 13.75 16.25C13.75 19.7018 16.5482 22.5 20 22.5Z" stroke="#F5941E" stroke-width="2" stroke-linecap="round" stroke-linejoin="round"/>
<path d="M28.75 35C28.75 32.6794 27.8281 30.4538 26.1872 28.8128C24.5462 27.1719 22.3206 26.25 20 26.25C17.6794 26.25 15.4538 27.1719 13.8128 28.8128C12.1719 30.4538 11.25 32.6794 11.25 35H28.75Z" stroke="#FFC000" stroke-width="2" stroke-linecap="round" stroke-linejoin="round"/>
<path d="M30 17.5C31.0654 17.5 32.113 17.2277 33.0435 16.7089C33.974 16.1901 34.7565 15.4421 35.3166 14.5358C35.8767 13.6296 36.1958 12.5952 36.2437 11.5309C36.2916 10.4667 36.0666 9.4078 35.5902 8.45492C35.1137 7.50204 34.4016 6.68676 33.5215 6.0865C32.6413 5.48624 31.6223 5.12093 30.5613 5.02526C29.5002 4.92958 28.4323 5.10672 27.459 5.53985C26.4857 5.97298 25.6392 6.64772 25 7.5" stroke="#F5941E" stroke-width="2" stroke-linecap="round" stroke-linejoin="round"/>
<path d="M31.25 30H38.75C38.75 27.6794 37.8281 25.4538 36.1872 23.8128C34.5462 22.1719 32.3206 21.25 30 21.25" stroke="#FFC000" stroke-width="2" stroke-linecap="round" stroke-linejoin="round"/>
<path d="M15 7.5C14.3608 6.64772 13.5143 5.97298 12.541 5.53985C11.5677 5.10672 10.4998 4.92958 9.43872 5.02526C8.37767 5.12093 7.35869 5.48624 6.47853 6.0865C5.59838 6.68676 4.88627 7.50204 4.40983 8.45492C3.93339 9.4078 3.70843 10.4667 3.75632 11.5309C3.8042 12.5952 4.12334 13.6296 4.68343 14.5358C5.24352 15.4421 6.02597 16.1901 6.95647 16.7089C7.88698 17.2277 8.93465 17.5 10 17.5" stroke="#F7941E" stroke-width="2" stroke-linecap="round" stroke-linejoin="round"/>
<path d="M10 21.25C7.67936 21.25 5.45376 22.1719 3.81282 23.8128C2.17187 25.4538 1.25 27.6794 1.25 30H8.75" stroke="#FFC000" stroke-width="2" stroke-linecap="round" stroke-linejoin="round"/>
</svg>
