<svg width="15" height="15" viewBox="0 0 15 15" fill="none" xmlns="http://www.w3.org/2000/svg">
<path d="M8.03968 14.428C7.83298 14.4423 7.6502 14.463 7.46653 14.4663C6.72507 14.4796 5.98331 14.5048 5.24243 14.4914C4.70796 14.482 4.17379 14.4292 3.64139 14.3756C3.22356 14.3335 2.80661 14.2742 2.3938 14.1978C1.74594 14.0778 1.11905 13.8932 0.577495 13.4923C0.221084 13.2288 0.00552462 12.8895 0.00493405 12.4335C0.00493405 12.1461 -0.0322721 11.8492 0.097654 11.5822C0.204252 11.3626 0.325025 11.1395 0.484184 10.9575C0.974065 10.3987 1.57674 9.9797 2.24232 9.65938C2.83289 9.3755 3.42878 9.10407 4.02821 8.84065C4.29397 8.7236 4.55087 8.3046 4.51189 7.92887C4.47439 7.57121 4.24171 7.36349 4.05804 7.10866C3.60195 6.48317 3.27451 5.77281 3.09481 5.01902C3.0027 4.6167 2.94442 4.20733 2.92059 3.79522C2.89006 3.30993 2.93348 2.82281 3.04934 2.35067C3.20141 1.71743 3.50319 1.16154 3.99662 0.731282C4.44273 0.340693 4.99755 0.0969092 5.58615 0.0328581C6.17377 -0.0367768 6.74958 -0.00418201 7.30531 0.212724C7.62035 0.338306 7.91258 0.515216 8.1702 0.73632C8.48261 0.998858 8.7091 1.32125 8.88509 1.67891C9.07501 2.06057 9.18933 2.47558 9.22171 2.90093C9.23648 3.09976 9.27782 3.29829 9.27546 3.49653C9.27393 3.77484 9.2537 4.05272 9.21492 4.3283C9.15045 4.7924 9.03478 5.24787 8.87003 5.68633C8.65713 6.24015 8.40466 6.77412 8.0075 7.2183C7.78308 7.46691 7.68268 7.75078 7.65817 8.07022C7.65049 8.16533 7.64902 8.27764 7.69184 8.35646C7.77363 8.50669 7.69184 8.603 7.61831 8.70375C7.25844 9.20327 7.00934 9.77434 6.88777 10.3785C6.78024 10.9102 6.76814 11.4569 6.85204 11.9929C6.97015 12.8004 7.31033 13.5041 7.79341 14.1459C7.86517 14.2402 7.94992 14.3255 8.03968 14.428Z" fill="white"/>
<path d="M11.3221 15.0012C9.24802 14.9663 7.63103 13.3801 7.63428 11.2943C7.63694 9.21355 9.24064 7.59742 11.3271 7.60157C13.3941 7.60602 15.007 9.21295 15.0002 11.3142C14.9937 13.3836 13.3882 14.9609 11.3221 15.0012Z" fill="#2DA502"/>
<path d="M9.09668 11.4328L9.80537 10.7341L10.7866 11.7561L12.755 9.77637L13.4666 10.4991L10.8126 13.1618L9.09668 11.4328Z" fill="white"/>
</svg>
