<svg width="10" height="11" viewBox="0 0 10 11" fill="none" xmlns="http://www.w3.org/2000/svg">
<path fill-rule="evenodd" clip-rule="evenodd" d="M4.85968 5.39992C6.35079 5.39992 7.5597 4.19112 7.5597 2.70001C7.5597 1.2088 6.35079 0 4.85968 0C3.36858 0 2.15967 1.2088 2.15967 2.70001C2.15967 4.19112 3.36858 5.39992 4.85968 5.39992ZM4.85968 4.31993C5.75441 4.31993 6.4796 3.59463 6.4796 2.70001C6.4796 1.80529 5.75441 1.07999 4.85968 1.07999C3.96496 1.07999 3.23966 1.80529 3.23966 2.70001C3.23966 3.59463 3.96496 4.31993 4.85968 4.31993Z" fill="white"/>
<path fill-rule="evenodd" clip-rule="evenodd" d="M0 10.7998C0 8.11574 2.17591 5.93994 4.85989 5.93994C7.54386 5.93994 9.71977 8.11585 9.71977 10.7998H0ZM4.85989 7.01979C3.1475 7.01979 1.70106 8.15835 1.23639 9.71981H8.48311C8.01844 8.15835 6.572 7.01979 4.85961 7.01979H4.85989Z" fill="white"/>
</svg>
