<svg width="15" height="15" viewBox="0 0 15 15" fill="none" xmlns="http://www.w3.org/2000/svg">
<path d="M8.03907 14.4269C7.83238 14.4412 7.64961 14.4619 7.46596 14.4652C6.72455 14.4785 5.98285 14.5037 5.24203 14.4903C4.7076 14.4809 4.17347 14.4281 3.64111 14.3745C3.22331 14.3324 2.8064 14.2732 2.39362 14.1967C1.74581 14.0767 1.11896 13.8921 0.57745 13.4912C0.221067 13.2278 0.0055242 12.8886 0.00493367 12.4326C0.00493367 12.1452 -0.0322696 11.8483 0.0976465 11.5813C0.204237 11.3617 0.325 11.1386 0.484147 10.9567C0.97399 10.3979 1.57662 9.97893 2.24215 9.65863C2.83268 9.37478 3.42852 9.10337 4.0279 8.83997C4.29364 8.72293 4.55052 8.30397 4.51155 7.92826C4.47405 7.57063 4.24138 7.36293 4.05773 7.10811C3.60167 6.48267 3.27426 5.77237 3.09458 5.01863C3.00247 4.61635 2.94419 4.20701 2.92037 3.79493C2.88984 3.30968 2.93325 2.8226 3.0491 2.35049C3.20117 1.7173 3.50293 1.16145 3.99631 0.731226C4.44239 0.340667 4.99717 0.0969018 5.58572 0.0328556C6.17329 -0.036774 6.74906 -0.00418167 7.30474 0.212707C7.61977 0.33828 7.91197 0.515177 8.16957 0.736263C8.48196 0.998782 8.70843 1.32115 8.88441 1.67878C9.07431 2.06041 9.18862 2.47539 9.22101 2.90071C9.23577 3.09952 9.27711 3.29804 9.27475 3.49626C9.27322 3.77455 9.25299 4.05241 9.21422 4.32797C9.14975 4.79203 9.03408 5.24747 8.86935 5.68589C8.65646 6.23967 8.40401 6.7736 8.00688 7.21774C7.78248 7.46634 7.68209 7.75019 7.65758 8.0696C7.64991 8.16471 7.64843 8.277 7.69125 8.35582C7.77303 8.50604 7.69125 8.60234 7.61772 8.70308C7.25788 9.20257 7.00881 9.77359 6.88724 10.3777C6.77972 10.9094 6.76762 11.456 6.85151 11.992C6.96962 12.7994 7.30976 13.5031 7.79282 14.1449C7.86456 14.2391 7.94931 14.3244 8.03907 14.4269Z" fill="white"/>
<circle cx="11" cy="11" r="3" fill="white"/>
<path d="M11.3213 14.9997C9.24741 14.9647 7.63055 13.3787 7.63379 11.293C7.63645 9.21245 9.24003 7.59645 11.3264 7.60059C13.3932 7.60504 15.0059 9.21185 14.9992 11.3129C14.9927 13.3822 13.3873 14.9594 11.3213 14.9997ZM9.31355 11.789H13.3132V10.7991H9.31503L9.31355 11.789Z" fill="#DF2C2C"/>
</svg>
