<svg width="12" height="12" viewBox="0 0 12 12" fill="none" xmlns="http://www.w3.org/2000/svg">
<path d="M5.99011 5.82518C7.32254 5.82518 8.4027 4.74503 8.4027 3.41259C8.4027 2.08015 7.32254 1 5.99011 1C4.65767 1 3.57751 2.08015 3.57751 3.41259C3.57751 4.74503 4.65767 5.82518 5.99011 5.82518Z" fill="white"/>
<path d="M11.0348 11.3768H0.947266C0.947266 8.593 3.20316 6.33301 5.99105 6.33301C8.77481 6.33301 11.0348 8.593 11.0348 11.3768Z" fill="white"/>
<path d="M11.0346 11.3762H1.82703C1.82703 8.76631 3.88613 6.64746 6.43083 6.64746C8.97176 6.64746 11.0346 8.76631 11.0346 11.3762Z" fill="#CDC6C6"/>
<path d="M6.17814 5.76985C7.27227 5.76985 8.15925 4.88287 8.15925 3.78873C8.15925 2.69459 7.27227 1.80762 6.17814 1.80762C5.084 1.80762 4.19702 2.69459 4.19702 3.78873C4.19702 4.88287 5.084 5.76985 6.17814 5.76985Z" fill="#CDC6C6"/>
<path d="M6.56322 5.69725C7.41025 5.69725 8.09691 5.01059 8.09691 4.16357C8.09691 3.31654 7.41025 2.62988 6.56322 2.62988C5.71619 2.62988 5.02954 3.31654 5.02954 4.16357C5.02954 5.01059 5.71619 5.69725 6.56322 5.69725Z" fill="#ABABAB"/>
<path d="M11.035 11.377H3.36987C3.36987 9.20434 5.08404 7.44043 7.20246 7.44043C9.31774 7.44043 11.035 9.20434 11.035 11.377Z" fill="#ABABAB"/>
<path d="M5.99011 5.82518C7.32254 5.82518 8.4027 4.74503 8.4027 3.41259C8.4027 2.08015 7.32254 1 5.99011 1C4.65767 1 3.57751 2.08015 3.57751 3.41259C3.57751 4.74503 4.65767 5.82518 5.99011 5.82518Z" stroke="#ABABAB" stroke-width="0.7" stroke-miterlimit="10" stroke-linecap="round" stroke-linejoin="round"/>
<path d="M11.0348 11.3768H0.947266C0.947266 8.593 3.20316 6.33301 5.99104 6.33301C8.7748 6.33301 11.0348 8.593 11.0348 11.3768Z" stroke="#ABABAB" stroke-width="0.7" stroke-miterlimit="10" stroke-linecap="round" stroke-linejoin="round"/>
</svg>
