<svg width="38" height="38" viewBox="0 0 38 38" fill="none" xmlns="http://www.w3.org/2000/svg">
<path d="M0.942971 31.2202L10.3137 34.9621C10.3747 34.9871 10.4377 34.9981 10.4997 34.9981C10.5617 34.9981 10.6257 34.9861 10.6857 34.9621L20.5084 31.0392L29.9881 34.4801C30.1541 34.5411 30.3271 34.5701 30.5 34.5701C30.804 34.5701 31.104 34.4781 31.36 34.2991C31.76 34.0192 32 33.5592 32 33.0702V12.1928C32 11.5639 31.603 10.9979 31.012 10.7829L25.0152 8.60595C24.7532 8.51495 24.4682 8.64595 24.3742 8.90594C24.2792 9.16493 24.4132 9.45192 24.6732 9.54692L30.67 11.7238C30.866 11.7948 30.999 11.9838 30.999 12.1928V33.0712C30.999 33.2362 30.921 33.3852 30.786 33.4812C30.648 33.5762 30.483 33.5982 30.3291 33.5412L20.9993 30.1543V21.9985C20.9993 21.7225 20.7754 21.4985 20.4994 21.4985C20.2234 21.4985 19.9994 21.7225 19.9994 21.9985V30.1653L10.9997 33.7592V22.9985C10.9997 22.7225 10.7757 22.4985 10.4997 22.4985C10.2237 22.4985 9.99969 22.7225 9.99969 22.9985V33.7602L1.31396 30.2923C1.12296 30.2153 0.999969 30.0333 0.999969 29.8273V8.97494C0.999969 8.80694 1.07997 8.65595 1.21996 8.56095C1.35996 8.46695 1.52895 8.44795 1.68595 8.51095L4.92585 9.80491C5.18084 9.90891 5.47283 9.78191 5.57483 9.52592C5.67782 9.26993 5.55283 8.97894 5.29683 8.87594L2.05694 7.58198C1.59295 7.39598 1.07097 7.45498 0.657979 7.73297C0.245992 8.01297 0 8.47695 0 8.97494V29.8273C0 30.4443 0.369988 30.9912 0.942971 31.2202Z" fill="#F7941E"/>
<path d="M14.0568 25.4654C14.2868 25.7994 14.6678 25.9984 15.0738 25.9984C15.4828 25.9984 15.8648 25.7964 16.0927 25.4624L19.7886 20.1546L21.8626 16.9987C23.3375 15.1307 23.9665 12.7918 23.6335 10.4129C23.0995 6.58401 19.9116 3.49011 16.0537 3.05512C10.8209 2.47514 6.37305 6.54901 6.37305 11.6499C6.37305 13.6468 7.02103 15.4197 8.46898 17.3877L14.0568 25.4654ZM15.0468 3.99909C15.3418 3.99909 15.6408 4.01609 15.9427 4.05009C19.3526 4.43408 22.1716 7.16899 22.6435 10.5519C22.9375 12.6578 22.3805 14.7278 21.0516 16.4137L18.9597 19.5936L15.2688 24.8944C15.1458 25.0744 15.0008 25.0734 14.8778 24.8954L9.28196 16.8067C7.961 15.0097 7.37202 13.4188 7.37202 11.6489C7.37302 7.43098 10.8149 3.99909 15.0468 3.99909Z" fill="#FFC30D"/>
<path d="M15.0009 14.6497C16.6548 14.6497 18.0008 13.3038 18.0008 11.6498C18.0008 9.99586 16.6548 8.6499 15.0009 8.6499C13.3469 8.6499 12.001 9.99586 12.001 11.6498C12.001 13.3038 13.3469 14.6497 15.0009 14.6497ZM15.0009 9.64987C16.1038 9.64987 17.0008 10.5468 17.0008 11.6498C17.0008 12.7528 16.1038 13.6497 15.0009 13.6497C13.8979 13.6497 13.0009 12.7528 13.0009 11.6498C13.0009 10.5468 13.8979 9.64987 15.0009 9.64987Z" fill="#FFC30D"/>
</svg>
