<svg width="17" height="24" viewBox="0 0 17 24" fill="none" xmlns="http://www.w3.org/2000/svg">
<path d="M8.63609 4.61816H8.00021C5.77936 4.61816 3.979 6.41652 3.979 8.6349V14.3636C3.979 16.582 5.77936 18.3803 8.00021 18.3803H8.63609C10.8569 18.3803 12.6573 16.582 12.6573 14.3636V8.6349C12.6573 6.41652 10.8569 4.61816 8.63609 4.61816Z" fill="#FAFAFA"/>
<path d="M8.31557 21.0055C6.62045 21.0023 4.99569 20.3282 3.79705 19.1309C2.59842 17.9336 1.92361 16.3106 1.92041 14.6174C1.92041 14.5372 1.95232 14.4603 2.0091 14.4035C2.06589 14.3468 2.1429 14.3149 2.22321 14.3149C2.30352 14.3149 2.38054 14.3468 2.43733 14.4035C2.49412 14.4603 2.52601 14.5372 2.52601 14.6174C2.52762 16.1507 3.13811 17.6207 4.22351 18.7049C5.30892 19.7891 6.78058 20.3989 8.31557 20.4005C9.08552 20.4358 9.85437 20.3103 10.5731 20.0323C11.2918 19.7542 11.9446 19.3295 12.4899 18.7854C13.0352 18.2413 13.461 17.5897 13.7402 16.872C14.0193 16.1544 14.1457 15.3865 14.1112 14.6174C14.1112 14.5372 14.1431 14.4603 14.1999 14.4035C14.2567 14.3468 14.3337 14.3149 14.414 14.3149C14.4943 14.3149 14.5713 14.3468 14.6281 14.4035C14.6849 14.4603 14.7168 14.5372 14.7168 14.6174C14.7168 18.374 12.0824 20.9994 8.31557 21.0055Z" fill="#FAFAFA"/>
<path d="M8.61781 20.7031H8.01221V23.8367H8.61781V20.7031Z" fill="white"/>
<path d="M12.1055 23.9999H4.52936C4.44906 23.9999 4.37204 23.9681 4.31526 23.9114C4.25847 23.8546 4.22656 23.7777 4.22656 23.6975C4.22656 23.6173 4.25847 23.5403 4.31526 23.4836C4.37204 23.4269 4.44906 23.395 4.52936 23.395H12.1055C12.1858 23.395 12.2628 23.4269 12.3196 23.4836C12.3764 23.5403 12.4083 23.6173 12.4083 23.6975C12.4067 23.7772 12.3743 23.8532 12.3179 23.9096C12.2614 23.966 12.1853 23.9984 12.1055 23.9999Z" fill="white"/>
<path d="M1.99897 7.1226C1.96263 7.20124 1.50237 7.03791 0.957328 6.80803C0.412285 6.57816 -0.0237497 6.35434 0.000474431 6.26965C0.0246985 6.18496 0.521292 6.26965 1.07845 6.51767C1.6356 6.76569 1.99897 7.04396 1.99897 7.1226Z" fill="white"/>
<path d="M4.42134 3.87988C4.35473 3.93432 3.96109 3.51692 3.54322 2.95434C3.12535 2.39175 2.84678 1.88966 2.93762 1.84127C3.02846 1.79287 3.39787 2.20423 3.81574 2.76681C4.23361 3.3294 4.4819 3.83149 4.42134 3.87988Z" fill="white"/>
<path d="M8.33961 2.71855C8.24877 2.71855 8.18821 2.19226 8.19426 1.50869C8.20032 0.825117 8.27905 0.298828 8.36383 0.298828C8.57364 1.07743 8.57364 1.89761 8.36383 2.67621L8.33961 2.71855Z" fill="white"/>
<path d="M13.3785 1.86572C13.4512 1.91411 13.2634 2.36177 12.9122 2.83361C12.5609 3.30546 12.1733 3.60792 12.1128 3.54742C12.0522 3.48693 12.3126 3.09978 12.6578 2.64003C13.003 2.18028 13.2998 1.82337 13.3785 1.86572Z" fill="white"/>
<path d="M16.7629 5.96126C16.8053 6.0399 16.3995 6.34841 15.8605 6.65693C15.3216 6.96544 14.8492 7.14692 14.8068 7.07433C14.7644 7.00174 15.1641 6.68718 15.7031 6.37866C16.2421 6.07015 16.7205 5.88867 16.7629 5.96126Z" fill="white"/>
</svg>
