<svg width="17" height="17" viewBox="0 0 17 17" fill="none" xmlns="http://www.w3.org/2000/svg">
<path d="M12.8966 10.2586V6.74135C12.8966 6.57721 12.7677 6.44824 12.6035 6.44824C12.4394 6.44824 12.3104 6.57721 12.3104 6.74135V10.2586C12.3104 12.3572 10.5987 14.0689 8.50007 14.0689C6.40145 14.0689 4.68972 12.3572 4.68972 10.2586V6.74135C4.68972 6.57721 4.56076 6.44824 4.39662 6.44824C4.23248 6.44824 4.10352 6.57721 4.10352 6.74135V10.2586C4.10352 12.5858 5.92076 14.491 8.20696 14.6434V16.4138H5.56903C5.40489 16.4138 5.27593 16.5427 5.27593 16.7069C5.27593 16.871 5.40489 17 5.56903 17H11.4311C11.5952 17 11.7242 16.871 11.7242 16.7069C11.7242 16.5427 11.5952 16.4138 11.4311 16.4138H8.79317V14.6434C11.0794 14.491 12.8966 12.58 12.8966 10.2586Z" fill="white"/>
<path d="M8.50024 12.8966C9.95403 12.8966 11.1382 11.7124 11.1382 10.2586V2.63793C11.1382 1.18414 9.95403 0 8.50024 0C7.04644 0 5.8623 1.18414 5.8623 2.63793V10.2586C5.8623 11.7124 7.04644 12.8966 8.50024 12.8966ZM6.44851 2.63793C6.44851 1.50655 7.36886 0.586207 8.50024 0.586207C9.63161 0.586207 10.552 1.50655 10.552 2.63793V10.2586C10.552 11.39 9.63161 12.3103 8.50024 12.3103C7.36886 12.3103 6.44851 11.39 6.44851 10.2586V2.63793Z" fill="white"/>
<path d="M7.1695 6.68851C7.25157 6.68851 7.31605 6.62402 7.31605 6.54195V3.02471C7.31605 2.24506 7.94916 1.60609 8.73467 1.60609C8.81674 1.60609 8.88123 1.54161 8.88123 1.45954C8.88123 1.37747 8.81674 1.31299 8.73467 1.31299C7.79088 1.31299 7.02295 2.08092 7.02295 3.02471V6.54195C7.02295 6.62402 7.08743 6.68851 7.1695 6.68851Z" fill="white"/>
</svg>
