<svg width="15" height="15" viewBox="0 0 15 15" fill="none" xmlns="http://www.w3.org/2000/svg">
<path fill-rule="evenodd" clip-rule="evenodd" d="M13.9638 7.044C13.941 10.8888 10.8058 13.9871 6.96102 13.9644C3.11625 13.9416 0.0179139 10.8063 0.0406827 6.96155C0.0634515 3.11678 3.19871 0.0184578 7.04347 0.0412265C10.8882 0.0639953 13.9866 3.19924 13.9638 7.044ZM12.5715 7.03576C12.5533 10.1116 10.0451 12.5903 6.96926 12.572C3.89345 12.5538 1.41478 10.0456 1.43299 6.96979C1.45121 3.89398 3.95941 1.41532 7.03522 1.43354C10.111 1.45175 12.5897 3.95994 12.5715 7.03576Z" fill="#DB1010"/>
<path d="M3.05603 3.74455L6.25704 6.99633L3.00526 10.1973L3.74395 10.9477L6.99573 7.74674L10.1967 10.9985L10.9471 10.2598L7.74614 7.00805L10.9979 3.80704L10.2592 3.05663L7.00745 6.25764L3.80644 3.00586L3.05603 3.74455Z" fill="#D90000"/>
</svg>
