<svg width="27" height="34" viewBox="0 0 27 34" fill="none" xmlns="http://www.w3.org/2000/svg">
<path fill-rule="evenodd" clip-rule="evenodd" d="M0 32.3177C0 33.2469 0.779531 34 1.74113 34H22.5596C23.5212 34 24.3007 33.2469 24.3007 32.3177V3.74287C24.3007 2.81371 23.5212 2.06062 22.5596 2.06062H1.74113C0.779532 2.06062 0 2.81369 0 3.74287V32.3177ZM1.74113 32.9962C1.35326 32.9962 1.0389 32.6925 1.0389 32.3177V3.74287C1.0389 3.36809 1.35326 3.06439 1.74113 3.06439H22.5596C22.9474 3.06439 23.2618 3.36808 23.2618 3.74287V32.3177C23.2618 32.6925 22.9474 32.9962 22.5596 32.9962H1.74113Z" fill="#F7941E"/>
<path fill-rule="evenodd" clip-rule="evenodd" d="M23.5571 31.4376C23.5571 31.7148 23.7896 31.9395 24.0765 31.9395H25.2588C26.2205 31.9395 26.9999 31.1864 26.9999 30.2572V1.68233C26.9999 0.753181 26.2205 7.62939e-05 25.2588 7.62939e-05H4.44028C3.47873 7.62939e-05 2.69922 0.753164 2.69922 1.68233V2.82462C2.69922 3.1018 2.93178 3.32651 3.21867 3.32651H22.8549C23.2427 3.32651 23.5571 3.63019 23.5571 4.00499V31.4376ZM24.596 30.9357V4.00499C24.596 3.07582 23.8164 2.32273 22.8549 2.32273H3.73812V1.68233C3.73812 1.30753 4.0525 1.00385 4.44028 1.00385H25.2588C25.6467 1.00385 25.961 1.30751 25.961 1.68233V30.2572C25.961 30.632 25.6467 30.9357 25.2588 30.9357H24.596Z" fill="#F7941E"/>
<path fill-rule="evenodd" clip-rule="evenodd" d="M3.24121 30.3204C3.24121 30.9301 3.70751 31.4243 4.28267 31.4243H7.05989C7.63505 31.4243 8.10135 30.9301 8.10135 30.3204V27.3767C8.10135 26.7669 7.63501 26.2728 7.05989 26.2728H4.28267C3.70755 26.2728 3.24121 26.7669 3.24121 27.3767V30.3204ZM4.28267 30.356C4.26414 30.356 4.24908 30.3401 4.24908 30.3204V27.3767C4.24908 27.357 4.2641 27.3411 4.28267 27.3411H7.05989C7.07846 27.3411 7.09348 27.357 7.09348 27.3767V30.3204C7.09348 30.3401 7.07842 30.356 7.05989 30.356H4.28267Z" fill="#F7941E"/>
<path fill-rule="evenodd" clip-rule="evenodd" d="M9.18066 28.8486C9.18066 29.1331 9.4199 29.3638 9.715 29.3638H21.0667C21.3618 29.3638 21.601 29.1331 21.601 28.8486C21.601 28.5641 21.3618 28.3335 21.0667 28.3335H9.715C9.4199 28.3335 9.18066 28.5641 9.18066 28.8486Z" fill="#F7941E"/>
<path fill-rule="evenodd" clip-rule="evenodd" d="M3.24121 14.8426C3.24121 15.465 3.77018 15.9697 4.42278 15.9697H13.4C14.0526 15.9697 14.5815 15.465 14.5815 14.8426V6.27871C14.5815 5.65628 14.0526 5.15155 13.4 5.15155H4.42278C3.77018 5.15155 3.24121 5.65628 3.24121 6.27871V14.8426ZM4.42278 15.0036C4.32958 15.0036 4.25399 14.9315 4.25399 14.8426V6.27871C4.25399 6.1898 4.32958 6.11769 4.42278 6.11769H13.4C13.4932 6.11769 13.5688 6.1898 13.5688 6.27871V14.8426C13.5688 14.9315 13.4932 15.0036 13.4 15.0036H4.42278Z" fill="#FFC30D"/>
<path fill-rule="evenodd" clip-rule="evenodd" d="M6.47949 9.01535C6.47949 10.2955 7.56747 11.3335 8.90956 11.3335C10.2517 11.3335 11.3396 10.2955 11.3396 9.01535C11.3396 7.7351 10.2517 6.69713 8.90956 6.69713C7.56745 6.69713 6.47949 7.7351 6.47949 9.01535ZM8.90956 10.3188C8.15494 10.3188 7.54317 9.73517 7.54317 9.01535C7.54317 8.29545 8.15496 7.71182 8.90956 7.71182C9.66417 7.71182 10.276 8.29545 10.276 9.01535C10.276 9.73517 9.66418 10.3188 8.90956 10.3188Z" fill="#FFC30D"/>
<path fill-rule="evenodd" clip-rule="evenodd" d="M6.47949 13.9125C6.47949 14.1952 6.70188 14.4243 6.97621 14.4243H10.8429C11.1172 14.4243 11.3396 14.1952 11.3396 13.9125V12.8072C11.3396 11.4242 10.2516 10.3031 8.90956 10.3031C7.56748 10.3031 6.47949 11.4242 6.47949 12.8072V13.9125ZM7.47292 13.4007V12.8072C7.47292 11.9895 8.11616 11.3268 8.90956 11.3268C9.70296 11.3268 10.3462 11.9895 10.3462 12.8072V13.4007H7.47292Z" fill="#FFC30D"/>
<path fill-rule="evenodd" clip-rule="evenodd" d="M15.6592 7.72704C15.6592 8.01155 15.9046 8.24219 16.2072 8.24219H21.0513C21.354 8.24219 21.5993 8.01155 21.5993 7.72704C21.5993 7.44253 21.354 7.21188 21.0513 7.21188H16.2072C15.9046 7.21188 15.6592 7.44253 15.6592 7.72704Z" fill="#F7941E"/>
<path fill-rule="evenodd" clip-rule="evenodd" d="M15.6592 10.8183C15.6592 11.1029 15.9046 11.3335 16.2072 11.3335H21.0513C21.354 11.3335 21.5993 11.1029 21.5993 10.8183C21.5993 10.5338 21.354 10.3032 21.0513 10.3032H16.2072C15.9046 10.3032 15.6592 10.5338 15.6592 10.8183Z" fill="#F7941E"/>
<path fill-rule="evenodd" clip-rule="evenodd" d="M15.6592 13.9092C15.6592 14.1937 15.9046 14.4243 16.2072 14.4243H21.0513C21.354 14.4243 21.5993 14.1937 21.5993 13.9092C21.5993 13.6247 21.354 13.394 21.0513 13.394H16.2072C15.9046 13.394 15.6592 13.6247 15.6592 13.9092Z" fill="#F7941E"/>
<path fill-rule="evenodd" clip-rule="evenodd" d="M3.24121 18.5454C3.24121 18.8299 3.47394 19.0605 3.76103 19.0605H21.0819C21.369 19.0605 21.6017 18.8299 21.6017 18.5454C21.6017 18.2609 21.369 18.0302 21.0819 18.0302H3.76103C3.47394 18.0302 3.24121 18.2609 3.24121 18.5454Z" fill="#F7941E"/>
<path fill-rule="evenodd" clip-rule="evenodd" d="M3.24121 21.3787C3.24121 21.5209 3.47394 21.6362 3.76103 21.6362H21.0819C21.369 21.6362 21.6017 21.5209 21.6017 21.3787C21.6017 21.2364 21.369 21.1211 21.0819 21.1211H3.76103C3.47394 21.1211 3.24121 21.2364 3.24121 21.3787Z" fill="#F7941E"/>
<path fill-rule="evenodd" clip-rule="evenodd" d="M3.24121 24.2124C3.24121 24.4969 3.47394 24.7275 3.76103 24.7275H21.0819C21.369 24.7275 21.6017 24.4969 21.6017 24.2124C21.6017 23.9279 21.369 23.6972 21.0819 23.6972H3.76103C3.47394 23.6972 3.24121 23.9279 3.24121 24.2124Z" fill="#F7941E"/>
<path fill-rule="evenodd" clip-rule="evenodd" d="M4.96995 30.3922C5.12502 30.405 5.27773 30.3499 5.38435 30.2428L9.04346 26.5664C9.2357 26.3733 9.22576 26.0695 9.02124 25.8879C8.81673 25.7064 8.49509 25.7158 8.30284 25.9089L5.08526 29.1417L4.1744 27.8308C4.0204 27.6092 3.70532 27.5474 3.47066 27.6929C3.23599 27.8383 3.17059 28.1359 3.32459 28.3575L4.58913 30.1774C4.67454 30.3003 4.81487 30.3795 4.96995 30.3922Z" fill="#F7941E"/>
</svg>
