<svg width="33" height="35" viewBox="0 0 33 35" fill="none" xmlns="http://www.w3.org/2000/svg">
<path fill-rule="evenodd" clip-rule="evenodd" d="M4.69982 15.803C4.01873 15.803 3.46655 16.3877 3.46655 17.1089V29.9059C3.46655 30.627 4.01873 31.2117 4.69982 31.2117H16.7859C17.467 31.2117 18.0192 30.627 18.0192 29.9059V21.8833C18.0192 21.1621 18.5713 20.5774 19.2524 20.5774C19.9336 20.5774 20.4857 21.1621 20.4857 21.8833V29.9059C20.4857 32.0694 18.8292 33.8233 16.7859 33.8233H4.69982C2.65649 33.8233 1 32.0694 1 29.9059V17.1089C1 14.9453 2.65649 13.1914 4.69982 13.1914H12.2767C12.9579 13.1914 13.51 13.776 13.51 14.4972C13.51 15.2184 12.9579 15.803 12.2767 15.803H4.69982Z" fill="#F7941E" stroke="white" stroke-miterlimit="10" stroke-linecap="round" stroke-linejoin="round"/>
<path fill-rule="evenodd" clip-rule="evenodd" d="M1 6.29024C1 3.36853 3.23694 1 5.99634 1H9.49377C10.1836 1 10.7429 1.59213 10.7429 2.32256C10.7429 3.05299 10.1836 3.64512 9.49377 3.64512H5.99634C4.61664 3.64512 3.49817 4.82939 3.49817 6.29024V9.99341C3.49817 10.7238 2.93893 11.316 2.24908 11.316C1.55923 11.316 1 10.7238 1 9.99341V6.29024Z" fill="#F7941E" stroke="white" stroke-miterlimit="10" stroke-linecap="round" stroke-linejoin="round"/>
<path fill-rule="evenodd" clip-rule="evenodd" d="M12.5142 2.40672C12.5142 1.62981 13.109 1 13.8427 1H19.157C19.8908 1 20.4856 1.62981 20.4856 2.40672C20.4856 3.18363 19.8908 3.81345 19.157 3.81345H13.8427C13.109 3.81345 12.5142 3.18363 12.5142 2.40672Z" fill="#F7941E" stroke="white" stroke-miterlimit="10" stroke-linecap="round" stroke-linejoin="round"/>
<path fill-rule="evenodd" clip-rule="evenodd" d="M22.2573 2.32256C22.2573 1.59213 22.8166 1 23.5064 1H27.0038C29.7632 1 32.0002 3.36853 32.0002 6.29024V9.99341C32.0002 10.7238 31.4409 11.316 30.7511 11.316C30.0612 11.316 29.502 10.7238 29.502 9.99341V6.29024C29.502 4.82939 28.3835 3.64512 27.0038 3.64512H23.5064C22.8166 3.64512 22.2573 3.05299 22.2573 2.32256Z" fill="#F7941E" stroke="white" stroke-miterlimit="10" stroke-linecap="round" stroke-linejoin="round"/>
<path fill-rule="evenodd" clip-rule="evenodd" d="M30.7511 23.5073C31.4409 23.5073 32.0002 24.0995 32.0002 24.8299V28.5331C32.0002 31.4548 29.7632 33.8233 27.0038 33.8233H23.5064C22.8166 33.8233 22.2573 33.2312 22.2573 32.5007C22.2573 31.7703 22.8166 31.1782 23.5064 31.1782H27.0038C28.3835 31.1782 29.502 29.9939 29.502 28.5331V24.8299C29.502 24.0995 30.0612 23.5073 30.7511 23.5073Z" fill="#F7941E" stroke="white" stroke-miterlimit="10" stroke-linecap="round" stroke-linejoin="round"/>
<path fill-rule="evenodd" clip-rule="evenodd" d="M30.6713 13.1914C31.4051 13.1914 31.9999 13.8212 31.9999 14.5981V20.225C31.9999 21.0019 31.4051 21.6317 30.6713 21.6317C29.9376 21.6317 29.3428 21.0019 29.3428 20.225V14.5981C29.3428 13.8212 29.9376 13.1914 30.6713 13.1914Z" fill="#F7941E" stroke="white" stroke-miterlimit="10" stroke-linecap="round" stroke-linejoin="round"/>
<path fill-rule="evenodd" clip-rule="evenodd" d="M26.3313 7.0025C26.8042 7.50322 26.8042 8.31505 26.3313 8.81578L11.0389 25.0077C10.566 25.5084 9.79927 25.5084 9.32636 25.0077C8.85345 24.507 8.85345 23.6952 9.32636 23.1944L24.6187 7.0025C25.0916 6.50177 25.8584 6.50177 26.3313 7.0025Z" fill="#FFC30D" stroke="white" stroke-miterlimit="10" stroke-linecap="round" stroke-linejoin="round"/>
<path fill-rule="evenodd" clip-rule="evenodd" d="M9.32594 19.7563C10.0108 19.7563 10.5659 20.3442 10.5659 21.0693V23.6952H13.0459C13.7308 23.6952 14.2859 24.283 14.2859 25.0081C14.2859 25.7332 13.7308 26.3211 13.0459 26.3211H9.32594C8.6411 26.3211 8.08594 25.7332 8.08594 25.0081V21.0693C8.08594 20.3442 8.6411 19.7563 9.32594 19.7563Z" fill="#FFC30D" stroke="white" stroke-miterlimit="10" stroke-linecap="round" stroke-linejoin="round"/>
<path fill-rule="evenodd" clip-rule="evenodd" d="M21.3711 7.75233C21.3711 7.1308 21.847 6.62695 22.434 6.62695H25.6225C26.2095 6.62695 26.6854 7.1308 26.6854 7.75233V11.1285C26.6854 11.75 26.2095 12.2538 25.6225 12.2538C25.0355 12.2538 24.5597 11.75 24.5597 11.1285V8.87771H22.434C21.847 8.87771 21.3711 8.37386 21.3711 7.75233Z" fill="#FFC30D" stroke="white" stroke-miterlimit="10" stroke-linecap="round" stroke-linejoin="round"/>
</svg>
