<svg width="39" height="39" viewBox="0 0 39 39" fill="none" xmlns="http://www.w3.org/2000/svg">
<g clip-path="url(#clip0_1_39230)">
<path d="M38.1875 32.5001H4.875V29.25H10.5625C11.0116 29.25 11.3751 28.8866 11.3751 28.4375V24.3751H17.0625C17.5116 24.3751 17.875 24.0116 17.875 23.5625V19.5001H23.5626C24.0117 19.5001 24.3751 19.1366 24.3751 18.6875V14.6251H30.0626C30.5117 14.6251 30.8751 14.2616 30.8751 13.8125V9.75005H36.5625C37.0116 9.75005 37.375 9.38663 37.375 8.93753C37.375 8.48842 37.0116 8.125 36.5625 8.125H30.0625C29.6134 8.125 29.25 8.48842 29.25 8.93753V13H23.5625C23.1134 13 22.7499 13.3634 22.7499 13.8125V17.875H17.0625C16.6134 17.875 16.25 18.2384 16.25 18.6875V22.75H10.5624C10.1133 22.75 9.74992 23.1134 9.74992 23.5625V27.625H4.06247C3.61337 27.625 3.24995 27.9884 3.24995 28.4375V32.5H0.812449C0.363416 32.5001 0 32.8635 0 33.3125C0 33.7616 0.363416 34.125 0.812525 34.125H38.1876C38.6367 34.125 39.0001 33.7616 39.0001 33.3125C39 32.8635 38.6366 32.5001 38.1875 32.5001Z" fill="#F7941E"/>
<path d="M5.68776 17.8729C5.87819 17.8729 6.06862 17.807 6.22257 17.6721L16.97 8.26819L16.2916 10.3033C16.1504 10.7294 16.3805 11.1895 16.8057 11.3308C16.8914 11.3594 16.9771 11.3729 17.0628 11.3729C17.4024 11.3729 17.7198 11.1578 17.8341 10.8174L19.459 5.94243C19.5495 5.67187 19.4908 5.37434 19.3051 5.15771C19.121 4.94108 18.8337 4.8435 18.5545 4.88395L13.6795 5.69648C13.2367 5.77029 12.9368 6.18839 13.0114 6.63118C13.086 7.07397 13.5144 7.37942 13.9461 7.29928L16.0005 6.95704L5.15296 16.4486C4.81491 16.7445 4.78002 17.2579 5.07679 17.5951C5.23705 17.7792 5.46237 17.8729 5.68776 17.8729Z" fill="#FFC30D"/>
</g>
<defs>
<clipPath id="clip0_1_39230">
<rect width="39" height="39" fill="white"/>
</clipPath>
</defs>
</svg>
