<svg width="61" height="60" viewBox="0 0 61 60" fill="none" xmlns="http://www.w3.org/2000/svg">
<ellipse cx="30.5" cy="30" rx="30.5" ry="30" fill="#F5EBDC"/>
<path fill-rule="evenodd" clip-rule="evenodd" d="M42.5466 39.9588C44.6388 37.2933 45.7878 34.0091 45.8135 30.6206C45.8392 27.2321 44.7403 23.9308 42.6888 21.2338C41.1752 19.2427 39.197 17.6525 36.9271 16.6025C34.6571 15.5524 32.1645 15.0743 29.6671 15.2101C27.1697 15.3458 24.7435 16.0912 22.6007 17.3812C20.458 18.6711 18.6638 20.4663 17.375 22.6098V17.3751H15.1875V25.0313L16.2813 26.1251H23.9375V23.9376H19.1491C20.6104 21.4113 22.8711 19.4432 25.5746 18.3438C28.2781 17.2444 31.2707 17.0761 34.0804 17.8656C36.8901 18.655 39.3571 20.3572 41.0924 22.7038C42.8277 25.0504 43.7326 27.9078 43.6643 30.8256C43.5961 33.7433 42.5586 36.5553 40.7154 38.8181C38.8722 41.081 36.3283 42.666 33.4847 43.3231C30.6412 43.9803 27.6598 43.6723 25.0106 42.4476C22.3615 41.223 20.1953 39.1514 18.8538 36.5595L16.9134 37.5701C18.095 39.8427 19.8277 41.7826 21.953 43.2123C24.0784 44.6419 26.5284 45.5155 29.0787 45.7532C31.6291 45.9909 34.1983 45.585 36.5512 44.5727C38.9041 43.5604 40.9655 41.974 42.5466 39.9588ZM35.1944 37.837L36.7431 36.2904L30.5 30.0451V21.7501H28.3125V30.5001L28.6319 31.2745L35.1944 37.837Z" fill="#F7941E"/>
</svg>
