<svg width="42" height="42" viewBox="0 0 42 42" fill="none" xmlns="http://www.w3.org/2000/svg">
<g clip-path="url(#clip0_1_39127)">
<path d="M8.43055 8.39211L19.0167 11.6068L19.5454 9.86572L8.20439 6.42188L3.16406 9.33046L4.07351 10.9064L8.43055 8.39211Z" fill="#F7941E"/>
<path d="M8.43055 11.603L19.0167 14.8177L19.5454 13.0767L8.20439 9.63281L3.16406 12.5414L4.07351 14.1173L8.43055 11.603Z" fill="#F7941E"/>
<path d="M8.43055 14.814L19.0167 18.0287L19.5454 16.2876L8.20439 12.8438L3.16406 15.7523L4.07351 17.3283L8.43055 14.814Z" fill="#F7941E"/>
<path d="M8.43055 18.0249L19.0167 21.2396L19.5454 19.4985L8.20439 16.0547L3.16406 18.9633L4.07351 20.5392L8.43055 18.0249Z" fill="#F7941E"/>
<path d="M8.43055 21.2359L19.0167 24.4505L19.5454 22.7095L8.20439 19.2656L3.16406 22.1741L4.0734 23.75L8.43055 21.2359Z" fill="#F7941E"/>
<path d="M8.43055 24.4468L19.0167 27.6615L19.5454 25.9204L8.20439 22.4766L3.16406 25.385L4.0734 26.961L8.43055 24.4468Z" fill="#F7941E"/>
<path d="M8.43055 27.6577L19.0167 30.8724L19.5454 29.1313L8.20439 25.6875L3.16406 28.596L4.0734 30.1719L8.43055 27.6577Z" fill="#F7941E"/>
<path d="M8.43055 30.8687L19.0167 34.0834L19.5454 32.3423L8.20439 28.8984L3.16406 31.8069L4.0734 33.3828L8.43055 30.8687Z" fill="#F7941E"/>
<path d="M25.7235 8.39211L36.3097 11.6068L36.8383 9.86572L25.4972 6.42188L20.457 9.33046L21.3664 10.9064L25.7235 8.39211Z" fill="#F7941E"/>
<path d="M25.7235 5.18117L36.3097 8.39586L36.8383 6.65478L25.4972 3.21094L20.457 6.11952L21.3664 7.69545L25.7235 5.18117Z" fill="#F7941E"/>
<path d="M25.7235 1.97024L36.3097 5.18493L36.8383 3.44384L25.4972 0L20.457 2.90858L21.3664 4.48451L25.7235 1.97024Z" fill="#F7941E"/>
<path d="M25.7235 11.603L36.3097 14.8177L36.8383 13.0767L25.4972 9.63281L20.457 12.5414L21.3664 14.1173L25.7235 11.603Z" fill="#F7941E"/>
<path d="M25.7235 14.814L36.3097 18.0287L36.8383 16.2876L25.4972 12.8438L20.457 15.7523L21.3664 17.3283L25.7235 14.814Z" fill="#F7941E"/>
<path d="M25.7235 18.0249L36.3097 21.2396L36.8383 19.4985L25.4972 16.0547L20.457 18.9633L21.3664 20.5392L25.7235 18.0249Z" fill="#F7941E"/>
<path d="M25.7235 21.2359L36.3097 24.4505L36.8383 22.7095L25.4972 19.2656L20.457 22.1741L21.3664 23.75L25.7235 21.2359Z" fill="#F7941E"/>
<path d="M25.7235 24.4468L36.3097 27.6615L36.8383 25.9204L25.4972 22.4766L20.457 25.385L21.3664 26.961L25.7235 24.4468Z" fill="#F7941E"/>
<path d="M25.7235 27.6577L36.3097 30.8724L36.8383 29.1313L25.4972 25.6875L20.457 28.596L21.3664 30.1719L25.7235 27.6577Z" fill="#F7941E"/>
<path d="M25.7235 30.8687L36.3097 34.0834L36.8383 32.3423L25.4972 28.8984L20.457 31.8069L21.3664 33.3828L25.7235 30.8687Z" fill="#F7941E"/>
<path d="M36.3292 40.2597V37.2295L36.8382 35.5532L25.4972 32.1094L20.4568 35.0178L20.9659 35.8999V40.2597H19.0366V37.2295L19.5457 35.5532L8.20462 32.1094L3.1643 35.0178L3.67323 35.8999V40.2597H0.985352V41.9999H41.0151V40.2597H36.3292ZM10.8197 40.2597V36.5603L16.3769 37.894V40.2597H10.8197ZM28.1125 40.2597V36.5603L33.6695 37.894V40.2597H28.1125Z" fill="#FFC30D"/>
</g>
<defs>
<clipPath id="clip0_1_39127">
<rect width="42" height="42" fill="white"/>
</clipPath>
</defs>
</svg>
