<svg width="85" height="83" viewBox="0 0 85 83" fill="none" xmlns="http://www.w3.org/2000/svg">
<g clip-path="url(#clip0_1_185)">
<path d="M57.8197 22.3462H57.2253C57.3055 19.8182 57.0984 12.5013 52.497 7.71736C50.0354 5.15782 46.6997 3.80469 42.8509 3.80469C37.7851 3.80469 33.7244 6.54605 31.4163 11.5242C29.8154 14.9769 29.5692 18.414 29.5596 18.5586L35.5597 18.9665C35.5874 18.5917 36.3141 9.78584 42.8509 9.78584C45.0803 9.78584 46.814 10.4615 48.1511 11.8515C50.6348 14.4338 51.3579 18.9659 51.2067 22.3462H28.4169C27.0884 22.3462 26.0112 23.4175 26.0112 24.7387V46.4038C26.0112 47.7251 27.0884 48.7963 28.4169 48.7963H57.8195C59.148 48.7963 60.2251 47.7251 60.2251 46.4038V24.7387C60.2253 23.4175 59.1482 22.3462 57.8197 22.3462ZM44.5332 36.4006L44.6214 42.796C44.6322 43.5666 44.0126 44.2002 43.2376 44.2107C43.2311 44.2107 43.2245 44.2107 43.2179 44.2107C42.4519 44.2107 41.8256 43.5987 41.815 42.8343L41.7248 36.3094C40.8018 35.7903 40.1778 34.807 40.1778 33.6771C40.1778 32.0072 41.5392 30.6533 43.2183 30.6533C44.8977 30.6533 46.2589 32.0072 46.2589 33.6771C46.2589 34.8782 45.5532 35.9125 44.5332 36.4006Z" fill="#FFC000"/>
<path d="M16.9967 68.0277L12.9444 65.4445L16.9967 62.8608C17.4626 62.5637 17.5984 61.9473 17.2997 61.4839C17.0012 61.0206 16.3813 60.885 15.915 61.1825L11.9118 63.7346V59.1639C11.9118 58.6132 11.4629 58.167 10.9094 58.167C10.3557 58.167 9.90706 58.6132 9.90706 59.1639V63.508L6.57222 61.3819C6.10592 61.0844 5.48586 61.2196 5.18736 61.6833C4.88866 62.1466 5.02438 62.7631 5.49047 63.0602L9.22987 65.4445L5.49047 67.8283C5.02438 68.1254 4.88866 68.7419 5.18736 69.2052C5.37881 69.5023 5.70197 69.6644 6.03235 69.6644C6.21738 69.6644 6.40462 69.6133 6.57222 69.5067L9.90706 67.3806V71.3921C9.90706 71.9428 10.3557 72.389 10.9094 72.389C11.4629 72.389 11.9118 71.9428 11.9118 71.3921V67.1539L15.915 69.706C16.0824 69.8127 16.2698 69.8637 16.4549 69.8637C16.7848 69.8637 17.1084 69.7016 17.2997 69.4046C17.5984 68.9412 17.4626 68.3248 16.9967 68.0277Z" fill="#F7941E"/>
<path d="M37.9797 68.0277L33.9273 65.4445L37.9797 62.8608C38.4455 62.5637 38.5813 61.9473 38.2826 61.4839C37.9841 61.0206 37.3642 60.885 36.8979 61.1825L32.8947 63.7346V59.1639C32.8947 58.6132 32.4458 58.167 31.8923 58.167C31.3386 58.167 30.89 58.6132 30.89 59.1639V63.508L27.5551 61.3819C27.0888 61.0844 26.4688 61.2196 26.1703 61.6833C25.8716 62.1466 26.0073 62.7631 26.4734 63.0602L30.2128 65.4445L26.4734 67.8283C26.0073 68.1254 25.8716 68.7419 26.1703 69.2052C26.3617 69.5023 26.6849 69.6644 27.0153 69.6644C27.2003 69.6644 27.3875 69.6133 27.5551 69.5067L30.89 67.3806V71.3921C30.89 71.9428 31.3386 72.389 31.8923 72.389C32.4458 72.389 32.8947 71.9428 32.8947 71.3921V67.1539L36.8979 69.706C37.0653 69.8127 37.2527 69.8637 37.4378 69.8637C37.7678 69.8637 38.0913 69.7016 38.2826 69.4046C38.5813 68.9412 38.4455 68.3248 37.9797 68.0277Z" fill="#F7941E"/>
<path d="M59.7639 68.6923L55.7113 66.1091L59.7639 63.5258C60.2298 63.2288 60.3653 62.6123 60.0666 62.1486C59.7683 61.6856 59.1484 61.5501 58.6821 61.8475L54.6789 64.3997V59.8289C54.6789 59.2782 54.2299 58.832 53.6766 58.832C53.1229 58.832 52.6742 59.2782 52.6742 59.8289V64.1726L49.3394 62.0469C48.8731 61.7494 48.2528 61.8846 47.9545 62.3479C47.6558 62.8117 47.7913 63.4281 48.2576 63.7252L51.9968 66.1091L48.2576 68.493C47.7913 68.79 47.6558 69.4065 47.9545 69.8702C48.1459 70.1669 48.4689 70.3294 48.7995 70.3294C48.9843 70.3294 49.1718 70.2784 49.3394 70.1713L52.6742 68.0456V72.0571C52.6742 72.6078 53.1229 73.054 53.6766 73.054C54.2299 73.054 54.6789 72.6078 54.6789 72.0571V67.8185L58.6821 70.3707C58.8493 70.4777 59.037 70.5288 59.222 70.5288C59.552 70.5288 59.8755 70.3665 60.0666 70.0696C60.3653 69.6059 60.2298 68.9894 59.7639 68.6923Z" fill="#F7941E"/>
<path d="M80.2121 68.0277L76.1596 65.4445L80.2121 62.8608C80.678 62.5637 80.8135 61.9473 80.5148 61.4839C80.2165 61.0206 79.5967 60.885 79.1304 61.1825L75.1272 63.7346V59.1639C75.1272 58.6132 74.6781 58.167 74.1248 58.167C73.5711 58.167 73.1224 58.6132 73.1224 59.1639V63.508L69.7876 61.3819C69.3213 61.0844 68.701 61.2196 68.4027 61.6833C68.104 62.1466 68.2396 62.7631 68.7059 63.0602L72.4451 65.4445L68.7059 67.8283C68.2396 68.1254 68.104 68.7419 68.4027 69.2052C68.5942 69.5023 68.9172 69.6644 69.2477 69.6644C69.4326 69.6644 69.62 69.6133 69.7876 69.5067L73.1224 67.3806V71.3921C73.1224 71.9428 73.5711 72.389 74.1248 72.389C74.6781 72.389 75.1272 71.9428 75.1272 71.3921V67.1539L79.1304 69.706C79.2976 69.8127 79.4852 69.8637 79.6703 69.8637C80.0002 69.8637 80.3238 69.7016 80.5148 69.4046C80.8135 68.9412 80.678 68.3248 80.2121 68.0277Z" fill="#F7941E"/>
<path d="M18.9279 76.1436H3.75879V79.1341H18.9279V76.1436Z" fill="#FFC000"/>
<path d="M39.8107 76.1436H24.6416V79.1341H39.8107V76.1436Z" fill="#FFC000"/>
<path d="M60.9267 76.1436H45.7578V79.1341H60.9267V76.1436Z" fill="#FFC000"/>
<path d="M82.0428 76.1436H66.8735V79.1341H82.0428V76.1436Z" fill="#FFC000"/>
</g>
<defs>
<clipPath id="clip0_1_185">
<rect width="85" height="83" fill="white"/>
</clipPath>
</defs>
</svg>
