<svg width="18" height="18" viewBox="0 0 18 18" fill="none" xmlns="http://www.w3.org/2000/svg">
<path d="M1.74411 14.9994C1.40536 14.4059 1.02897 13.8584 0.757126 13.2608C0.266987 12.1947 0.0147094 11.0349 0.0177789 9.86172C0.0208484 8.68853 0.279191 7.53004 0.774901 6.46656C1.27061 5.40307 1.99183 4.46003 2.88856 3.70282C3.78529 2.9456 4.83608 2.39232 5.96809 2.08132C6.08588 2.03723 6.21152 2.01798 6.33711 2.02477C6.46271 2.03156 6.58554 2.06424 6.69788 2.12076C6.81022 2.17729 6.90964 2.25643 6.98989 2.35321C7.07014 2.44999 7.12948 2.56232 7.16419 2.68313C7.19763 2.80376 7.20572 2.93 7.18795 3.0539C7.17018 3.17781 7.12693 3.29669 7.06093 3.40308C6.99494 3.50947 6.90762 3.60105 6.80447 3.67206C6.70132 3.74308 6.58458 3.79198 6.46159 3.8157C5.47292 4.0629 4.56208 4.55395 3.81246 5.24392C3.06283 5.93388 2.49835 6.80072 2.17069 7.76509C1.33426 10.1765 1.82776 12.3623 3.53826 14.2555C4.02339 14.7946 4.03175 15.2501 3.53826 15.7558L3.12004 16.1737C3.17716 16.1767 3.23439 16.1767 3.29151 16.1737C4.89746 16.1737 6.49923 16.1737 8.10517 16.1737C9.49919 16.177 10.8549 15.718 11.9599 14.8687C13.0648 14.0193 13.8566 12.8277 14.2111 11.4804C14.2343 11.3572 14.2829 11.2402 14.3538 11.1368C14.4247 11.0334 14.5164 10.9459 14.623 10.8798C14.7296 10.8138 14.8488 10.7706 14.973 10.7531C15.0973 10.7357 15.2238 10.7442 15.3445 10.7783C15.4612 10.8075 15.5706 10.8603 15.6662 10.9333C15.7617 11.0063 15.8413 11.0981 15.9001 11.203C15.9588 11.3079 15.9955 11.4237 16.0078 11.5433C16.0202 11.6629 16.0079 11.7837 15.9718 11.8984C15.0015 15.154 12.877 17.1642 9.56475 17.8538C9.08962 17.9478 8.60626 17.994 8.1219 17.9917C5.72971 17.9917 3.33751 17.9917 0.945322 17.9917C0.813237 18.0014 0.68065 17.9816 0.557121 17.9339C0.433592 17.8862 0.322201 17.8117 0.230984 17.7157C0.139766 17.6198 0.0709957 17.5048 0.0296324 17.3791C-0.0117308 17.2533 -0.0246553 17.12 -0.00820966 16.9887C0.0188403 16.7555 0.13222 16.5408 0.309635 16.3869L1.63956 15.0913C1.69811 15.0746 1.73575 15.0077 1.74411 14.9994Z" fill="white"/>
<path d="M16.1934 0.865148C16.2037 0.64312 16.294 0.432306 16.4478 0.271722C16.6016 0.111139 16.8083 0.0116591 17.0299 -0.00831183C17.235 -0.0271524 17.4402 0.0259435 17.6104 0.141861C17.7806 0.257778 17.9051 0.429283 17.9625 0.626932C17.9911 0.734639 18.0051 0.845671 18.0043 0.957092V3.51061C18.0166 3.64099 17.9999 3.77247 17.9555 3.89568C17.9111 4.01888 17.84 4.13077 17.7473 4.22337C17.6546 4.31597 17.5427 4.387 17.4194 4.4314C17.2961 4.47579 17.1645 4.49245 17.0341 4.48019C16.1433 4.48019 15.2483 4.48019 14.3533 4.48019C14.1233 4.47148 13.9061 4.37203 13.7493 4.20361C13.5925 4.03519 13.5089 3.81154 13.5169 3.58166C13.5165 3.35511 13.603 3.13703 13.7586 2.97225C13.9141 2.80746 14.1269 2.70848 14.3533 2.69566C14.5499 2.69566 14.7464 2.69566 14.943 2.69566H15.4783C15.4522 2.65173 15.4228 2.60982 15.3905 2.57028C15.0471 2.21738 14.6099 1.97003 14.1304 1.85747C13.651 1.7449 13.1493 1.77182 12.6846 1.93503C12.2116 2.07014 11.7879 2.33947 11.465 2.71037C11.1421 3.08127 10.9338 3.53781 10.8654 4.02465C10.7624 4.57877 10.8386 5.15127 11.0829 5.65921C11.3273 6.16715 11.7272 6.58416 12.2246 6.84982C12.7218 7.12144 13.292 7.22967 13.8543 7.15915C14.4166 7.08864 14.9423 6.84296 15.357 6.45697C15.4437 6.37433 15.5462 6.30994 15.6583 6.26761C15.7704 6.22529 15.8898 6.20589 16.0096 6.21056C16.1293 6.21524 16.2469 6.2439 16.3554 6.29484C16.4638 6.34578 16.5609 6.41797 16.6409 6.50713C16.7968 6.68301 16.8772 6.91311 16.8646 7.14772C16.8521 7.38233 16.7477 7.60259 16.574 7.7609C15.7064 8.56253 14.5601 8.99435 13.3788 8.96452C12.7551 8.946 12.1421 8.7983 11.5784 8.53076C11.0148 8.26322 10.5129 7.88168 10.1044 7.41027C9.69599 6.93887 9.38992 6.38787 9.20559 5.79214C9.02126 5.19642 8.96269 4.56894 9.03359 3.94943C9.12535 3.17987 9.41458 2.44707 9.87322 1.82211C10.3319 1.19716 10.9444 0.70126 11.6513 0.382526C12.3582 0.0637924 13.1356 -0.0669588 13.9079 0.00295636C14.6803 0.0728715 15.4215 0.341081 16.0596 0.781565L16.1934 0.865148Z" fill="white"/>
</svg>
