<svg width="34" height="37" viewBox="0 0 34 37" fill="none" xmlns="http://www.w3.org/2000/svg">
<path d="M17.0005 21.4078C11.2558 21.4078 6.61182 16.6086 6.61182 10.7037C6.61182 4.79905 11.2559 0 17.0005 0C22.7452 0 27.3893 4.79916 27.3893 10.7037C27.3893 16.6087 22.7452 21.4078 17.0005 21.4078ZM17.0005 19.5188C21.6881 19.5188 25.5008 15.5787 25.5008 10.7037C25.5008 5.82861 21.6882 1.88901 17.0005 1.88901C12.3129 1.88901 8.50027 5.82861 8.50027 10.7037C8.50027 15.5787 12.3129 19.5188 17.0005 19.5188Z" fill="#F7941E"/>
<path d="M11.9027 23.8568L3.38484 29.1074C2.45507 29.6805 1.8889 30.6946 1.8889 31.7874V32.9047C1.8889 34.0321 2.80243 34.9456 3.92936 34.9456H30.0704C31.1973 34.9456 32.1109 34.0321 32.1109 32.9047V31.7874C32.1109 30.6946 31.5447 29.6806 30.6149 29.1074L22.0971 23.8568C20.487 24.5094 18.7653 24.8498 16.9998 24.8498C15.2342 24.8498 13.5125 24.5094 11.9024 23.8568H11.9027ZM17 22.9608C18.8723 22.9608 20.6472 22.5172 22.2361 21.7231L31.6064 27.4995C33.0939 28.4165 34 30.0394 34 31.7874V32.9047C34 35.0753 32.2406 36.8346 30.0705 36.8346H3.92948C1.75938 36.8346 0 35.0753 0 32.9047V31.7874C0 30.0394 0.906066 28.4166 2.39362 27.4995L11.7639 21.7231C13.353 22.5172 15.1277 22.9608 17 22.9608Z" fill="#F7941E"/>
</svg>
