<svg width="26" height="26" viewBox="0 0 26 26" fill="none" xmlns="http://www.w3.org/2000/svg">
<g clip-path="url(#clip0_1_38933)">
<path d="M13.2844 25.4801H12.695C12.0502 25.3605 11.5597 24.9809 11.0952 24.5459C10.7381 24.2131 10.3672 23.8924 9.98758 23.5821C9.88861 23.5055 9.76605 23.4656 9.64091 23.4695C8.75345 23.5249 7.86771 23.6133 6.98025 23.6619C5.76691 23.7277 4.90025 23.0569 4.60905 21.88C4.43571 21.1867 4.28491 20.4933 4.10465 19.8156C4.0657 19.6808 3.98036 19.5642 3.86371 19.4863C3.10105 19.0148 2.32625 18.5624 1.55665 18.0996C1.27853 17.9425 1.03839 17.7261 0.853262 17.4658C0.668136 17.2055 0.542562 16.9076 0.485448 16.5933C0.47476 16.5636 0.460808 16.5351 0.443848 16.5084V15.8705C0.535714 15.6123 0.617181 15.3505 0.717714 15.0957C0.988114 14.4249 1.27238 13.7593 1.53758 13.0868C1.57869 12.9749 1.57869 12.852 1.53758 12.7401C1.19091 11.818 0.813048 10.9011 0.447314 9.9824V9.28907C0.461181 9.27 0.483714 9.25267 0.487181 9.23187C0.550412 8.9015 0.687364 8.58965 0.887838 8.31955C1.08831 8.04945 1.34714 7.82806 1.64505 7.67187C2.31585 7.2836 2.98318 6.8884 3.64011 6.48107C3.76547 6.39791 3.86038 6.27623 3.91051 6.1344C4.17398 5.3388 4.41838 4.53454 4.66798 3.73374C4.80894 3.24266 5.11734 2.81642 5.53969 2.52894C5.96204 2.24147 6.4717 2.11089 6.98025 2.15987C7.85905 2.22747 8.73785 2.29334 9.61665 2.36614C9.69324 2.38136 9.77228 2.37914 9.8479 2.35963C9.92352 2.34013 9.99377 2.30384 10.0534 2.25347C10.4001 1.93107 10.7693 1.63294 11.1142 1.3088C11.5718 0.877203 12.0572 0.50627 12.695 0.390137H13.2844C13.9326 0.50627 14.4214 0.889337 14.8842 1.32614C15.2118 1.63467 15.5637 1.91547 15.8878 2.224C15.9525 2.2904 16.0318 2.34069 16.1194 2.3708C16.207 2.40091 16.3005 2.41 16.3922 2.39734C17.2381 2.3228 18.0857 2.2604 18.9316 2.198C20.1726 2.10614 21.0792 2.77347 21.3704 3.98507C21.535 4.6784 21.6945 5.37174 21.873 6.05294C21.9084 6.17264 21.9844 6.27625 22.088 6.34587C22.8593 6.8208 23.6393 7.28187 24.4158 7.7464C24.6906 7.90105 24.9287 8.11322 25.1139 8.36841C25.2991 8.62359 25.427 8.91576 25.4888 9.22494C25.5018 9.27143 25.5174 9.31715 25.5356 9.36187V9.99974C25.4611 10.2112 25.3952 10.4261 25.3102 10.6359C25.0277 11.3292 24.7313 12.0225 24.4557 12.7349C24.4124 12.8589 24.4124 12.994 24.4557 13.118C24.8024 14.0419 25.1768 14.9605 25.539 15.8792V16.5171C25.5269 16.5379 25.5061 16.5569 25.5026 16.5777C25.4422 16.9066 25.3084 17.2176 25.1113 17.4877C24.9141 17.7578 24.6587 17.98 24.3638 18.1377C23.6046 18.5849 22.8501 19.0391 22.1001 19.5001C21.9907 19.5737 21.9109 19.6836 21.8748 19.8104C21.7014 20.4725 21.5472 21.1399 21.3842 21.8055C21.0618 23.1263 20.1553 23.7711 18.8033 23.6515C17.9817 23.5787 17.1601 23.5168 16.3385 23.466C16.2061 23.4659 16.0776 23.5111 15.9745 23.5943C15.6036 23.8993 15.2396 24.2148 14.8877 24.5424C14.4197 24.9775 13.9292 25.3571 13.2844 25.4801ZM7.05478 3.4564C6.23491 3.40787 6.06158 3.52574 5.85185 4.1948C5.57625 5.07187 5.29371 5.94547 5.02678 6.826C4.98743 6.9627 4.92116 7.09016 4.83186 7.20089C4.74256 7.31161 4.63204 7.40338 4.50678 7.4708C3.71811 7.9284 2.94678 8.39987 2.15465 8.85747C1.64678 9.15734 1.53931 9.46414 1.76465 10.0101C2.10091 10.8283 2.43198 11.6499 2.78211 12.4628C2.84893 12.6064 2.88355 12.7629 2.88355 12.9213C2.88355 13.0797 2.84893 13.2361 2.78211 13.3797C2.43545 14.1996 2.08878 15.0281 1.75425 15.8549C1.53758 16.3749 1.64505 16.7008 2.13731 16.992C3.01958 17.512 3.90185 18.0476 4.78758 18.5676C4.90809 18.6349 5.01272 18.7272 5.09437 18.8385C5.17602 18.9498 5.23277 19.0773 5.26078 19.2124C5.44798 20.0184 5.64558 20.8209 5.84145 21.6252C6.01478 22.3185 6.23491 22.4728 6.94211 22.4173C7.90065 22.3393 8.86091 22.2683 9.81771 22.1833C9.96301 22.166 10.1103 22.1808 10.2493 22.2266C10.3883 22.2724 10.5155 22.3482 10.622 22.4485C11.213 22.9789 11.8128 23.5007 12.4125 24.0224C12.8146 24.3691 13.17 24.3691 13.5721 24.0224C14.1458 23.5197 14.7265 23.0275 15.2846 22.5109C15.4128 22.3861 15.5679 22.2924 15.738 22.2371C15.9081 22.1818 16.0887 22.1664 16.2657 22.192C17.2312 22.2873 18.2001 22.3567 19.1673 22.4243C19.7306 22.4641 19.9854 22.2613 20.1172 21.7188C20.3148 20.8989 20.5228 20.0808 20.7082 19.2575C20.7386 19.1108 20.801 18.9726 20.8909 18.8528C20.9808 18.7329 21.0959 18.6344 21.2282 18.5641C22.107 18.0441 22.9806 17.5241 23.8542 17.0041C24.343 16.7112 24.447 16.394 24.2286 15.8636C23.882 15.0299 23.5353 14.1944 23.1886 13.3641C23.1279 13.2314 23.0964 13.0872 23.0964 12.9412C23.0964 12.7952 23.1279 12.651 23.1886 12.5183C23.5353 11.7036 23.8664 10.882 24.2044 10.0639C24.4505 9.46934 24.3569 9.18334 23.8057 8.85054C22.939 8.33054 22.0724 7.81054 21.2057 7.29054C21.0814 7.2227 20.9735 7.1284 20.8896 7.01428C20.8058 6.90017 20.748 6.76903 20.7204 6.63014C20.528 5.7912 20.32 4.95574 20.1172 4.12027C20.001 3.6384 19.7133 3.4044 19.2713 3.4356C18.2036 3.51534 17.1358 3.59507 16.0681 3.68174C15.9431 3.69679 15.8163 3.68443 15.6966 3.64552C15.5769 3.6066 15.467 3.54207 15.3748 3.4564C14.7878 2.93409 14.1984 2.41409 13.6068 1.8964C13.17 1.50987 12.825 1.5064 12.3934 1.88774C11.8093 2.40774 11.2252 2.91387 10.6445 3.43387C10.5447 3.52855 10.4252 3.60002 10.2946 3.64317C10.1639 3.68632 10.0254 3.70008 9.88878 3.68347C8.91291 3.5916 7.92838 3.524 7.05478 3.4564Z" fill="#11820D"/>
<path d="M12.9999 4.6626C14.6385 4.66226 16.2403 5.148 17.6028 6.05835C18.9652 6.9687 20.027 8.26275 20.6537 9.77674C21.2804 11.2907 21.444 12.9566 21.1236 14.5636C20.8033 16.1706 20.0135 17.6464 18.8541 18.8043C17.6947 19.9622 16.2179 20.7502 14.6105 21.0685C13.0031 21.3869 11.3375 21.2212 9.82425 20.5926C8.31105 19.9639 7.01834 18.9005 6.1097 17.537C5.20106 16.1734 4.71733 14.5709 4.71974 12.9323C4.7266 10.7394 5.60151 8.63835 7.15315 7.08866C8.70478 5.53897 10.8069 4.66671 12.9999 4.6626ZM5.87934 12.9583C5.87729 14.3717 6.29426 15.7539 7.07755 16.9304C7.86084 18.1068 8.9753 19.0246 10.2801 19.5679C11.5849 20.1111 13.0214 20.2553 14.4081 19.9824C15.7949 19.7094 17.0696 19.0315 18.0711 18.0343C19.0727 17.0371 19.7562 15.7654 20.0352 14.3798C20.3142 12.9943 20.1762 11.5571 19.6387 10.25C19.1011 8.94286 18.1882 7.82441 17.0152 7.03599C15.8421 6.24757 14.4617 5.82458 13.0484 5.82046C11.1517 5.81816 9.33165 6.56845 7.98759 7.90666C6.64352 9.24488 5.8853 11.0617 5.87934 12.9583Z" fill="#11820D"/>
<path d="M12.2323 14.1438C12.3294 14.0502 12.4057 13.9895 12.4611 13.9254C13.6918 12.697 14.9219 11.464 16.1514 10.2264C16.2397 10.1194 16.3539 10.0367 16.4831 9.98601C16.6123 9.93536 16.7523 9.91848 16.8898 9.93696C17.0142 9.95711 17.1315 10.0084 17.2307 10.0861C17.33 10.1637 17.408 10.2652 17.4574 10.3811C17.5069 10.497 17.5263 10.6236 17.5137 10.749C17.5011 10.8743 17.457 10.9945 17.3855 11.0983C17.3271 11.1801 17.2603 11.2556 17.1862 11.3236L12.9101 15.6102C12.4455 16.073 12.0555 16.0747 11.5962 15.6102C10.6475 14.6638 9.70108 13.7168 8.75699 12.7692C8.29766 12.3082 8.45886 11.6183 9.05512 11.4623C9.19398 11.4266 9.34011 11.4309 9.47662 11.4747C9.61312 11.5186 9.73441 11.6002 9.82645 11.7102L12.0278 13.9115C12.0919 13.9791 12.1509 14.0519 12.2323 14.1438Z" fill="#24AC20"/>
</g>
<defs>
<clipPath id="clip0_1_38933">
<rect width="26" height="26" fill="white"/>
</clipPath>
</defs>
</svg>
