<svg width="73" height="81" viewBox="0 0 73 81" fill="none" xmlns="http://www.w3.org/2000/svg">
<path d="M44.639 16.6992H14.6699V18.8337H44.639V16.6992Z" fill="#FFC001"/>
<path d="M44.2138 26.5176H14.2446V28.6521H44.2138V26.5176Z" fill="#FFC001"/>
<path d="M31.9341 36.0166H14.2446V38.1511H31.9341V36.0166Z" fill="#FFC001"/>
<path d="M25.0125 45.9414H14.2446V48.0759H25.0125V45.9414Z" fill="#FFC001"/>
<path d="M24.4469 55.5469H14.2446V57.6814H24.4469V55.5469Z" fill="#FFC001"/>
<path d="M33.5285 72.8362H1.06664C0.479586 72.8362 0.00390625 72.3585 0.00390625 71.7689V1.54381C0.00390625 0.954477 0.479586 0.476562 1.06664 0.476562H56.5414C57.1285 0.476562 57.6041 0.954477 57.6041 1.54381V35.8709C57.6041 36.2613 57.3918 36.6205 57.0507 36.8077C56.7095 36.9947 56.294 36.9799 55.9665 36.7686C52.7164 34.6704 48.9463 33.5613 45.0639 33.5613C33.93 33.5613 24.8719 42.6579 24.8719 53.8391C24.8719 60.7457 28.3239 67.1135 34.106 70.873C34.5011 71.13 34.681 71.6178 34.5475 72.0714C34.414 72.5249 33.9993 72.8362 33.5285 72.8362ZM2.12938 70.7017H30.359C25.5436 66.4749 22.7464 60.3754 22.7464 53.8391C22.7464 41.481 32.758 31.4268 45.0639 31.4268C48.7173 31.4268 52.2818 32.3161 55.4787 34.0126V2.61106H2.12938V70.7017Z" fill="#FFC000"/>
<path d="M57.1161 34.973C53.5223 32.653 49.3547 31.4268 45.064 31.4268C32.7582 31.4268 22.7466 41.4809 22.7466 53.839C22.7466 61.4726 26.5612 68.5101 32.951 72.6647C36.5598 75.0109 40.7485 76.2513 45.064 76.2513C57.3699 76.2513 67.3815 66.1971 67.3815 53.839C67.3815 46.1753 63.5439 39.1227 57.1161 34.973ZM45.064 74.1168C41.1593 74.1168 37.3705 72.9951 34.1062 70.873C28.324 67.1137 24.8721 60.7458 24.8721 53.839C24.8721 42.6579 33.9302 33.5613 45.064 33.5613C48.9464 33.5613 52.7166 34.6703 55.9668 36.7686C61.7834 40.5234 65.256 46.9049 65.256 53.839C65.256 65.0202 56.1979 74.1168 45.064 74.1168Z" fill="#FEC100"/>
<path d="M31.9339 43.9492H52.857V48.7873H29.229L31.9339 43.9492Z" fill="#F7941E"/>
<path d="M31.3066 61.5244H52.8571V56.541H28.5205L31.3066 61.5244Z" fill="#F7941E"/>
<path d="M69.8678 80.941L58.999 70.0311L61.2527 67.7666L72.1217 78.6763" fill="#FFC100"/>
</svg>
