<svg width="29" height="29" viewBox="0 0 29 29" fill="none" xmlns="http://www.w3.org/2000/svg">
<mask id="mask0_1_39663" style="mask-type:luminance" maskUnits="userSpaceOnUse" x="0" y="0" width="29" height="29">
<path d="M0 0H29V29H0V0Z" fill="white"/>
</mask>
<g mask="url(#mask0_1_39663)">
<path fill-rule="evenodd" clip-rule="evenodd" d="M3.14905 22.8649C1.87912 22.8649 0.849609 21.8203 0.849609 20.5317V6.71023C0.849609 5.42163 1.87911 4.37703 3.14905 4.37703H25.851C27.1209 4.37703 28.1504 5.42163 28.1504 6.71023V20.5317C28.1504 21.8203 27.1209 22.8649 25.851 22.8649H24.9429C24.7083 22.8649 24.5181 23.0579 24.5181 23.296C24.5181 23.5341 24.7083 23.7271 24.9429 23.7271H25.851C27.5901 23.7271 29 22.2964 29 20.5317V6.71023C29 4.94548 27.5901 3.51493 25.851 3.51493H3.14905C1.4099 3.51493 0 4.94548 0 6.71023V20.5317C0 22.2964 1.40989 23.7271 3.14905 23.7271H23.1268C23.3614 23.7271 23.5516 23.5341 23.5516 23.296C23.5516 23.0579 23.3614 22.8649 23.1268 22.8649H3.14905Z" fill="#F5941E" stroke="#F5941E" stroke-width="0.35" stroke-miterlimit="10" stroke-linecap="round" stroke-linejoin="round"/>
<path fill-rule="evenodd" clip-rule="evenodd" d="M5.27344 26.0455C5.27344 26.2881 5.46732 26.4849 5.70649 26.4849H23.2949C23.5341 26.4849 23.728 26.2881 23.728 26.0455C23.728 25.8028 23.5341 25.6061 23.2949 25.6061H5.70649C5.46732 25.6061 5.27344 25.8028 5.27344 26.0455Z" fill="#F5941E" stroke="#F5941E" stroke-width="0.35" stroke-miterlimit="10" stroke-linecap="round" stroke-linejoin="round"/>
<path fill-rule="evenodd" clip-rule="evenodd" d="M12.0861 17.5572C11.7663 17.7169 11.3902 17.4845 11.3902 17.1272V10.1152C11.3902 9.75799 11.7663 9.52555 12.0861 9.68537L13.0372 10.1608C13.246 10.2651 13.4999 10.1805 13.6043 9.97182C13.7087 9.76311 13.624 9.50933 13.4153 9.40498L12.4641 8.92958C11.5824 8.4889 10.5449 9.12973 10.5449 10.1152V17.1272C10.5449 18.1128 11.5824 18.7536 12.4641 18.313L19.4786 14.807C20.4559 14.3184 20.4559 12.9241 19.4786 12.4356L15.2222 10.3081C15.0134 10.2038 14.7595 10.2883 14.6551 10.4971C14.5507 10.7058 14.6354 10.9595 14.8441 11.0639L19.1005 13.1914C19.4549 13.3685 19.4549 13.874 19.1005 14.0512L12.0861 17.5572Z" fill="#FFC30D"/>
<path d="M19.1005 13.1914L14.8441 11.0639C14.6354 10.9595 14.5507 10.7058 14.6551 10.4971C14.7595 10.2883 15.0134 10.2038 15.2222 10.3081L19.4786 12.4356C20.4559 12.9241 20.4559 14.3184 19.4786 14.807L12.4641 18.313C11.5824 18.7536 10.5449 18.1128 10.5449 17.1272V10.1152C10.5449 9.12973 11.5824 8.4889 12.4641 8.92958L13.4153 9.40498C13.624 9.50933 13.7087 9.76311 13.6043 9.97182C13.4999 10.1805 13.246 10.2651 13.0372 10.1608L12.0861 9.68537C11.7663 9.52555 11.3902 9.75799 11.3902 10.1152V17.1272C11.3902 17.4845 11.7663 17.7169 12.0861 17.5572L19.1005 14.0512M19.1005 13.1914L19.2834 12.8257M19.1005 13.1914C19.4549 13.3685 19.4549 13.874 19.1005 14.0512M19.1005 14.0512L19.2895 14.4291" stroke="#FFC30D" stroke-width="0.5" stroke-miterlimit="10" stroke-linecap="round" stroke-linejoin="round"/>
</g>
</svg>
