<svg width="12" height="11" viewBox="0 0 12 11" fill="none" xmlns="http://www.w3.org/2000/svg">
<g id="Frame" clip-path="url(#clip0_1_33079)">
<path id="Vector" d="M6.32091 10.9233H5.67855C5.65607 10.918 5.63412 10.9107 5.61137 10.9075C5.37691 10.8739 5.14003 10.8516 4.90825 10.8061C2.91559 10.4148 1.26633 8.73493 0.941135 6.76905C0.909552 6.57864 0.887605 6.38691 0.86084 6.1957V5.56536C0.893493 5.34212 0.918117 5.11729 0.960406 4.89562C1.34261 2.88641 3.05183 1.24673 5.10417 0.916591C5.29474 0.885862 5.48691 0.864062 5.67855 0.839111H6.32091C6.34767 0.844627 6.3723 0.851456 6.39826 0.855396C6.66216 0.89558 6.92955 0.91948 7.18917 0.977787C9.16844 1.42165 10.7259 3.04767 11.0607 5.0125C11.092 5.19635 11.1129 5.38204 11.1386 5.56668V6.19702C11.133 6.22328 11.1255 6.24745 11.1218 6.27318C11.087 6.50641 11.0647 6.74226 11.0163 6.97286C10.6047 8.92745 8.90186 10.5277 6.89448 10.8468C6.70445 10.876 6.51228 10.897 6.32091 10.9233ZM10.8174 5.88421C10.8209 3.27486 8.6658 1.15665 6.00374 1.15297C3.34169 1.14929 1.18577 3.26461 1.18202 5.87659C1.17827 8.48857 3.3342 10.6042 5.99571 10.6081C8.65723 10.612 10.8137 8.49645 10.8174 5.88421Z" fill="#949392"/>
<path id="Vector_2" d="M6.10402 1.46802C6.89627 1.47668 7.70993 1.70965 8.44918 2.18188C8.492 2.20814 8.54633 2.25069 8.55329 2.29245C8.56213 2.34498 8.545 2.42719 8.50726 2.45477C8.48014 2.47031 8.44985 2.47976 8.41856 2.48244C8.38728 2.48511 8.35578 2.48096 8.32633 2.47026C8.21391 2.4222 8.11435 2.34629 8.00515 2.28799C5.57889 0.978977 2.51831 2.33132 1.92787 4.9848C1.63614 6.29801 1.94393 7.48174 2.81112 8.52417C2.83227 8.55043 2.85555 8.57328 2.87643 8.59902C2.94602 8.68491 2.94361 8.7742 2.87134 8.8354C2.79908 8.8966 2.70326 8.88793 2.6334 8.80415C2.50734 8.65103 2.37779 8.49974 2.26672 8.33638C1.71723 7.53086 1.46591 6.63997 1.50793 5.67292C1.58823 3.81683 2.8882 2.18451 4.69993 1.65449C5.12897 1.52895 5.56765 1.46802 6.10402 1.46802Z" fill="#949392"/>
<path id="Vector_3" d="M10.4964 5.86565C10.5027 6.88778 10.1456 7.88008 9.48678 8.6718C8.82794 9.46352 7.90848 10.0051 6.88663 10.2034C5.53312 10.4679 4.30033 10.162 3.20483 9.33515C3.10179 9.25636 3.08171 9.17048 3.14274 9.09142C3.20376 9.01237 3.30012 9.00948 3.40637 9.09142C4.01822 9.56103 4.70742 9.85308 5.47906 9.94238C6.74665 10.0879 7.86275 9.7412 8.81024 8.90337C9.54199 8.257 9.98228 7.44413 10.1273 6.48863C10.2783 5.49427 10.0784 4.56425 9.53851 3.70699C9.51924 3.67626 9.4981 3.64658 9.47936 3.61559C9.42583 3.52419 9.44216 3.43174 9.52272 3.38289C9.60329 3.33403 9.69375 3.35399 9.74621 3.44408C9.88004 3.67153 10.0176 3.89714 10.1271 4.13509C10.3752 4.6722 10.4948 5.27312 10.4964 5.86565Z" fill="#949392"/>
<path id="Vector_4" d="M5.83921 4.37407C5.83921 4.0526 5.83921 3.73112 5.83921 3.40965C5.83921 3.2757 5.89568 3.20321 5.99819 3.20216C6.1007 3.20111 6.15878 3.27465 6.15878 3.4065C6.15878 4.04944 6.15878 4.69239 6.15878 5.33534C6.15878 5.39864 6.16842 5.43777 6.2356 5.47297C6.29174 5.50242 6.34114 5.54284 6.38074 5.59175C6.42034 5.64066 6.44931 5.69701 6.46587 5.75733C6.48242 5.81765 6.4862 5.88065 6.47698 5.94246C6.46776 6.00427 6.44573 6.06357 6.41225 6.1167C6.37317 6.17947 6.38307 6.21808 6.41599 6.27429C6.68507 6.72743 6.95272 7.18137 7.21895 7.63609C7.23859 7.66649 7.25501 7.69879 7.26793 7.73248C7.28164 7.76482 7.28257 7.80101 7.27054 7.83398C7.25851 7.86696 7.23439 7.89435 7.20289 7.91081C7.17212 7.9318 7.13447 7.94075 7.09733 7.93589C7.06018 7.93103 7.02624 7.91272 7.00215 7.88455C6.97854 7.857 6.95841 7.82675 6.9422 7.79446C6.67401 7.34132 6.40681 6.88712 6.14058 6.43187C6.1082 6.37619 6.07715 6.34757 6.00328 6.3494C5.89655 6.35078 5.79244 6.31702 5.70755 6.25353C5.62267 6.19003 5.56191 6.10046 5.53498 5.99911C5.50805 5.89776 5.5165 5.79048 5.55898 5.6944C5.60147 5.59831 5.67553 5.51897 5.76935 5.46903C5.82583 5.43909 5.84108 5.40678 5.84055 5.34769C5.83921 5.02358 5.83921 4.69843 5.83921 4.37407ZM5.9998 5.72274C5.96796 5.72237 5.93673 5.73131 5.91007 5.7484C5.88342 5.76549 5.86254 5.78997 5.8501 5.81873C5.83766 5.8475 5.83421 5.87924 5.84019 5.90992C5.84618 5.94061 5.86132 5.96887 5.88371 5.99109C5.90609 6.01331 5.9347 6.0285 5.9659 6.03473C5.9971 6.04097 6.02949 6.03795 6.05894 6.02608C6.08839 6.01421 6.11358 5.99402 6.13132 5.96806C6.14905 5.94211 6.15851 5.91157 6.15851 5.88032C6.15852 5.83885 6.14186 5.79904 6.11214 5.76954C6.08243 5.74004 6.04206 5.72322 5.9998 5.72274Z" fill="#949392"/>
<path id="Vector_5" d="M6.16045 2.49234C6.16045 2.56798 6.16259 2.64336 6.16045 2.719C6.1567 2.81933 6.09059 2.88551 5.99986 2.88499C5.90913 2.88446 5.84275 2.81801 5.84087 2.71742C5.8382 2.56649 5.8382 2.41556 5.84087 2.26463C5.84275 2.16403 5.90966 2.09811 6.00146 2.09864C6.09327 2.09916 6.15724 2.16482 6.16206 2.26594C6.16232 2.34184 6.16045 2.41748 6.16045 2.49234Z" fill="#949392"/>
<path id="Vector_6" d="M2.54083 6.03785C2.46374 6.03785 2.38693 6.04047 2.31011 6.03785C2.21376 6.03364 2.14952 5.97035 2.14658 5.88472C2.14363 5.7991 2.21135 5.72714 2.31279 5.72478C2.46999 5.72162 2.62719 5.72162 2.78439 5.72478C2.80539 5.72404 2.82633 5.72742 2.84599 5.73473C2.86564 5.74204 2.88361 5.75313 2.89884 5.76734C2.91407 5.78155 2.92626 5.79861 2.93469 5.8175C2.94312 5.83639 2.94762 5.85675 2.94792 5.87737C2.95006 5.96641 2.88262 6.03496 2.78144 6.03785C2.70142 6.03995 2.62112 6.03785 2.54083 6.03785Z" fill="#949392"/>
<path id="Vector_7" d="M9.46153 6.03796C9.38124 6.03796 9.30094 6.04032 9.22065 6.03796C9.11841 6.03428 9.05123 5.96941 9.05176 5.88037C9.0523 5.79134 9.11921 5.72646 9.22252 5.72463C9.37651 5.722 9.53032 5.722 9.68395 5.72463C9.78646 5.72646 9.85364 5.79265 9.8531 5.88221C9.85257 5.97177 9.78486 6.03481 9.68208 6.03822C9.60874 6.0398 9.53514 6.03796 9.46153 6.03796Z" fill="#949392"/>
<path id="Vector_8" d="M5.83933 9.26858C5.83933 9.1932 5.83719 9.11756 5.83933 9.04218C5.84308 8.94185 5.90892 8.87593 5.99992 8.87672C6.09092 8.8775 6.15676 8.94343 6.15864 9.04454C6.16131 9.1953 6.16131 9.34658 6.15864 9.49734C6.15676 9.59767 6.08878 9.66386 5.99805 9.66307C5.90731 9.66228 5.84442 9.59583 5.83906 9.49524C5.83906 9.48867 5.83906 9.48211 5.83906 9.47554C5.83933 9.40515 5.83933 9.33634 5.83933 9.26858Z" fill="#949392"/>
<path id="Vector_9" d="M4.1851 2.58643C4.20812 2.60402 4.26539 2.63002 4.2943 2.67389C4.37807 2.79995 4.45302 2.93206 4.52715 3.06391C4.57721 3.15295 4.55392 3.24119 4.47362 3.28584C4.39333 3.33049 4.30393 3.30554 4.25067 3.21913C4.17038 3.08781 4.09008 2.95491 4.01594 2.81913C3.95519 2.70829 4.02825 2.58879 4.1851 2.58643Z" fill="#949392"/>
<path id="Vector_10" d="M7.63952 3.30499C7.49178 3.30499 7.40854 3.19494 7.4602 3.09487C7.53835 2.94306 7.62694 2.79598 7.71901 2.65179C7.76585 2.57799 7.84427 2.56827 7.92296 2.60609C7.94131 2.61453 7.95768 2.62659 7.97107 2.64151C7.98446 2.65643 7.99457 2.6739 8.00077 2.69282C8.00697 2.71175 8.00914 2.73173 8.00712 2.75151C8.00511 2.77129 7.99897 2.79045 7.98907 2.8078C7.91092 2.95226 7.82848 3.09513 7.73882 3.23302C7.71286 3.27163 7.65933 3.29185 7.63952 3.30499Z" fill="#949392"/>
<path id="Vector_11" d="M8.76664 4.4795C8.72194 4.44063 8.65262 4.40859 8.64004 4.36157C8.62586 4.30904 8.64406 4.21607 8.68313 4.18954C8.83237 4.0905 8.98803 4.0011 9.14911 3.92191C9.21924 3.88619 9.28856 3.91902 9.33085 3.98389C9.37314 4.04877 9.37635 4.13019 9.31238 4.17142C9.15179 4.27648 8.97996 4.36394 8.81241 4.45823C8.80301 4.46126 8.79312 4.4626 8.78323 4.46217L8.76664 4.4795Z" fill="#949392"/>
<path id="Vector_12" d="M9.35528 7.65967C9.35769 7.80202 9.24635 7.8858 9.14357 7.83537C8.9858 7.75696 8.83232 7.67053 8.68375 7.57641C8.60961 7.52966 8.60184 7.44876 8.64734 7.37549C8.69284 7.30221 8.76618 7.27384 8.84594 7.31534C8.99609 7.39413 9.1441 7.47713 9.28783 7.56616C9.32477 7.58928 9.3427 7.64154 9.35528 7.65967Z" fill="#949392"/>
<path id="Vector_13" d="M3.37687 4.27375C3.37687 4.41137 3.26981 4.49725 3.17185 4.45024C3.01113 4.3705 2.85462 4.28284 2.70292 4.1876C2.63414 4.14531 2.62397 4.04971 2.66866 3.9851C2.71336 3.92049 2.78455 3.88635 2.85976 3.92496C3.0134 4.00375 3.16364 4.08876 3.31049 4.17998C3.34609 4.20231 3.36348 4.25562 3.37687 4.27375Z" fill="#949392"/>
<path id="Vector_14" d="M2.78502 7.86754C2.74086 7.82841 2.68278 7.79716 2.65575 7.74883C2.63834 7.7197 2.63327 7.68504 2.64163 7.65228C2.64999 7.61952 2.6711 7.59129 2.70044 7.57365C2.85354 7.48041 3.00931 7.3898 3.1691 7.30969C3.23949 7.27397 3.30881 7.30759 3.35057 7.37273C3.39232 7.43786 3.3958 7.51876 3.3313 7.55999C3.17071 7.66347 2.99888 7.75224 2.83106 7.84627C2.82146 7.84922 2.81138 7.85038 2.80135 7.84969L2.78502 7.86754Z" fill="#949392"/>
<path id="Vector_15" d="M4.57727 8.59871C4.46111 8.79989 4.3851 9.00187 4.22611 9.15026C4.19747 9.17652 4.0947 9.1647 4.05642 9.13397C4.01815 9.10325 3.9871 9.0129 4.00637 8.97376C4.08581 8.81134 4.17798 8.65521 4.28205 8.50678C4.30721 8.47106 4.40062 8.45426 4.4504 8.46949C4.50019 8.48472 4.5323 8.55012 4.57727 8.59871Z" fill="#949392"/>
<path id="Vector_16" d="M8.02445 9.0379C7.98404 9.08045 7.95085 9.13692 7.90106 9.16213C7.871 9.17853 7.83561 9.18277 7.80241 9.17394C7.76921 9.16511 7.74084 9.14391 7.72334 9.11486C7.63047 8.96725 7.54134 8.81728 7.45837 8.6639C7.4209 8.59456 7.45061 8.52732 7.51457 8.4832C7.57854 8.43908 7.66392 8.43251 7.70595 8.49397C7.81301 8.65392 7.90615 8.82516 8.00384 8.99299C8.00839 9.00061 8.00571 9.01242 8.00652 9.02214L8.02445 9.0379Z" fill="#949392"/>
<path id="Vector_17" d="M8.88055 2.53125C8.93702 2.5625 8.97958 2.57669 9.00929 2.60426C9.11367 2.70039 9.21618 2.79888 9.31468 2.90105C9.39096 2.97984 9.38962 3.07177 9.3203 3.13585C9.25098 3.19994 9.16185 3.19363 9.08129 3.11615C8.98119 3.02003 8.88162 2.92364 8.78339 2.82593C8.73254 2.77524 8.70524 2.71063 8.74699 2.64865C8.77831 2.60216 8.83371 2.57117 8.88055 2.53125Z" fill="#949392"/>
<path id="Vector_18" d="M5.99996 5.7229C6.0318 5.7229 6.06292 5.73219 6.08937 5.74959C6.11582 5.76699 6.1364 5.79171 6.14849 5.82061C6.16059 5.84951 6.16366 5.88129 6.15731 5.91191C6.15096 5.94253 6.13548 5.9706 6.11283 5.99257C6.09019 6.01453 6.0614 6.02939 6.03012 6.03526C5.99885 6.04114 5.9665 6.03775 5.93719 6.02554C5.90788 6.01333 5.88293 5.99285 5.86552 5.96669C5.8481 5.94054 5.83899 5.90989 5.83937 5.87865C5.83986 5.83717 5.857 5.79756 5.88706 5.7684C5.91712 5.73925 5.95769 5.7229 5.99996 5.7229Z" fill="white"/>
</g>
<defs>
<clipPath id="clip0_1_33079">
<rect width="10.2778" height="10.0855" fill="white" transform="translate(0.86084 0.837646)"/>
</clipPath>
</defs>
</svg>
